<svg width="20" height="20" viewBox="0 0 20 20" fill="none" xmlns="http://www.w3.org/2000/svg">
<path d="M10.0001 19.0038C14.9727 19.0038 19.0038 14.9727 19.0038 10.0001C19.0038 5.02745 14.9727 0.996338 10.0001 0.996338C5.02745 0.996338 0.996338 5.02745 0.996338 10.0001C0.996338 14.9727 5.02745 19.0038 10.0001 19.0038Z" stroke="#FAFAFA" stroke-width="1.5" stroke-linecap="round" stroke-linejoin="round"/>
<path d="M3.638 7.961C3.682 7.279 3.94233 6.74733 4.419 6.366C4.903 5.98467 5.519 5.794 6.267 5.794C6.78033 5.794 7.224 5.88567 7.598 6.069C7.972 6.25233 8.25433 6.50167 8.445 6.817C8.63567 7.13233 8.731 7.488 8.731 7.884C8.731 8.33867 8.61 8.72733 8.368 9.05C8.126 9.37267 7.83633 9.589 7.499 9.699V9.743C7.93167 9.875 8.269 10.117 8.511 10.469C8.753 10.8137 8.874 11.2573 8.874 11.8C8.874 12.2327 8.775 12.6177 8.577 12.955C8.379 13.2923 8.08567 13.56 7.697 13.758C7.30833 13.9487 6.84267 14.044 6.3 14.044C5.508 14.044 4.85533 13.8423 4.342 13.439C3.836 13.0283 3.56467 12.4417 3.528 11.679H4.738C4.76733 12.0677 4.91767 12.3867 5.189 12.636C5.46033 12.878 5.827 12.999 6.289 12.999C6.73633 12.999 7.081 12.878 7.323 12.636C7.565 12.3867 7.686 12.0677 7.686 11.679C7.686 11.1657 7.521 10.8027 7.191 10.59C6.86833 10.37 6.36967 10.26 5.695 10.26H5.409V9.226H5.706C6.3 9.21867 6.751 9.11967 7.059 8.929C7.37433 8.73833 7.532 8.43767 7.532 8.027C7.532 7.675 7.41833 7.39633 7.191 7.191C6.96367 6.97833 6.641 6.872 6.223 6.872C5.81233 6.872 5.49333 6.97833 5.266 7.191C5.03867 7.39633 4.903 7.653 4.859 7.961H3.638ZM12.8533 6.355C13.6673 6.355 14.3786 6.51267 14.9873 6.828C15.6033 7.136 16.0763 7.58333 16.4062 8.17C16.7436 8.74933 16.9123 9.42767 16.9123 10.205C16.9123 10.9823 16.7436 11.657 16.4062 12.229C16.0763 12.801 15.6033 13.241 14.9873 13.549C14.3786 13.8497 13.6673 14 12.8533 14H10.3563V6.355H12.8533ZM12.8533 12.977C13.7479 12.977 14.4336 12.735 14.9103 12.251C15.3869 11.767 15.6253 11.085 15.6253 10.205C15.6253 9.31767 15.3869 8.62467 14.9103 8.126C14.4336 7.62733 13.7479 7.378 12.8533 7.378H11.6103V12.977H12.8533Z" fill="white"/>
</svg>
