<svg width="32" height="32" viewBox="0 0 32 32" fill="none" xmlns="http://www.w3.org/2000/svg">
<path d="M16.8008 20.8496C17.1265 20.8496 17.3713 20.9984 17.5293 21.1387C17.6857 21.2776 17.7921 21.4304 17.875 21.5703L17.9854 21.7744C18.0168 21.8385 18.0425 21.8979 18.0635 21.9482C18.0846 21.9989 18.1005 22.0415 18.1113 22.0713C18.1166 22.0858 18.1212 22.0972 18.124 22.1055C18.1254 22.1094 18.1262 22.1129 18.127 22.1152C18.1273 22.1162 18.1277 22.1175 18.1279 22.1182L18.1289 22.1191V22.1201L18.1436 22.1816C18.168 22.3254 18.119 22.4698 18.0127 22.5762C17.7032 22.8872 17.39 23.0794 17.1494 23.2529C16.9066 23.4281 16.7011 23.5965 16.4775 23.917L16.4766 23.918C16.3707 24.0682 16.1867 24.1504 16 24.1504C15.8373 24.1504 15.675 24.0876 15.5664 23.9707L15.5234 23.917C15.3552 23.6757 15.1955 23.5164 15.0244 23.377L14.8486 23.2422C14.6091 23.067 14.3034 22.8772 13.9971 22.585H13.9961C13.8763 22.4702 13.8201 22.3051 13.8652 22.1406L13.8955 22.0303H13.9014C13.908 22.0108 13.9152 21.9891 13.9238 21.9658C13.962 21.8625 14.0208 21.7229 14.1025 21.5791L14.1689 21.4688C14.2411 21.3572 14.332 21.2416 14.4551 21.1348L14.5967 21.0293C14.7542 20.9293 14.9591 20.8506 15.1992 20.8506L16.8008 20.8496ZM15.2412 21.8301C15.2077 21.8589 15.1509 21.9284 15.1016 22.0146C15.0823 22.0487 15.0653 22.0831 15.0498 22.1162C15.2087 22.2392 15.3715 22.3502 15.5674 22.4941L15.834 22.7041C15.8897 22.7514 15.9457 22.8017 16.002 22.8555C16.1517 22.715 16.2997 22.5989 16.4385 22.499C16.6289 22.3621 16.7876 22.2556 16.9395 22.1348C16.9215 22.0989 16.9047 22.0604 16.8828 22.0234V22.0225C16.8304 21.9353 16.7707 21.8613 16.7334 21.8271H15.2451C15.2439 21.8281 15.2425 21.829 15.2412 21.8301ZM16.8008 21.8242C16.8025 21.824 16.8048 21.8245 16.8066 21.8242C16.8139 21.823 16.8291 21.8199 16.8467 21.8115C16.8576 21.8063 16.8725 21.7943 16.8887 21.7773C16.8675 21.7524 16.8493 21.7291 16.8311 21.7129C16.8189 21.702 16.8084 21.695 16.8008 21.6895V21.8242Z" fill="#514848" stroke="#514848" stroke-width="0.3"/>
<path d="M18.6143 24.8496C18.9293 24.8496 19.1504 25.137 19.1504 25.4453C19.1504 26.5138 18.5707 27.264 17.915 27.6533C17.2687 28.037 16.5436 28.1503 16 28.1504C15.4564 28.1504 14.7305 28.0372 14.084 27.6533C13.4283 27.2639 12.8496 26.5137 12.8496 25.4453C12.8496 25.137 13.0707 24.8496 13.3857 24.8496C13.6483 24.8498 13.8432 25.05 13.9014 25.2949H13.9219V25.4453C13.9219 25.7549 13.9887 25.9802 14.0996 26.1562C14.2113 26.3334 14.3753 26.4734 14.5898 26.6006C15.0126 26.8518 15.5945 26.957 16 26.957C16.4054 26.957 16.9871 26.852 17.4111 26.6006C17.6253 26.4733 17.7895 26.3335 17.9014 26.1562C18.0124 25.9802 18.0791 25.7548 18.0791 25.4453C18.0791 25.1371 18.2994 24.8498 18.6143 24.8496Z" fill="#514848" stroke="#514848" stroke-width="0.3"/>
<path d="M8.66016 3.85059C8.93543 3.85941 9.20392 3.94048 9.45117 4.02637L9.62305 4.08984C10.025 4.24795 10.4207 4.48132 10.6602 4.88477L10.8906 5.27344L11.0703 5.57812C11.2128 5.81676 11.156 6.11227 10.9551 6.28613L10.8604 6.35352C10.7285 6.42698 10.5718 6.44626 10.4258 6.4082C10.2796 6.36999 10.1545 6.27671 10.0771 6.14746L10.0762 6.14648L9.89551 5.84082L9.70898 5.52637H9.70703L9.66406 5.45215C9.6645 5.45302 9.65175 5.43668 9.61328 5.40332C9.5783 5.37299 9.53073 5.33604 9.47363 5.29785C9.35898 5.2212 9.21348 5.14279 9.06641 5.0918C8.92316 5.04216 8.77172 5.02412 8.6543 5.01855C8.59625 5.01581 8.54746 5.01611 8.51367 5.0166C8.50851 5.01668 8.5032 5.01652 8.49805 5.0166L7.25195 5.71777C7.24895 5.72221 7.24595 5.72761 7.24219 5.7334C7.22471 5.76034 7.19974 5.80022 7.17383 5.84961C7.12151 5.94933 7.06556 6.08312 7.03906 6.22656C7.01246 6.37353 7.01071 6.53313 7.02246 6.66699C7.02832 6.73368 7.03698 6.79231 7.04688 6.83691C7.05179 6.85902 7.0572 6.87672 7.06152 6.88965C7.06456 6.89869 7.0666 6.90355 7.06738 6.90527V6.90625L7.29785 7.29492L7.5791 7.76855C7.57633 7.76389 7.57431 7.75946 7.57227 7.75684C7.57812 7.76199 7.58799 7.76991 7.60254 7.78027C7.63261 7.80167 7.67739 7.8299 7.73438 7.86035C7.84817 7.92113 8.00724 7.98977 8.19629 8.04004C8.46252 8.11136 8.63798 8.35628 8.62109 8.62012L8.60156 8.73438C8.52776 9.00033 8.2753 9.16586 8.00977 9.14844L7.89648 9.12988C7.41206 9.00168 6.88118 8.83296 6.58594 8.33594L6.34863 7.93555H6.34668L6.30371 7.8623L6.07324 7.47363H6.07227C5.80218 7.01706 5.82018 6.49446 5.90625 6.02637C5.99096 5.5658 6.13735 5.04504 6.65137 4.75488L7.96387 4.0166C8.15547 3.90843 8.35028 3.86097 8.54199 3.85156L8.66016 3.85059ZM8.53516 4.99609H8.5332L8.53418 4.99707C8.53635 4.99586 8.56979 4.97859 8.5918 4.93945C8.60191 4.92134 8.60721 4.89613 8.60742 4.86719L8.46191 4.86523L8.53516 4.99609Z" fill="#514848" stroke="#514848" stroke-width="0.3"/>
<path d="M23.459 3.85156C23.6508 3.86097 23.8454 3.90837 24.0371 4.0166L25.3486 4.75488C25.8626 5.04397 26.0091 5.56534 26.0938 6.02539C26.1774 6.48011 26.1948 6.9846 25.9482 7.43164V7.43848L25.9268 7.47363L25.6963 7.8623L25.417 8.33496C25.1217 8.83322 24.5888 9.00269 24.1055 9.13086C23.8024 9.21066 23.485 9.03786 23.4004 8.73438L23.3799 8.62012C23.362 8.35598 23.5377 8.11045 23.8037 8.03906H23.8047C23.9929 7.98885 24.1518 7.92025 24.2656 7.85938C24.3227 7.82885 24.3674 7.80067 24.3975 7.7793C24.4101 7.77033 24.4188 7.76287 24.4248 7.75781L24.7012 7.29395L24.9316 6.90527L24.9375 6.88867C24.9419 6.87566 24.9472 6.85815 24.9521 6.83594C24.9621 6.79142 24.9706 6.73347 24.9766 6.66699C24.9885 6.53315 24.987 6.37332 24.96 6.22656V6.22559C24.934 6.08252 24.8776 5.9492 24.8252 5.84961C24.7992 5.80028 24.7744 5.76031 24.7568 5.7334C24.7529 5.72742 24.7492 5.72231 24.7461 5.71777L23.501 5.0166C23.4959 5.01652 23.4904 5.01667 23.4854 5.0166C23.4516 5.01612 23.4035 5.01583 23.3457 5.01855C23.2284 5.0241 23.0767 5.04131 22.9336 5.09082C22.7863 5.14183 22.6401 5.22112 22.5254 5.29785C22.4683 5.33603 22.4207 5.373 22.3857 5.40332C22.3506 5.43385 22.3375 5.45037 22.3359 5.45215H22.335L22.1045 5.84082L21.9238 6.14648C21.8464 6.27605 21.7206 6.369 21.5742 6.40723C21.426 6.44669 21.2714 6.42617 21.1406 6.35352L21.1396 6.35254C20.8646 6.19783 20.7668 5.8515 20.9277 5.5791L20.9717 5.50488H20.9727L21.1104 5.27344L21.3408 4.88477C21.6145 4.42387 22.0918 4.18478 22.5498 4.02637C22.8324 3.92826 23.1425 3.83644 23.459 3.85156ZM23.3906 4.86719C23.3909 4.89613 23.3971 4.92136 23.4072 4.93945C23.4292 4.97874 23.4627 4.99586 23.4648 4.99707V4.99609L23.5381 4.86523C23.5445 4.86881 23.4855 4.86497 23.3906 4.86719Z" fill="#514848" stroke="#514848" stroke-width="0.3"/>
<path d="M8.63379 5.85254L8.63281 5.85352C8.74502 5.86028 8.85239 5.88117 8.94531 5.91602C9.03405 5.9493 9.11894 5.9982 9.17969 6.06738L9.18066 6.06836C9.18245 6.07016 9.18615 6.07308 9.19043 6.07715C9.19912 6.08539 9.21271 6.09783 9.23047 6.1123C9.26626 6.14147 9.3174 6.17871 9.37988 6.20996C9.44384 6.24194 9.52206 6.26924 9.58691 6.28906C9.61855 6.29873 9.64578 6.30647 9.66504 6.31152C9.67464 6.31404 9.68248 6.31517 9.6875 6.31641C9.68861 6.31668 9.68958 6.31718 9.69043 6.31738H9.69141C9.84322 6.34946 9.99067 6.41488 10.0771 6.52344H10.0762C10.1215 6.57981 10.1519 6.64898 10.1504 6.72656C10.1489 6.80371 10.1166 6.87187 10.0703 6.92676C9.97848 7.03534 9.8269 7.09751 9.68066 7.12695C9.52923 7.15741 9.35584 7.1593 9.19336 7.125V7.12402C9.19259 7.12386 9.19153 7.12426 9.19043 7.12402C9.18723 7.12335 9.18255 7.12237 9.17676 7.12109C9.16508 7.11851 9.14794 7.11542 9.12695 7.11035C9.08502 7.10022 9.0257 7.08496 8.95605 7.06445C8.81751 7.02365 8.63328 6.96067 8.45801 6.87305C8.28108 6.78458 8.15128 6.68995 8.06445 6.61621C8.02121 6.57947 7.98822 6.54764 7.96582 6.52441C7.95463 6.5128 7.94562 6.50309 7.93945 6.49609C7.93645 6.49268 7.93445 6.48947 7.93262 6.4873C7.93169 6.48621 7.93031 6.48512 7.92969 6.48438V6.4834H7.92871V6.48242L7.92969 6.48145C7.8826 6.42516 7.85032 6.35769 7.84961 6.28125C7.8489 6.20377 7.87936 6.13537 7.92285 6.08105C8.00641 5.97682 8.14895 5.90894 8.30762 5.875L8.46875 5.85254C8.52356 5.8487 8.57908 5.84893 8.63379 5.85254Z" fill="#514848" stroke="#514848" stroke-width="0.3"/>
<path d="M23.668 5.85352C23.7437 5.84366 23.8198 5.85476 23.8887 5.88379H23.8896C24.1064 5.97653 24.2068 6.22615 24.1162 6.44336L24.1172 6.44434L24.1162 6.44531C24.1159 6.44599 24.1157 6.44723 24.1152 6.44824C24.1143 6.45033 24.1128 6.45361 24.1113 6.45703C24.1083 6.46382 24.1041 6.47306 24.0986 6.48438C24.0874 6.50754 24.0709 6.53967 24.0488 6.57715C24.005 6.65153 23.9372 6.74928 23.8438 6.84277C23.75 6.93689 23.6518 7.00499 23.5771 7.04883C23.5396 7.07088 23.5076 7.08748 23.4844 7.09863C23.4728 7.10421 23.4629 7.10832 23.4561 7.11133C23.4528 7.11277 23.4503 7.11438 23.4482 7.11523C23.4473 7.11564 23.446 7.11496 23.4453 7.11523L23.4463 7.11621H23.4443V7.11719L23.4434 7.11621C23.2536 7.195 23.0385 7.1288 22.9258 6.96484L22.8838 6.88867C22.8396 6.78405 22.8386 6.66681 22.8809 6.56152L22.9199 6.48633C22.9662 6.41545 23.0325 6.35951 23.1113 6.32617C23.1128 6.32541 23.1151 6.32433 23.1172 6.32324C23.1252 6.31904 23.1369 6.31293 23.1504 6.30469C23.1788 6.28731 23.2114 6.26412 23.2373 6.23828C23.2636 6.21196 23.2872 6.1789 23.3047 6.15039C23.3131 6.13658 23.319 6.12423 23.3232 6.11621C23.3253 6.11223 23.3273 6.10919 23.3281 6.10742L23.3291 6.10645C23.3897 5.96797 23.5183 5.87313 23.668 5.85449V5.85352Z" fill="#514848" stroke="#514848" stroke-width="0.3"/>
<path d="M16.3154 3.85449C19.547 3.94417 21.8647 5.41487 23.4951 7.56543C25.1715 9.77688 26.1622 12.6805 26.915 15.6035C27.6667 18.521 26.5465 21.0244 24.5869 22.7725L24.1836 23.1113C23.2203 23.8778 22.0904 24.4906 20.8818 24.9395L20.3594 25.1221C20.0512 25.2219 19.7255 25.0481 19.6279 24.7393H19.627C19.592 24.6278 19.591 24.5091 19.6221 24.3984L19.6641 24.291C19.7342 24.1512 19.8558 24.0462 20.0029 23.998C21.2936 23.5761 22.492 22.9575 23.4658 22.1816C25.4121 20.6319 26.4681 18.532 25.79 15.9014C25.0512 13.0325 24.0875 10.2799 22.5732 8.2832C21.0651 6.2948 19.0503 5.0293 16 5.0293C12.9497 5.0293 10.935 6.2948 9.42676 8.2832C7.91251 10.2808 6.94889 13.0325 6.20996 15.9014C5.53298 18.5319 6.58794 20.6319 8.53418 22.1816C9.50788 22.9575 10.7063 23.5761 11.9971 23.998C12.143 24.0462 12.2638 24.1514 12.334 24.291H12.335C12.405 24.4296 12.4178 24.5897 12.373 24.7373L12.3721 24.7393C12.2867 25.0095 12.027 25.1759 11.7568 25.1465L11.6406 25.1221C10.2357 24.6629 8.91713 23.9873 7.81641 23.1113C5.61171 21.3558 4.28337 18.7143 5.08496 15.6035C5.8377 12.6817 6.82838 9.77689 8.50488 7.56543C10.1887 5.34574 12.6041 3.84961 16 3.84961L16.3154 3.85449Z" fill="#514848" stroke="#514848" stroke-width="0.3"/>
<path d="M13.8428 14.8516C13.9485 14.8445 14.0529 14.8647 14.1475 14.9062H14.1494C14.2935 14.9714 14.4074 15.0891 14.4619 15.2354C14.5167 15.3827 14.5049 15.545 14.4316 15.6836L14.3711 15.7969C14.0162 16.4704 13.1238 18.2074 12.5625 20.0176L12.4492 20.4033C12.1592 21.4337 12.0045 22.4483 12.1025 23.2412C12.1517 23.6374 12.251 23.9608 12.4121 24.2207C12.5709 24.4768 12.7946 24.6788 13.1084 24.8271L13.1934 24.8584C13.3522 24.9124 13.7118 25.0153 14.0918 24.9941C14.3539 24.9797 14.5978 24.9318 14.8164 24.7754C15.0349 24.619 15.2472 24.3403 15.416 23.8281L15.4541 23.7402C15.5585 23.545 15.7708 23.4229 16 23.4229C16.2292 23.4229 16.4415 23.545 16.5459 23.7402L16.584 23.8281C16.7533 24.3408 16.9661 24.619 17.1846 24.7754C17.4032 24.9319 17.6465 24.9802 17.9082 24.9951C18.3936 25.0231 18.8456 24.8464 18.8887 24.8291C19.204 24.6806 19.4295 24.4786 19.5889 24.2217C19.7501 23.9618 19.8489 23.6383 19.8975 23.2422C19.9944 22.4492 19.8417 21.4346 19.5518 20.4043C18.9723 18.3457 17.8927 16.2919 17.5703 15.6836C17.4969 15.5449 17.4852 15.3828 17.54 15.2354C17.5946 15.0892 17.7084 14.9714 17.8525 14.9062C17.9962 14.8415 18.1604 14.8341 18.3096 14.8809L18.3105 14.8799C18.4623 14.9266 18.5899 15.0295 18.6631 15.168L19.0361 15.8867C19.5184 16.8445 20.267 18.4519 20.7324 20.1074L20.8428 20.5225C21.0855 21.4925 21.2217 22.4764 21.1113 23.373C20.9842 24.4048 20.4805 25.3726 19.4209 25.8652L19.4199 25.8643C19.4166 25.8659 19.4146 25.8691 19.4121 25.8701H19.4102V25.8711L19.4082 25.8721C19.4065 25.8728 19.4034 25.8737 19.4004 25.875C19.3945 25.8776 19.3857 25.8813 19.375 25.8857C19.3533 25.8948 19.322 25.9072 19.2822 25.9219C19.2019 25.9515 19.0862 25.9903 18.9443 26.0273C18.6614 26.1012 18.2688 26.1694 17.834 26.1445C17.2271 26.1105 16.5278 25.8461 16 25.2285C15.4722 25.846 14.7729 26.1105 14.166 26.1445C13.7314 26.1688 13.3385 26.101 13.0557 26.0273C12.9525 26.0005 12.8638 25.9708 12.792 25.9463V25.9658L12.5791 25.8662C11.5198 25.3726 11.0159 24.4067 10.8887 23.375C10.7624 22.3501 10.9583 21.2105 11.2676 20.1084C11.8881 17.9026 13.0133 15.7795 13.3369 15.1689C13.4357 14.9824 13.6306 14.8655 13.8428 14.8516Z" fill="#514848" stroke="#514848" stroke-width="0.3"/>
<path d="M21.001 12.8496C21.305 12.8497 21.598 12.9709 21.8135 13.1875L21.8896 13.2715C22.0571 13.4758 22.1504 13.7334 22.1504 14.001C22.1503 14.2675 22.057 14.5243 21.8896 14.7285L21.8135 14.8125C21.598 15.0291 21.305 15.1503 21.001 15.1504C20.3654 15.1504 19.8498 14.6354 19.8496 14.001C19.8496 13.3653 20.3651 12.8496 21.001 12.8496Z" fill="#514848" stroke="#514848" stroke-width="0.3"/>
<path d="M11.001 12.8496C11.6356 12.8498 12.1504 13.3656 12.1504 14.001C12.1502 14.6352 11.6354 15.1502 11.001 15.1504C10.6955 15.1504 10.4028 15.0295 10.1865 14.8145V14.8135C9.97169 14.5974 9.84972 14.3057 9.84961 14.001C9.84961 13.6953 9.97126 13.4028 10.1865 13.1875C10.4029 12.9711 10.6954 12.8496 11.001 12.8496Z" fill="#514848" stroke="#514848" stroke-width="0.3"/>
</svg>
