<svg width="20" height="20" viewBox="0 0 20 20" fill="none" xmlns="http://www.w3.org/2000/svg">
<path fill-rule="evenodd" clip-rule="evenodd" d="M10 17.5V17.5C5.8575 17.5 2.5 14.1425 2.5 10V10C2.5 5.8575 5.8575 2.5 10 2.5V2.5C14.1425 2.5 17.5 5.8575 17.5 10V10C17.5 14.1425 14.1425 17.5 10 17.5Z" stroke="#FAFAFA" stroke-width="1.25" stroke-linecap="round" stroke-linejoin="round"/>
<path d="M9.99992 11.0418V10.8334C9.99992 10.1526 10.4208 9.78342 10.8424 9.50009C11.2541 9.22259 11.6666 8.86092 11.6666 8.19425C11.6666 7.27342 10.9208 6.52759 9.99992 6.52759C9.07909 6.52759 8.33325 7.27342 8.33325 8.19425" stroke="#FAFAFA" stroke-width="1.25" stroke-linecap="round" stroke-linejoin="round"/>
<path d="M9.99909 13.3331C9.88409 13.3331 9.79075 13.4264 9.79159 13.5414C9.79159 13.6564 9.88492 13.7498 9.99992 13.7498C10.1149 13.7498 10.2083 13.6564 10.2083 13.5414C10.2083 13.4264 10.1149 13.3331 9.99909 13.3331" stroke="#FAFAFA" stroke-width="1.25" stroke-linecap="round" stroke-linejoin="round"/>
</svg>
