<svg width="135" height="60" viewBox="0 0 135 60" fill="none" xmlns="http://www.w3.org/2000/svg">
<g clip-path="url(#clip0_1_2048)">
<path d="M103.524 52.7205V59.9191H107.379L107.71 58.6091H105.056V52.7205H103.524Z" fill="white"/>
<path d="M98.8202 54.1385L99.5062 57.1363H98.1557L98.8202 54.1385ZM97.7478 52.7209L95.9694 59.9196H97.5391L97.8742 58.4064H99.7959L100.142 59.9196H101.722L99.9122 52.7209H97.7478Z" fill="white"/>
<path d="M17.5332 52.7205V54.0305H19.1685V59.9196H20.7005V54.0305H22.2477L22.5776 52.7205H17.5332Z" fill="white"/>
<path d="M123.481 52.7205V59.9191H127.777V58.6091H125.015V56.9341H127.192L127.522 55.6241H125.015V54.0305H127.777V52.7205H123.481Z" fill="white"/>
<path d="M80.605 52.7205V59.9191H84.4602L84.7905 58.6091H82.1403V52.7205H80.605Z" fill="white"/>
<path d="M4.13073 52.7205V55.6232H2.03389V52.7205H0.501953V59.9191H2.03389V56.9746H4.13073V59.9191H5.66267V52.7205H4.13073Z" fill="white"/>
<path d="M7.93372 52.7205H9.46757V59.9191H7.93372V52.7205Z" fill="white"/>
<path d="M38.6127 52.7205H40.147V59.9191H38.6127V52.7205Z" fill="white"/>
<mask id="mask0_1_2048" style="mask-type:luminance" maskUnits="userSpaceOnUse" x="0" y="0" width="135" height="60">
<path d="M0.500488 0H134.5V60H0.500488V0Z" fill="white"/>
</mask>
<g mask="url(#mask0_1_2048)">
<path d="M36.2588 55.1649V54.8689C36.255 53.2725 35.2769 52.7276 33.7283 52.7214H31.2982V59.9205H32.8302V57.3643H33.7603L34.8308 59.9205H36.4738L35.1635 57.0769C35.5206 56.9079 35.8168 56.634 36.0121 56.2922C36.2074 55.9504 36.2924 55.5572 36.2555 55.1659M34.7116 55.1449C34.7116 55.8635 34.3176 56.0933 33.622 56.0966H32.8306V53.9791H33.622C34.3271 53.9824 34.7101 54.2104 34.7116 54.9308V55.1449Z" fill="white"/>
<path d="M57.9644 55.1649V54.8689C57.9606 53.2725 56.9821 52.7276 55.4334 52.7214H53.0052V59.9205H54.5372V57.3643H55.4678L56.5378 59.9205H58.1808L56.8705 57.0769C57.2276 56.908 57.5239 56.6341 57.7192 56.2923C57.9146 55.9505 57.9995 55.5572 57.9625 55.1659M56.4181 55.1449C56.4181 55.8635 56.0241 56.0933 55.3285 56.0966H54.5372V53.9791H55.3314C56.037 53.9824 56.4196 54.2104 56.421 54.9308L56.4181 55.1449Z" fill="white"/>
<path d="M69.579 55.8302L68.3041 52.7205H66.6285L68.7828 57.4019V59.9196H70.3272V57.4219L72.4475 52.721H70.783L69.579 55.8302Z" fill="white"/>
<path d="M74.8282 52.7205L73.0497 59.9191H74.6194L74.9546 58.4059H76.8762L77.2223 59.9191H78.8021L76.9916 52.7205H74.8282ZM75.236 57.1364L75.9005 54.1385L76.5865 57.1364H75.236Z" fill="white"/>
<path d="M110.718 52.7205L108.939 59.9191H110.509L110.844 58.4059H112.766L113.112 59.9191H114.692L112.882 52.7205H110.718ZM111.126 57.1364L111.791 54.1385L112.476 57.1364H111.126Z" fill="white"/>
<path d="M92.1975 52.721H89.8828V59.9196H91.4147V57.6831H92.2473C93.8031 57.6879 94.8583 57.0346 94.8602 55.4433V54.9199C94.8602 53.272 93.7916 52.7248 92.1956 52.7215M93.3163 55.4119C93.3163 56.1866 92.894 56.4321 92.1443 56.4336H91.4147V53.9796H92.1443C92.8959 53.9834 93.3148 54.2137 93.3163 54.9789V55.4119Z" fill="white"/>
<path d="M14.4081 55.6898L13.8307 55.4961C13.273 55.3096 12.8599 55.1273 12.8599 54.6639C12.8517 54.2132 13.1682 53.9387 13.7359 53.9387C13.8547 53.9301 13.9738 53.9485 14.0844 53.9924C14.195 54.0363 14.294 54.1046 14.3742 54.1921C14.4543 54.2797 14.5134 54.3841 14.547 54.4977C14.5805 54.6112 14.5877 54.7308 14.568 54.8476H16.108C16.1669 53.3724 15.2257 52.6387 13.7441 52.6387C12.3821 52.6387 11.3748 53.3101 11.3777 54.6639C11.3806 55.9691 12.3471 56.5002 13.1835 56.7804L13.813 56.986C14.5043 57.2192 14.7925 57.41 14.7925 57.9558C14.7901 58.4711 14.32 58.7019 13.8551 58.7019C13.1107 58.7019 12.8101 58.3051 12.833 57.5694H11.3447C11.2968 59.2082 12.0972 60.0014 13.8671 60.0014C15.3713 60.0014 16.2718 59.2139 16.2746 57.8944C16.2775 56.5749 15.6561 56.1071 14.4076 55.6898" fill="white"/>
<path d="M44.0152 54.3741C44.1269 54.241 44.2692 54.1365 44.43 54.0694C44.5907 54.0023 44.7654 53.9746 44.9392 53.9886C45.676 53.9839 46.0728 54.4036 46.1331 55.1678H47.6727C47.5511 53.5561 46.5803 52.6367 44.944 52.6377C43.1195 52.6377 42.1946 53.7459 42.197 55.5518V57.0745C42.197 58.8741 43.1382 59.9967 44.9411 59.9967C46.5927 59.9967 47.5344 59.1282 47.6699 57.5223H46.1279C46.1341 57.676 46.1072 57.8293 46.0488 57.9718C45.9905 58.1143 45.9021 58.2428 45.7896 58.3484C45.6771 58.4541 45.5431 58.5346 45.3966 58.5845C45.2502 58.6344 45.0947 58.6525 44.9406 58.6376C44.1335 58.6319 43.7409 58.1542 43.7409 57.1768V55.449C43.7141 55.0702 43.8108 54.693 44.0167 54.3731" fill="white"/>
<path d="M117.981 54.3741C118.093 54.241 118.235 54.1365 118.396 54.0694C118.556 54.0023 118.731 53.9746 118.905 53.9886C119.642 53.9839 120.039 54.4036 120.099 55.1678H121.638C121.517 53.5561 120.546 52.6367 118.91 52.6377C117.085 52.6377 116.16 53.7459 116.163 55.5518V57.0745C116.163 58.8741 117.104 59.9967 118.907 59.9967C120.558 59.9967 121.5 59.1282 121.636 57.5223H120.094C120.1 57.676 120.073 57.8293 120.015 57.9718C119.956 58.1143 119.868 58.2428 119.755 58.3484C119.643 58.4541 119.509 58.5346 119.362 58.5845C119.216 58.6344 119.06 58.6525 118.906 58.6376C118.099 58.6319 117.707 58.1542 117.707 57.1768V55.449C117.68 55.0702 117.776 54.6929 117.982 54.3731" fill="white"/>
<path d="M26.6134 52.6387C24.7731 52.6387 23.8147 53.666 23.8147 55.6332V57.0027C23.8147 58.9446 24.7353 59.9972 26.6134 59.9972C28.4665 59.9972 29.412 58.9698 29.412 57.0027V55.6332C29.412 53.6912 28.4914 52.6387 26.6134 52.6387ZM27.8614 57.1407C27.8614 58.0448 27.5588 58.632 26.6134 58.632C25.6932 58.632 25.3653 58.0681 25.3653 57.1407V55.4957C25.3653 54.6058 25.6679 53.9925 26.6134 53.9925C27.5335 53.9925 27.8614 54.5559 27.8614 55.4957V57.1407Z" fill="white"/>
<path d="M62.6804 52.6387C60.8401 52.6387 59.8817 53.666 59.8817 55.6332V57.0027C59.8817 58.9446 60.8023 59.9972 62.6804 59.9972C64.5335 59.9972 65.479 58.9698 65.479 57.0027V55.6332C65.479 53.6912 64.5584 52.6387 62.6804 52.6387ZM63.9284 57.1407C63.9284 58.0448 63.6259 58.632 62.6804 58.632C61.7602 58.632 61.4323 58.0681 61.4323 57.1407V55.4957C61.4323 54.6058 61.7349 53.9925 62.6804 53.9925C63.6005 53.9925 63.9284 54.5559 63.9284 55.4957V57.1407Z" fill="white"/>
<path d="M132.634 55.6898L132.056 55.4961C131.498 55.3096 131.085 55.1273 131.085 54.6639C131.077 54.2132 131.394 53.9387 131.962 53.9387C132.08 53.9302 132.2 53.9486 132.31 53.9926C132.421 54.0365 132.52 54.1048 132.6 54.1923C132.68 54.2798 132.739 54.3843 132.772 54.4978C132.806 54.6113 132.813 54.7309 132.793 54.8476H134.333C134.393 53.3724 133.451 52.6387 131.969 52.6387C130.607 52.6387 129.6 53.3101 129.603 54.6639C129.606 55.9691 130.572 56.5002 131.409 56.7804L132.038 56.986C132.73 57.2192 133.018 57.41 133.018 57.9558C133.015 58.4711 132.545 58.7019 132.08 58.7019C131.336 58.7019 131.035 58.3051 131.058 57.5694H129.571C129.523 59.2082 130.323 60.0014 132.093 60.0014C133.598 60.0014 134.498 59.2139 134.5 57.8944C134.503 56.5749 133.882 56.1071 132.633 55.6898" fill="white"/>
<path d="M64.2354 20.3653L67.5726 17.0482L70.9103 20.3653L67.5726 23.6824L64.2354 20.3653Z" fill="white"/>
<path d="M62.7704 18.7018C63.0665 18.7018 63.3559 18.6145 63.6021 18.451C63.8483 18.2875 64.0402 18.0551 64.1535 17.7832C64.2668 17.5113 64.2964 17.2122 64.2387 16.9235C64.1809 16.6349 64.0383 16.3697 63.829 16.1616C63.6196 15.9536 63.3529 15.8118 63.0625 15.7544C62.7721 15.697 62.4711 15.7265 62.1976 15.8391C61.924 15.9517 61.6902 16.1424 61.5257 16.3871C61.3612 16.6318 61.2734 16.9195 61.2734 17.2138C61.2734 17.6084 61.4312 17.9869 61.7119 18.266C61.9926 18.545 62.3734 18.7018 62.7704 18.7018Z" fill="white"/>
<path d="M58.7209 16.874C59.0169 16.874 59.3064 16.7868 59.5525 16.6232C59.7987 16.4597 59.9906 16.2274 60.1039 15.9555C60.2172 15.6836 60.2469 15.3844 60.1891 15.0958C60.1313 14.8071 59.9888 14.542 59.7794 14.3339C59.57 14.1258 59.3033 13.9841 59.0129 13.9267C58.7225 13.8692 58.4215 13.8987 58.148 14.0113C57.8745 14.124 57.6407 14.3147 57.4762 14.5594C57.3117 14.8041 57.2239 15.0918 57.2239 15.386C57.2238 15.5815 57.2625 15.775 57.3377 15.9555C57.4129 16.1361 57.5232 16.3002 57.6622 16.4383C57.8012 16.5765 57.9663 16.6861 58.1479 16.7609C58.3296 16.8356 58.5243 16.8741 58.7209 16.874Z" fill="white"/>
<path d="M54.4639 15.78C54.76 15.78 55.0494 15.6928 55.2956 15.5293C55.5418 15.3658 55.7336 15.1334 55.8469 14.8615C55.9602 14.5896 55.9899 14.2904 55.9321 14.0018C55.8744 13.7131 55.7318 13.448 55.5224 13.2399C55.3131 13.0318 55.0463 12.8901 54.756 12.8327C54.4656 12.7753 54.1646 12.8047 53.891 12.9173C53.6175 13.03 53.3837 13.2207 53.2192 13.4654C53.0547 13.7101 52.9669 13.9978 52.9669 14.2921C52.9669 14.6867 53.1246 15.0652 53.4054 15.3442C53.6861 15.6233 54.0669 15.78 54.4639 15.78Z" fill="white"/>
<path d="M50.1391 13.7986C49.8432 13.7987 49.5539 13.886 49.3079 14.0495C49.0618 14.213 48.8701 14.4453 48.7569 14.7171C48.6437 14.9889 48.6141 15.288 48.6718 15.5765C48.7296 15.865 48.8721 16.13 49.0814 16.338C49.2906 16.546 49.5573 16.6876 49.8475 16.745C50.1378 16.8024 50.4386 16.773 50.712 16.6605C50.9855 16.548 51.2192 16.3574 51.3837 16.1128C51.5482 15.8683 51.636 15.5808 51.6361 15.2866C51.6361 14.892 51.4784 14.5135 51.1976 14.2345C50.9169 13.9554 50.5361 13.7986 50.1391 13.7986Z" fill="white"/>
<path d="M47.3209 19.8557C47.6168 19.8557 47.9061 19.7684 48.1522 19.605C48.3983 19.4416 48.5901 19.2093 48.7034 18.9375C48.8167 18.6657 48.8463 18.3667 48.7886 18.0782C48.7309 17.7896 48.5885 17.5246 48.3792 17.3165C48.17 17.1085 47.9034 16.9668 47.6131 16.9093C47.3228 16.8519 47.022 16.8813 46.7485 16.9938C46.475 17.1063 46.2413 17.2969 46.0768 17.5414C45.9123 17.786 45.8244 18.0735 45.8243 18.3677C45.8243 18.5631 45.8629 18.7566 45.9381 18.9371C46.0133 19.1176 46.1235 19.2816 46.2625 19.4198C46.4015 19.558 46.5665 19.6676 46.748 19.7424C46.9296 19.8172 47.1243 19.8557 47.3209 19.8557Z" fill="white"/>
<path d="M46.5563 23.9646C46.8523 23.9645 47.1415 23.8772 47.3876 23.7137C47.6336 23.5502 47.8253 23.3179 47.9385 23.0461C48.0517 22.7744 48.0813 22.4753 48.0236 22.1868C47.9658 21.8983 47.8233 21.6333 47.614 21.4253C47.4048 21.2173 47.1382 21.0756 46.8479 21.0182C46.5577 20.9608 46.2568 20.9902 45.9834 21.1028C45.7099 21.2153 45.4762 21.4059 45.3117 21.6504C45.1473 21.895 45.0594 22.1825 45.0593 22.4766C45.0593 22.6721 45.0979 22.8656 45.1731 23.0461C45.2484 23.2267 45.3586 23.3908 45.4976 23.5289C45.6367 23.6671 45.8017 23.7767 45.9834 23.8515C46.165 23.9262 46.3597 23.9647 46.5563 23.9646Z" fill="white"/>
<path d="M46.1748 26.3729C46.1748 26.6671 46.2626 26.9547 46.427 27.1993C46.5915 27.4439 46.8252 27.6346 47.0986 27.7471C47.3721 27.8597 47.673 27.8892 47.9633 27.8318C48.2536 27.7744 48.5202 27.6327 48.7295 27.4247C48.9388 27.2167 49.0813 26.9516 49.1391 26.6631C49.1968 26.3745 49.1672 26.0754 49.0539 25.8036C48.9406 25.5318 48.7488 25.2995 48.5027 25.1361C48.2566 24.9726 47.9673 24.8854 47.6713 24.8854C47.2744 24.8854 46.8938 25.0421 46.6131 25.3211C46.3325 25.6 46.1748 25.9784 46.1748 26.3729Z" fill="white"/>
<path d="M49.8471 28.1459C49.5511 28.146 49.2619 28.2333 49.0158 28.3968C48.7698 28.5603 48.578 28.7926 48.4649 29.0645C48.3517 29.3363 48.3221 29.6353 48.3799 29.9239C48.4377 30.2124 48.5803 30.4774 48.7896 30.6854C48.9989 30.8933 49.2655 31.035 49.5558 31.0923C49.8461 31.1497 50.147 31.1202 50.4204 31.0076C50.6938 30.895 50.9275 30.7043 51.0919 30.4597C51.2563 30.2151 51.3441 29.9276 51.3441 29.6334C51.344 29.2388 51.1862 28.8605 50.9055 28.5815C50.6247 28.3026 50.2441 28.1459 49.8471 28.1459Z" fill="white"/>
<path d="M68.0953 8.37732V11.5379H71.2755C71.1617 10.7396 70.79 9.99978 70.2164 9.42973C69.6429 8.85969 68.8984 8.49034 68.0953 8.37732Z" fill="white"/>
<path d="M71.2779 12.5767H63.8715C63.9969 13.4639 64.4406 14.2761 65.1209 14.8639C65.8011 15.4517 66.6721 15.7754 67.5735 15.7754C68.4748 15.7754 69.3458 15.4517 70.0261 14.8639C70.7064 14.2761 71.1501 13.4639 71.2755 12.5767" fill="white"/>
<path d="M67.0497 8.37732C66.2468 8.49047 65.5027 8.8599 64.9293 9.42995C64.356 10 63.9846 10.7398 63.871 11.5379H67.0497V8.37732Z" fill="white"/>
<path d="M65.6232 7.02446H69.522L67.9378 3.87578L71.1056 5.45036V1.57459L67.9378 3.14917L69.522 0.000488281H65.6232L67.2068 3.14917L64.0391 1.57459V5.45036L67.2068 3.87578L65.6232 7.02446Z" fill="white"/>
<path d="M53.9268 21.0848C53.9267 21.3221 53.9924 21.5549 54.1167 21.7575C54.2411 21.9602 54.4192 22.1249 54.6315 22.2335C54.0292 22.8916 53.0038 23.3955 53.0038 24.4033V47.6475H57.4407V24.4033C57.4407 23.3964 56.4181 22.8925 55.8158 22.2349C56.0214 22.1304 56.1952 21.9734 56.3194 21.7799C56.4436 21.5865 56.5137 21.3637 56.5225 21.1344C56.5313 20.9051 56.4785 20.6776 56.3694 20.4753C56.2604 20.2731 56.0992 20.1033 55.9023 19.9836C55.7054 19.8638 55.4799 19.7983 55.2491 19.7939C55.0183 19.7895 54.7905 19.8463 54.5891 19.9585C54.3877 20.0706 54.22 20.2341 54.1032 20.4321C53.9865 20.63 53.9249 20.8553 53.9249 21.0848" fill="white"/>
<path d="M72.3737 18.7018C72.6698 18.7019 72.9593 18.6147 73.2055 18.4512C73.4518 18.2878 73.6437 18.0554 73.7571 17.7836C73.8705 17.5117 73.9002 17.2125 73.8425 16.9238C73.7848 16.6351 73.6422 16.37 73.4329 16.1618C73.2235 15.9537 72.9568 15.8119 72.6664 15.7545C72.376 15.697 72.075 15.7264 71.8014 15.8391C71.5279 15.9517 71.294 16.1424 71.1295 16.3871C70.965 16.6318 70.8772 16.9195 70.8772 17.2138C70.8772 17.6084 71.0349 17.9868 71.3155 18.2658C71.5961 18.5448 71.9768 18.7016 72.3737 18.7018Z" fill="white"/>
<path d="M76.4234 16.874C76.7195 16.874 77.0089 16.7868 77.2551 16.6232C77.5012 16.4597 77.6931 16.2274 77.8064 15.9555C77.9197 15.6836 77.9494 15.3844 77.8916 15.0958C77.8338 14.8071 77.6913 14.542 77.4819 14.3339C77.2726 14.1258 77.0058 13.9841 76.7154 13.9267C76.425 13.8692 76.1241 13.8987 75.8505 14.0113C75.577 14.124 75.3432 14.3147 75.1787 14.5594C75.0142 14.8041 74.9264 15.0918 74.9264 15.386C74.9263 15.5815 74.965 15.775 75.0402 15.9555C75.1154 16.1361 75.2257 16.3002 75.3647 16.4383C75.5037 16.5765 75.6688 16.6861 75.8504 16.7609C76.0321 16.8356 76.2268 16.8741 76.4234 16.874Z" fill="white"/>
<path d="M80.6807 15.78C80.9768 15.78 81.2662 15.6928 81.5124 15.5293C81.7586 15.3658 81.9504 15.1334 82.0637 14.8615C82.1771 14.5896 82.2067 14.2904 82.1489 14.0018C82.0912 13.7131 81.9486 13.448 81.7392 13.2399C81.5299 13.0318 81.2631 12.8901 80.9728 12.8327C80.6824 12.7753 80.3814 12.8047 80.1078 12.9173C79.8343 13.03 79.6005 13.2207 79.436 13.4654C79.2715 13.7101 79.1837 13.9978 79.1837 14.2921C79.1837 14.6867 79.3414 15.0652 79.6222 15.3442C79.9029 15.6233 80.2837 15.78 80.6807 15.78Z" fill="white"/>
<path d="M85.0051 16.7741C85.301 16.7741 85.5903 16.6868 85.8364 16.5234C86.0825 16.36 86.2743 16.1277 86.3876 15.8559C86.5009 15.5841 86.5306 15.2851 86.4729 14.9965C86.4151 14.708 86.2727 14.443 86.0634 14.2349C85.8542 14.0269 85.5876 13.8852 85.2973 13.8277C85.007 13.7703 84.7062 13.7997 84.4327 13.9122C84.1592 14.0247 83.9255 14.2153 83.761 14.4598C83.5965 14.7044 83.5086 14.9919 83.5085 15.2861C83.5085 15.6806 83.6662 16.059 83.9468 16.3381C84.2275 16.6171 84.6081 16.7739 85.0051 16.7741Z" fill="white"/>
<path d="M87.8252 19.8557C88.1212 19.8557 88.4105 19.7684 88.6566 19.605C88.9027 19.4416 89.0945 19.2093 89.2078 18.9375C89.3211 18.6657 89.3507 18.3667 89.293 18.0782C89.2353 17.7896 89.0928 17.5246 88.8836 17.3165C88.6744 17.1085 88.4078 16.9668 88.1175 16.9093C87.8272 16.8519 87.5263 16.8813 87.2529 16.9938C86.9794 17.1063 86.7457 17.2969 86.5812 17.5414C86.4167 17.786 86.3288 18.0735 86.3287 18.3677C86.3287 18.7623 86.4864 19.1407 86.767 19.4197C87.0477 19.6987 87.4283 19.8555 87.8252 19.8557Z" fill="white"/>
<path d="M88.5888 20.9891C88.2928 20.9891 88.0035 21.0764 87.7574 21.2398C87.5113 21.4033 87.3195 21.6356 87.2062 21.9074C87.0929 22.1792 87.0633 22.4783 87.121 22.7668C87.1788 23.0554 87.3213 23.3204 87.5306 23.5285C87.7399 23.7365 88.0065 23.8782 88.2968 23.9355C88.5871 23.9929 88.888 23.9635 89.1615 23.8509C89.4349 23.7383 89.6687 23.5477 89.8331 23.303C89.9975 23.0584 90.0853 22.7708 90.0853 22.4766C90.0852 22.0822 89.9275 21.7039 89.6469 21.425C89.3662 21.146 88.9857 20.9893 88.5888 20.9891Z" fill="white"/>
<path d="M87.4734 24.8854C87.1773 24.8853 86.8878 24.9725 86.6416 25.1359C86.3953 25.2994 86.2034 25.5318 86.09 25.8037C85.9766 26.0756 85.9469 26.3748 86.0047 26.6635C86.0624 26.9522 86.205 27.2174 86.4144 27.4255C86.6238 27.6336 86.8906 27.7754 87.181 27.8328C87.4714 27.8902 87.7725 27.8606 88.046 27.748C88.3196 27.6353 88.5534 27.4445 88.7178 27.1997C88.8823 26.955 88.97 26.6672 88.9699 26.3729C88.9698 25.9784 88.8121 25.6001 88.5315 25.3212C88.2509 25.0423 87.8703 24.8855 87.4734 24.8854Z" fill="white"/>
<path d="M85.2975 28.1459C85.0016 28.1459 84.7122 28.2331 84.4661 28.3966C84.22 28.56 84.0282 28.7923 83.9149 29.0641C83.8017 29.3359 83.772 29.635 83.8298 29.9236C83.8875 30.2121 84.0301 30.4772 84.2393 30.6852C84.4486 30.8932 84.7153 31.0349 85.0056 31.0923C85.2959 31.1497 85.5968 31.1202 85.8702 31.0076C86.1437 30.8951 86.3774 30.7044 86.5418 30.4598C86.7063 30.2152 86.7941 29.9276 86.7941 29.6334C86.7939 29.2389 86.6362 28.8606 86.3556 28.5817C86.075 28.3028 85.6944 28.146 85.2975 28.1459Z" fill="white"/>
<path d="M67.5726 30.704C64.839 32.2039 62.4186 33.8294 62.4181 36.0054V42.5721H64.895V37.3221C64.895 35.8242 66.1943 34.8082 67.5726 34.1011C68.9508 34.8082 70.2501 35.8242 70.2501 37.3221V42.574H72.7271V36.0074C72.7271 33.8313 70.3061 32.2058 67.5731 30.7059" fill="white"/>
<path d="M61.1691 36.0059C61.1691 33.2179 63.9668 31.2689 67.5726 29.3146C71.1789 31.2689 73.9761 33.2165 73.9761 36.0059V45.1112H76.453V22.9116H74.7641V24.4029H72.5681V22.9116H70.8782V26.8716H64.2674V22.9116H62.5775V24.4029H60.3811V22.9116H58.6921V45.1103H61.1691V36.0059Z" fill="white"/>
<path d="M77.702 24.4034V47.6475H82.1389V24.4034C82.1389 23.3955 81.1149 22.8916 80.5112 22.2335C80.7706 22.1012 80.9776 21.8861 81.0991 21.6227C81.2206 21.3592 81.2494 21.0629 81.181 20.7812C81.1125 20.4995 80.9508 20.2489 80.7217 20.0697C80.4926 19.8905 80.2096 19.793 79.918 19.793C79.6265 19.793 79.3435 19.8905 79.1144 20.0697C78.8853 20.2489 78.7236 20.4995 78.6551 20.7812C78.5866 21.0629 78.6155 21.3592 78.737 21.6227C78.8584 21.8861 79.0655 22.1012 79.3249 22.2335C78.7227 22.8911 77.7006 23.395 77.7006 24.4019" fill="white"/>
<path d="M105.057 52.7205H103.525V59.9191H107.38L107.71 58.6091H105.057V52.7205Z" fill="white"/>
<path d="M97.7474 52.7205L95.9689 59.9191H97.5386L97.8737 58.4059H99.7954L100.141 59.9191H101.721L99.9107 52.7205H97.7474ZM98.1552 57.1364L98.8197 54.1385L99.5057 57.1364H98.1552Z" fill="white"/>
<path d="M17.5332 54.0305H19.1685V59.9196H20.7005V54.0305H22.2477L22.5776 52.7205H17.5332V54.0305Z" fill="white"/>
<path d="M123.482 59.9196H127.778V58.6096H125.015V56.9341H127.192L127.522 55.6241H125.015V54.0305H127.778V52.7205H123.482V59.9196Z" fill="white"/>
<path d="M82.1403 52.7205H80.6084V59.9191H84.4636L84.7939 58.6091H82.1403V52.7205Z" fill="white"/>
<path d="M4.13122 55.6241H2.03438V52.7215H0.502441V59.9201H2.03438V56.9751H4.13122V59.9201H5.66316V52.7205H4.13122V55.6241Z" fill="white"/>
<path d="M7.93372 52.721H9.46757V59.9196H7.93372V52.721Z" fill="white"/>
<path d="M38.6127 52.721H40.1465V59.9196H38.6127V52.721Z" fill="white"/>
<path d="M36.2588 55.1649V54.8689C36.255 53.2725 35.2769 52.7276 33.7283 52.7214H31.2982V59.9205H32.8302V57.3643H33.7603L34.8308 59.9205H36.4738L35.1635 57.0769C35.5206 56.9079 35.8168 56.634 36.0121 56.2922C36.2074 55.9504 36.2924 55.5572 36.2555 55.1659M34.7116 55.1449C34.7116 55.8635 34.3176 56.0933 33.622 56.0966H32.8306V53.9791H33.622C34.3271 53.9824 34.7101 54.2104 34.7116 54.9308V55.1449Z" fill="white"/>
<path d="M57.9644 55.1649V54.8689C57.9606 53.2725 56.9821 52.7276 55.4334 52.7214H53.0052V59.9205H54.5372V57.3643H55.4678L56.5378 59.9205H58.1808L56.8705 57.0769C57.2276 56.908 57.5239 56.6341 57.7192 56.2923C57.9146 55.9505 57.9995 55.5572 57.9625 55.1659M56.4181 55.1449C56.4181 55.8635 56.0241 56.0933 55.3285 56.0966H54.5372V53.9791H55.3314C56.037 53.9824 56.4196 54.2104 56.421 54.9308L56.4181 55.1449Z" fill="white"/>
<path d="M69.579 55.8302L68.3041 52.7205H66.6285L68.7828 57.4019V59.9196H70.3272V57.4219L72.4475 52.721H70.783L69.579 55.8302Z" fill="white"/>
<path d="M74.8282 52.7205L73.0497 59.9191H74.6194L74.9546 58.4059H76.8762L77.2223 59.9191H78.8021L76.9916 52.7205H74.8282ZM75.236 57.1364L75.9005 54.1385L76.5865 57.1364H75.236Z" fill="white"/>
<path d="M110.718 52.7205L108.939 59.9191H110.509L110.844 58.4059H112.766L113.112 59.9191H114.692L112.882 52.7205H110.718ZM111.126 57.1364L111.791 54.1385L112.476 57.1364H111.126Z" fill="white"/>
<path d="M92.1975 52.721H89.8828V59.9196H91.4147V57.6831H92.2473C93.8031 57.6879 94.8583 57.0346 94.8602 55.4433V54.9199C94.8602 53.272 93.7916 52.7248 92.1956 52.7215M93.3163 55.4119C93.3163 56.1866 92.894 56.4321 92.1443 56.4336H91.4147V53.9796H92.1443C92.8959 53.9834 93.3148 54.2137 93.3163 54.9789V55.4119Z" fill="white"/>
<path d="M14.4081 55.6898L13.8307 55.4961C13.273 55.3096 12.8599 55.1273 12.8599 54.6639C12.8517 54.2132 13.1682 53.9387 13.7359 53.9387C13.8547 53.9301 13.9738 53.9485 14.0844 53.9924C14.195 54.0363 14.294 54.1046 14.3742 54.1921C14.4543 54.2797 14.5134 54.3841 14.547 54.4977C14.5805 54.6112 14.5877 54.7308 14.568 54.8476H16.108C16.1669 53.3724 15.2257 52.6387 13.7441 52.6387C12.3821 52.6387 11.3748 53.3101 11.3777 54.6639C11.3806 55.9691 12.3471 56.5002 13.1835 56.7804L13.813 56.986C14.5043 57.2192 14.7925 57.41 14.7925 57.9558C14.7901 58.4711 14.32 58.7019 13.8551 58.7019C13.1107 58.7019 12.8101 58.3051 12.833 57.5694H11.3447C11.2968 59.2082 12.0972 60.0014 13.8671 60.0014C15.3713 60.0014 16.2718 59.2139 16.2746 57.8944C16.2775 56.5749 15.6561 56.1071 14.4076 55.6898" fill="white"/>
<path d="M44.0152 54.3741C44.1269 54.241 44.2692 54.1365 44.43 54.0694C44.5907 54.0023 44.7654 53.9746 44.9392 53.9886C45.676 53.9839 46.0728 54.4036 46.1331 55.1678H47.6727C47.5511 53.5561 46.5803 52.6367 44.944 52.6377C43.1195 52.6377 42.1946 53.7459 42.197 55.5518V57.0745C42.197 58.8741 43.1382 59.9967 44.9411 59.9967C46.5927 59.9967 47.5344 59.1282 47.6699 57.5223H46.1279C46.1341 57.676 46.1072 57.8293 46.0488 57.9718C45.9905 58.1143 45.9021 58.2428 45.7896 58.3484C45.6771 58.4541 45.5431 58.5346 45.3966 58.5845C45.2502 58.6344 45.0947 58.6525 44.9406 58.6376C44.1335 58.6319 43.7409 58.1542 43.7409 57.1768V55.449C43.7141 55.0702 43.8108 54.693 44.0167 54.3731" fill="white"/>
<path d="M117.981 54.3741C118.093 54.241 118.235 54.1365 118.396 54.0694C118.556 54.0023 118.731 53.9746 118.905 53.9886C119.642 53.9839 120.039 54.4036 120.099 55.1678H121.638C121.517 53.5561 120.546 52.6367 118.91 52.6377C117.085 52.6377 116.16 53.7459 116.163 55.5518V57.0745C116.163 58.8741 117.104 59.9967 118.907 59.9967C120.558 59.9967 121.5 59.1282 121.636 57.5223H120.094C120.1 57.676 120.073 57.8293 120.015 57.9718C119.956 58.1143 119.868 58.2428 119.755 58.3484C119.643 58.4541 119.509 58.5346 119.362 58.5845C119.216 58.6344 119.06 58.6525 118.906 58.6376C118.099 58.6319 117.707 58.1542 117.707 57.1768V55.449C117.68 55.0702 117.776 54.6929 117.982 54.3731" fill="white"/>
<path d="M26.6134 52.6387C24.7731 52.6387 23.8147 53.666 23.8147 55.6332V57.0027C23.8147 58.9446 24.7353 59.9972 26.6134 59.9972C28.4665 59.9972 29.412 58.9698 29.412 57.0027V55.6332C29.412 53.6912 28.4914 52.6387 26.6134 52.6387ZM27.8614 57.1407C27.8614 58.0448 27.5588 58.632 26.6134 58.632C25.6932 58.632 25.3653 58.0681 25.3653 57.1407V55.4957C25.3653 54.6058 25.6679 53.9925 26.6134 53.9925C27.5335 53.9925 27.8614 54.5559 27.8614 55.4957V57.1407Z" fill="white"/>
<path d="M62.6804 52.6387C60.8401 52.6387 59.8817 53.666 59.8817 55.6332V57.0027C59.8817 58.9446 60.8023 59.9972 62.6804 59.9972C64.5335 59.9972 65.479 58.9698 65.479 57.0027V55.6332C65.479 53.6912 64.5584 52.6387 62.6804 52.6387ZM63.9284 57.1407C63.9284 58.0448 63.6259 58.632 62.6804 58.632C61.7602 58.632 61.4323 58.0681 61.4323 57.1407V55.4957C61.4323 54.6058 61.7349 53.9925 62.6804 53.9925C63.6005 53.9925 63.9284 54.5559 63.9284 55.4957V57.1407Z" fill="white"/>
<path d="M132.634 55.6898L132.056 55.4961C131.498 55.3096 131.085 55.1273 131.085 54.6639C131.077 54.2132 131.394 53.9387 131.962 53.9387C132.08 53.9302 132.2 53.9486 132.31 53.9926C132.421 54.0365 132.52 54.1048 132.6 54.1923C132.68 54.2798 132.739 54.3843 132.772 54.4978C132.806 54.6113 132.813 54.7309 132.793 54.8476H134.333C134.393 53.3724 133.451 52.6387 131.969 52.6387C130.607 52.6387 129.6 53.3101 129.603 54.6639C129.606 55.9691 130.572 56.5002 131.409 56.7804L132.038 56.986C132.73 57.2192 133.018 57.41 133.018 57.9558C133.015 58.4711 132.545 58.7019 132.08 58.7019C131.336 58.7019 131.035 58.3051 131.058 57.5694H129.571C129.523 59.2082 130.323 60.0014 132.093 60.0014C133.598 60.0014 134.498 59.2139 134.5 57.8944C134.503 56.5749 133.882 56.1071 132.633 55.6898" fill="white"/>
<path d="M64.2354 20.3653L67.5726 17.0482L70.9103 20.3653L67.5726 23.6824L64.2354 20.3653Z" fill="white"/>
<path d="M62.7704 18.7018C63.0665 18.7018 63.3559 18.6145 63.6021 18.451C63.8483 18.2875 64.0402 18.0551 64.1535 17.7832C64.2668 17.5113 64.2964 17.2122 64.2387 16.9235C64.1809 16.6349 64.0383 16.3697 63.829 16.1616C63.6196 15.9536 63.3529 15.8118 63.0625 15.7544C62.7721 15.697 62.4711 15.7265 62.1976 15.8391C61.924 15.9517 61.6902 16.1424 61.5257 16.3871C61.3612 16.6318 61.2734 16.9195 61.2734 17.2138C61.2734 17.6084 61.4312 17.9869 61.7119 18.266C61.9926 18.545 62.3734 18.7018 62.7704 18.7018Z" fill="white"/>
<path d="M58.7209 16.874C59.0169 16.874 59.3064 16.7868 59.5525 16.6232C59.7987 16.4597 59.9906 16.2274 60.1039 15.9555C60.2172 15.6836 60.2469 15.3844 60.1891 15.0958C60.1313 14.8071 59.9888 14.542 59.7794 14.3339C59.57 14.1258 59.3033 13.9841 59.0129 13.9267C58.7225 13.8692 58.4215 13.8987 58.148 14.0113C57.8745 14.124 57.6407 14.3147 57.4762 14.5594C57.3117 14.8041 57.2239 15.0918 57.2239 15.386C57.2238 15.5815 57.2625 15.775 57.3377 15.9555C57.4129 16.1361 57.5232 16.3002 57.6622 16.4383C57.8012 16.5765 57.9663 16.6861 58.1479 16.7609C58.3296 16.8356 58.5243 16.8741 58.7209 16.874Z" fill="white"/>
<path d="M54.4639 15.78C54.76 15.78 55.0494 15.6928 55.2956 15.5293C55.5418 15.3658 55.7336 15.1334 55.8469 14.8615C55.9602 14.5896 55.9899 14.2904 55.9321 14.0018C55.8744 13.7131 55.7318 13.448 55.5224 13.2399C55.3131 13.0318 55.0463 12.8901 54.756 12.8327C54.4656 12.7753 54.1646 12.8047 53.891 12.9173C53.6175 13.03 53.3837 13.2207 53.2192 13.4654C53.0547 13.7101 52.9669 13.9978 52.9669 14.2921C52.9669 14.6867 53.1246 15.0652 53.4054 15.3442C53.6861 15.6233 54.0669 15.78 54.4639 15.78Z" fill="white"/>
<path d="M50.1391 13.7986C49.8432 13.7987 49.5539 13.886 49.3079 14.0495C49.0618 14.213 48.8701 14.4453 48.7569 14.7171C48.6437 14.9889 48.6141 15.288 48.6718 15.5765C48.7296 15.865 48.8721 16.13 49.0814 16.338C49.2906 16.546 49.5573 16.6876 49.8475 16.745C50.1378 16.8024 50.4386 16.773 50.712 16.6605C50.9855 16.548 51.2192 16.3574 51.3837 16.1128C51.5482 15.8683 51.636 15.5808 51.6361 15.2866C51.6361 14.892 51.4784 14.5135 51.1976 14.2345C50.9169 13.9554 50.5361 13.7986 50.1391 13.7986Z" fill="white"/>
<path d="M47.3209 19.8557C47.6168 19.8557 47.9061 19.7684 48.1522 19.605C48.3983 19.4416 48.5901 19.2093 48.7034 18.9375C48.8167 18.6657 48.8463 18.3667 48.7886 18.0782C48.7309 17.7896 48.5885 17.5246 48.3792 17.3165C48.17 17.1085 47.9034 16.9668 47.6131 16.9093C47.3228 16.8519 47.022 16.8813 46.7485 16.9938C46.475 17.1063 46.2413 17.2969 46.0768 17.5414C45.9123 17.786 45.8244 18.0735 45.8243 18.3677C45.8243 18.5631 45.8629 18.7566 45.9381 18.9371C46.0133 19.1176 46.1235 19.2816 46.2625 19.4198C46.4015 19.558 46.5665 19.6676 46.748 19.7424C46.9296 19.8172 47.1243 19.8557 47.3209 19.8557Z" fill="white"/>
<path d="M46.5563 23.9646C46.8523 23.9645 47.1415 23.8772 47.3876 23.7137C47.6336 23.5502 47.8253 23.3179 47.9385 23.0461C48.0517 22.7744 48.0813 22.4753 48.0236 22.1868C47.9658 21.8983 47.8233 21.6333 47.614 21.4253C47.4048 21.2173 47.1382 21.0756 46.8479 21.0182C46.5577 20.9608 46.2568 20.9902 45.9834 21.1028C45.7099 21.2153 45.4762 21.4059 45.3117 21.6504C45.1473 21.895 45.0594 22.1825 45.0593 22.4766C45.0593 22.6721 45.0979 22.8656 45.1731 23.0461C45.2484 23.2267 45.3586 23.3908 45.4976 23.5289C45.6367 23.6671 45.8017 23.7767 45.9834 23.8515C46.165 23.9262 46.3597 23.9647 46.5563 23.9646Z" fill="white"/>
<path d="M46.1748 26.3729C46.1748 26.6671 46.2626 26.9547 46.427 27.1993C46.5915 27.4439 46.8252 27.6346 47.0986 27.7471C47.3721 27.8597 47.673 27.8892 47.9633 27.8318C48.2536 27.7744 48.5202 27.6327 48.7295 27.4247C48.9388 27.2167 49.0813 26.9516 49.1391 26.6631C49.1968 26.3745 49.1672 26.0754 49.0539 25.8036C48.9406 25.5318 48.7488 25.2995 48.5027 25.1361C48.2566 24.9726 47.9673 24.8854 47.6713 24.8854C47.2744 24.8854 46.8938 25.0421 46.6131 25.3211C46.3325 25.6 46.1748 25.9784 46.1748 26.3729Z" fill="white"/>
<path d="M49.8471 28.1459C49.5511 28.146 49.2619 28.2333 49.0158 28.3968C48.7698 28.5603 48.578 28.7926 48.4649 29.0645C48.3517 29.3363 48.3221 29.6353 48.3799 29.9239C48.4377 30.2124 48.5803 30.4774 48.7896 30.6854C48.9989 30.8933 49.2655 31.035 49.5558 31.0923C49.8461 31.1497 50.147 31.1202 50.4204 31.0076C50.6938 30.895 50.9275 30.7043 51.0919 30.4597C51.2563 30.2151 51.3441 29.9276 51.3441 29.6334C51.344 29.2388 51.1862 28.8605 50.9055 28.5815C50.6247 28.3026 50.2441 28.1459 49.8471 28.1459Z" fill="white"/>
<path d="M68.0953 8.37732V11.5379H71.2755C71.1617 10.7396 70.79 9.99978 70.2164 9.42973C69.6429 8.85969 68.8984 8.49034 68.0953 8.37732Z" fill="white"/>
<path d="M71.2779 12.5767H63.8715C63.9969 13.4639 64.4406 14.2761 65.1209 14.8639C65.8011 15.4517 66.6721 15.7754 67.5735 15.7754C68.4748 15.7754 69.3458 15.4517 70.0261 14.8639C70.7064 14.2761 71.1501 13.4639 71.2755 12.5767" fill="white"/>
<path d="M67.0497 8.37732C66.2468 8.49047 65.5027 8.8599 64.9293 9.42995C64.356 10 63.9846 10.7398 63.871 11.5379H67.0497V8.37732Z" fill="white"/>
<path d="M65.6232 7.02446H69.522L67.9378 3.87578L71.1056 5.45036V1.57459L67.9378 3.14917L69.522 0.000488281H65.6232L67.2068 3.14917L64.0391 1.57459V5.45036L67.2068 3.87578L65.6232 7.02446Z" fill="white"/>
<path d="M53.9268 21.0848C53.9267 21.3221 53.9924 21.5549 54.1167 21.7575C54.2411 21.9602 54.4192 22.1249 54.6315 22.2335C54.0292 22.8916 53.0038 23.3955 53.0038 24.4033V47.6475H57.4407V24.4033C57.4407 23.3964 56.4181 22.8925 55.8158 22.2349C56.0214 22.1304 56.1952 21.9734 56.3194 21.7799C56.4436 21.5865 56.5137 21.3637 56.5225 21.1344C56.5313 20.9051 56.4785 20.6776 56.3694 20.4753C56.2604 20.2731 56.0992 20.1033 55.9023 19.9836C55.7054 19.8638 55.4799 19.7983 55.2491 19.7939C55.0183 19.7895 54.7905 19.8463 54.5891 19.9585C54.3877 20.0706 54.22 20.2341 54.1032 20.4321C53.9865 20.63 53.9249 20.8553 53.9249 21.0848" fill="white"/>
<path d="M72.3737 18.7018C72.6698 18.7019 72.9593 18.6147 73.2055 18.4512C73.4518 18.2878 73.6437 18.0554 73.7571 17.7836C73.8705 17.5117 73.9002 17.2125 73.8425 16.9238C73.7848 16.6351 73.6422 16.37 73.4329 16.1618C73.2235 15.9537 72.9568 15.8119 72.6664 15.7545C72.376 15.697 72.075 15.7264 71.8014 15.8391C71.5279 15.9517 71.294 16.1424 71.1295 16.3871C70.965 16.6318 70.8772 16.9195 70.8772 17.2138C70.8772 17.6084 71.0349 17.9868 71.3155 18.2658C71.5961 18.5448 71.9768 18.7016 72.3737 18.7018Z" fill="white"/>
<path d="M76.4234 16.874C76.7195 16.874 77.0089 16.7868 77.2551 16.6232C77.5012 16.4597 77.6931 16.2274 77.8064 15.9555C77.9197 15.6836 77.9494 15.3844 77.8916 15.0958C77.8338 14.8071 77.6913 14.542 77.4819 14.3339C77.2726 14.1258 77.0058 13.9841 76.7154 13.9267C76.425 13.8692 76.1241 13.8987 75.8505 14.0113C75.577 14.124 75.3432 14.3147 75.1787 14.5594C75.0142 14.8041 74.9264 15.0918 74.9264 15.386C74.9263 15.5815 74.965 15.775 75.0402 15.9555C75.1154 16.1361 75.2257 16.3002 75.3647 16.4383C75.5037 16.5765 75.6688 16.6861 75.8504 16.7609C76.0321 16.8356 76.2268 16.8741 76.4234 16.874Z" fill="white"/>
<path d="M80.6807 15.78C80.9768 15.78 81.2662 15.6928 81.5124 15.5293C81.7586 15.3658 81.9504 15.1334 82.0637 14.8615C82.1771 14.5896 82.2067 14.2904 82.1489 14.0018C82.0912 13.7131 81.9486 13.448 81.7392 13.2399C81.5299 13.0318 81.2631 12.8901 80.9728 12.8327C80.6824 12.7753 80.3814 12.8047 80.1078 12.9173C79.8343 13.03 79.6005 13.2207 79.436 13.4654C79.2715 13.7101 79.1837 13.9978 79.1837 14.2921C79.1837 14.6867 79.3414 15.0652 79.6222 15.3442C79.9029 15.6233 80.2837 15.78 80.6807 15.78Z" fill="white"/>
<path d="M85.0051 16.7741C85.301 16.7741 85.5903 16.6868 85.8364 16.5234C86.0825 16.36 86.2743 16.1277 86.3876 15.8559C86.5009 15.5841 86.5306 15.2851 86.4729 14.9965C86.4151 14.708 86.2727 14.443 86.0634 14.2349C85.8542 14.0269 85.5876 13.8852 85.2973 13.8277C85.007 13.7703 84.7062 13.7997 84.4327 13.9122C84.1592 14.0247 83.9255 14.2153 83.761 14.4598C83.5965 14.7044 83.5086 14.9919 83.5085 15.2861C83.5085 15.6806 83.6662 16.059 83.9468 16.3381C84.2275 16.6171 84.6081 16.7739 85.0051 16.7741Z" fill="white"/>
<path d="M87.8252 19.8557C88.1212 19.8557 88.4105 19.7684 88.6566 19.605C88.9027 19.4416 89.0945 19.2093 89.2078 18.9375C89.3211 18.6657 89.3507 18.3667 89.293 18.0782C89.2353 17.7896 89.0928 17.5246 88.8836 17.3165C88.6744 17.1085 88.4078 16.9668 88.1175 16.9093C87.8272 16.8519 87.5263 16.8813 87.2529 16.9938C86.9794 17.1063 86.7457 17.2969 86.5812 17.5414C86.4167 17.786 86.3288 18.0735 86.3287 18.3677C86.3287 18.7623 86.4864 19.1407 86.767 19.4197C87.0477 19.6987 87.4283 19.8555 87.8252 19.8557Z" fill="white"/>
<path d="M88.5888 20.9891C88.2928 20.9891 88.0035 21.0764 87.7574 21.2398C87.5113 21.4033 87.3195 21.6356 87.2062 21.9074C87.0929 22.1792 87.0633 22.4783 87.121 22.7668C87.1788 23.0554 87.3213 23.3204 87.5306 23.5285C87.7399 23.7365 88.0065 23.8782 88.2968 23.9355C88.5871 23.9929 88.888 23.9635 89.1615 23.8509C89.4349 23.7383 89.6687 23.5477 89.8331 23.303C89.9975 23.0584 90.0853 22.7708 90.0853 22.4766C90.0852 22.0822 89.9275 21.7039 89.6469 21.425C89.3662 21.146 88.9857 20.9893 88.5888 20.9891Z" fill="white"/>
<path d="M87.4734 24.8854C87.1773 24.8853 86.8878 24.9725 86.6416 25.1359C86.3953 25.2994 86.2034 25.5318 86.09 25.8037C85.9766 26.0756 85.9469 26.3748 86.0047 26.6635C86.0624 26.9522 86.205 27.2174 86.4144 27.4255C86.6238 27.6336 86.8906 27.7754 87.181 27.8328C87.4714 27.8902 87.7725 27.8606 88.046 27.748C88.3196 27.6353 88.5534 27.4445 88.7178 27.1997C88.8823 26.955 88.97 26.6672 88.9699 26.3729C88.9698 25.9784 88.8121 25.6001 88.5315 25.3212C88.2509 25.0423 87.8703 24.8855 87.4734 24.8854Z" fill="white"/>
<path d="M85.2975 28.1459C85.0016 28.1459 84.7122 28.2331 84.4661 28.3966C84.22 28.56 84.0282 28.7923 83.9149 29.0641C83.8017 29.3359 83.772 29.635 83.8298 29.9236C83.8875 30.2121 84.0301 30.4772 84.2393 30.6852C84.4486 30.8932 84.7153 31.0349 85.0056 31.0923C85.2959 31.1497 85.5968 31.1202 85.8702 31.0076C86.1437 30.8951 86.3774 30.7044 86.5418 30.4598C86.7063 30.2152 86.7941 29.9276 86.7941 29.6334C86.7939 29.2389 86.6362 28.8606 86.3556 28.5817C86.075 28.3028 85.6944 28.146 85.2975 28.1459Z" fill="white"/>
<path d="M67.5726 30.704C64.839 32.2039 62.4186 33.8294 62.4181 36.0054V42.5721H64.895V37.3221C64.895 35.8242 66.1943 34.8082 67.5726 34.1011C68.9508 34.8082 70.2501 35.8242 70.2501 37.3221V42.574H72.7271V36.0074C72.7271 33.8313 70.3061 32.2058 67.5731 30.7059" fill="white"/>
<path d="M61.1691 36.0059C61.1691 33.2179 63.9668 31.2689 67.5726 29.3146C71.1789 31.2689 73.9761 33.2165 73.9761 36.0059V45.1112H76.453V22.9116H74.7641V24.4029H72.5681V22.9116H70.8782V26.8716H64.2674V22.9116H62.5775V24.4029H60.3811V22.9116H58.6921V45.1103H61.1691V36.0059Z" fill="white"/>
<path d="M77.702 24.4034V47.6475H82.1389V24.4034C82.1389 23.3955 81.1149 22.8916 80.5112 22.2335C80.7706 22.1012 80.9776 21.8861 81.0991 21.6227C81.2206 21.3592 81.2494 21.0629 81.181 20.7812C81.1125 20.4995 80.9508 20.2489 80.7217 20.0697C80.4926 19.8905 80.2096 19.793 79.918 19.793C79.6265 19.793 79.3435 19.8905 79.1144 20.0697C78.8853 20.2489 78.7236 20.4995 78.6551 20.7812C78.5866 21.0629 78.6155 21.3592 78.737 21.6227C78.8584 21.8861 79.0655 22.1012 79.3249 22.2335C78.7227 22.8911 77.7006 23.395 77.7006 24.4019" fill="white"/>
</g>
</g>
<defs>
<clipPath id="clip0_1_2048">
<rect width="134" height="60" fill="white" transform="translate(0.5)"/>
</clipPath>
</defs>
</svg>
