<svg width="32" height="32" viewBox="0 0 32 32" fill="none" xmlns="http://www.w3.org/2000/svg">
<path d="M16.6759 8.01323C15.8658 8.13021 15.1381 8.87366 15.0184 9.70551C14.8814 10.6604 15.5249 11.6534 16.453 11.9185C16.642 11.9731 16.8398 12 17.0445 12C17.1373 12 17.2327 11.9948 17.3281 11.9827C17.7522 11.9324 18.1313 11.7738 18.4227 11.526C18.7688 11.2323 18.9795 10.8207 18.9986 10.3952C19.0186 9.94379 18.8208 9.54174 18.6699 9.27745C18.29 8.61718 17.5397 7.89278 16.6759 8.01323Z" fill="#514848"/>
<path d="M17.7915 23.6589C18.8495 19.594 22.4715 17.1071 24.0894 13.3437C25.5225 10.0088 24.8703 6.25052 22.1216 3.92864C16.4872 -0.829583 6.53266 4.97624 8.53877 12.7899C9.06276 14.8296 10.303 16.567 11.6097 18.1179C13.0584 19.8367 14.662 21.473 16.2407 23.0702C16.2287 23.1116 16.2155 23.1517 16.2042 23.1931C15.9068 24.2759 17.5082 24.7449 17.7915 23.6589ZM10.9389 14.6913C9.2507 11.7083 9.57233 8.31865 11.9994 5.91067C14.336 3.59336 18.2038 2.9104 20.9179 4.88688C22.1532 5.78575 23.0994 7.21006 23.3732 8.78667C23.6727 10.5123 23.0635 12.2292 22.2295 13.6829C20.508 16.6828 17.8025 18.9238 16.5365 22.1899C14.704 19.6717 12.4786 17.4118 10.9389 14.6913Z" fill="#514848"/>
<path d="M3.86514 25.0645C4.01007 28.6959 8.92971 30.1151 11.6316 30.5673C15.004 31.1322 18.6398 30.9488 21.9775 30.1851C24.1205 29.6953 26.73 28.5139 27.6943 26.2753C28.2234 25.0478 28.3555 23.4569 27.6659 22.2713C26.7097 20.6274 24.1437 19.9665 22.4506 19.8644C21.095 19.7831 20.79 22.0818 22.1279 22.3902C23.2596 22.6504 25.8417 22.4896 26.2098 23.9924C26.4852 25.1158 25.7708 26.1216 24.9573 26.7409C22.916 28.296 20.2009 28.5367 17.7819 28.7096C14.3138 28.9579 10.6409 28.6682 7.50455 26.9383C6.86846 26.5875 6.07777 26.1339 5.82108 25.3678C5.54571 24.5467 5.99918 23.6915 6.52062 23.1064C7.59698 21.899 9.24889 21.6436 10.466 20.6797C10.6058 20.569 10.6032 20.3282 10.4158 20.2709C7.68104 19.4423 3.73631 21.8198 3.86514 25.0645Z" fill="#514848"/>
</svg>
