<svg width="800" height="800" viewBox="0 0 800 800" fill="none" xmlns="http://www.w3.org/2000/svg">
<path d="M760.824 360.817H714.816C699.043 215.172 584.143 99.049 439.195 81.0575V39.1971C439.195 17.5352 421.669 0.00170898 399.999 0.00170898C378.381 0.00170898 360.831 17.5352 360.831 39.1971V81.0575C215.878 99.049 100.98 215.17 85.2345 360.817H39.2262C17.5497 360.817 0 378.35 0 399.986C0 421.645 17.5497 439.178 39.2262 439.178H86.6946C106.495 580.174 219.139 691.559 360.833 709.146V760.798C360.833 782.457 378.383 799.995 400.001 799.995C421.671 799.995 439.196 782.457 439.196 760.798V709.146C580.861 691.559 693.537 580.174 713.299 439.178H760.826C782.475 439.178 800.002 421.645 800.002 399.986C800 378.35 782.473 360.817 760.824 360.817ZM399.999 646.532C261.393 646.532 148.586 533.735 148.586 395.104C148.586 256.469 261.393 143.677 399.999 143.677C538.656 143.677 651.443 256.469 651.443 395.104C651.443 533.733 538.658 646.532 399.999 646.532Z" fill="white"/>
<path d="M399.999 287.347C340.513 287.347 292.258 335.589 292.258 395.103C292.258 454.601 340.511 502.858 399.999 502.858C459.538 502.858 507.74 454.602 507.74 395.103C507.74 335.59 459.539 287.347 399.999 287.347Z" fill="white"/>
</svg>
