<svg width="32" height="32" viewBox="0 0 32 32" fill="none" xmlns="http://www.w3.org/2000/svg">
<path fill-rule="evenodd" clip-rule="evenodd" d="M12.3976 4.52468C14.1585 4.38652 15.9531 4.84249 17.422 5.83035C17.9542 6.18879 18.4373 6.60255 18.8683 7.07449C19.0521 7.11219 19.2249 7.20382 19.3692 7.34988L19.4591 7.45144C21.7283 10.3703 22.2922 14.7621 20.1827 17.9065C22.9101 20.524 25.6018 23.1575 28.0958 25.8323C28.4742 26.2282 28.8396 26.6661 29.0138 27.0413C29.0988 27.2246 29.1621 27.4429 29.1036 27.6477C29.0368 27.8807 28.842 28.0109 28.6066 28.0647C28.177 28.1626 27.6063 28.0692 27.0978 27.8909C26.5873 27.7119 26.0763 27.4257 25.7804 27.0803C25.255 26.4671 24.8479 25.9285 24.3575 25.3792C22.4807 23.4597 20.5779 21.5268 18.63 19.5911C15.5416 22.0848 11.0501 22.1482 7.89854 19.6966C5.23969 17.6279 3.92317 13.9848 4.74132 10.7005C5.61476 7.19441 8.91161 4.79811 12.3976 4.52468ZM16.0812 7.30984C14.7084 6.6379 13.1731 6.40187 11.7003 6.73562C9.10766 7.32405 6.95583 9.33977 6.6505 11.9602C6.35176 14.5229 7.63919 17.1504 9.84288 18.5032C12.5328 20.1547 16.2711 19.5676 18.2472 17.094C20.0677 14.8142 19.6709 11.1838 17.8273 8.92215C17.6627 8.72034 17.5849 8.49386 17.5733 8.27371C17.1148 7.89584 16.611 7.56896 16.0812 7.30984Z" fill="white"/>
</svg>
