<svg width="20" height="20" viewBox="0 0 20 20" fill="none" xmlns="http://www.w3.org/2000/svg">
<path fill-rule="evenodd" clip-rule="evenodd" d="M4.89575 7.18746H2.91659C2.45659 7.18746 2.08325 7.5608 2.08325 8.0208V11.9791C2.08325 12.4391 2.45659 12.8125 2.91659 12.8125H4.89575L8.21159 15.6216C8.75325 16.0808 9.58325 15.6958 9.58325 14.9858V5.01413C9.58325 4.30413 8.75242 3.91913 8.21159 4.3783L4.89575 7.18746Z" fill="#FAFAFA" stroke="#FAFAFA" stroke-width="1.25" stroke-linecap="round" stroke-linejoin="round"/>
<path d="M12.9475 13.3151C13.9158 12.7134 14.5833 11.4617 14.5833 10.0042C14.5833 8.54673 13.9158 7.29423 12.9475 6.68506" stroke="#FAFAFA" stroke-width="1.25" stroke-linecap="round" stroke-linejoin="round"/>
<path d="M15.4209 15.8874C16.9276 14.5916 17.9167 12.4416 17.9167 10.0024C17.9167 7.55995 16.9259 5.40828 15.4167 4.11328" stroke="#FAFAFA" stroke-width="1.25" stroke-linecap="round" stroke-linejoin="round"/>
</svg>
