<svg width="27" height="27" viewBox="0 0 27 27" fill="none" xmlns="http://www.w3.org/2000/svg">
<path d="M14.0935 12.0442C15.9697 12.1084 17.8468 12.1966 19.7054 12.3647C20.2508 12.4151 20.6429 12.9027 20.571 13.4561C20.5007 14.0081 19.996 14.4153 19.445 14.365C17.704 14.2074 15.9473 14.1296 14.1889 14.0646L12.1723 13.996C10.2245 13.9645 8.27318 13.9671 6.33169 14.049C6.0462 14.0616 5.7886 13.9545 5.60486 13.7708C5.43226 13.5982 5.32485 13.3576 5.32443 13.088C5.32243 12.536 5.77009 12.0661 6.32542 12.0425C8.23852 11.9612 10.1585 11.962 12.0766 11.9899L14.0935 12.0442Z" fill="#C14400"/>
</svg>
