<svg width="27" height="27" viewBox="0 0 27 27" fill="none" xmlns="http://www.w3.org/2000/svg">
<path d="M12.054 6.16638C12.0761 5.6125 12.5447 5.16345 13.0995 5.16539C13.6515 5.1674 14.084 5.62017 14.059 6.1741C13.969 8.313 14.0119 10.1882 14.0935 12.0442C15.9697 12.1084 17.8469 12.1966 19.7054 12.3647C20.2508 12.4151 20.6429 12.9027 20.5711 13.4561C20.5007 14.0081 19.9961 14.4153 19.445 14.365C17.704 14.2074 15.9473 14.1296 14.1889 14.0645C14.1931 14.1411 14.1973 14.2148 14.2001 14.2928C14.286 15.9245 14.3739 17.6044 14.4068 19.4812C14.4159 20.0345 13.9738 20.51 13.4197 20.5407C13.1285 20.5563 12.8653 20.4465 12.6788 20.2599C12.5089 20.0901 12.4028 19.8566 12.3994 19.5927C12.3689 17.7414 12.2806 16.0842 12.197 14.4752C12.1888 14.3136 12.1819 14.1562 12.1723 13.996C10.2245 13.9645 8.27319 13.9671 6.3317 14.0489C6.04622 14.0616 5.78862 13.9545 5.60488 13.7708C5.43228 13.5982 5.32486 13.3576 5.32445 13.088C5.32244 12.536 5.77011 12.0661 6.32543 12.0425C8.23853 11.9612 10.1585 11.962 12.0766 11.9899C12.0016 10.1607 11.9641 8.29961 12.054 6.16638Z" fill="#C14400"/>
</svg>
