<svg width="32" height="32" viewBox="0 0 32 32" fill="none" xmlns="http://www.w3.org/2000/svg">
<path fill-rule="evenodd" clip-rule="evenodd" d="M12.3973 4.52468C14.1583 4.38652 15.9528 4.84249 17.4217 5.83035C17.954 6.18879 18.4371 6.60255 18.868 7.07449C19.0519 7.11219 19.2247 7.20382 19.369 7.34988L19.4588 7.45144C21.7281 10.3703 22.292 14.7621 20.1825 17.9065C22.9099 20.524 25.6016 23.1575 28.0956 25.8323C28.4739 26.2282 28.8393 26.6661 29.0135 27.0413C29.0986 27.2246 29.1618 27.4429 29.1034 27.6477C29.0366 27.8807 28.8418 28.0109 28.6063 28.0647C28.1768 28.1626 27.6061 28.0692 27.0975 27.8909C26.587 27.7119 26.0761 27.4257 25.7801 27.0803C25.2547 26.4671 24.8477 25.9285 24.3573 25.3792C22.4805 23.4597 20.5777 21.5268 18.6297 19.5911C15.5413 22.0848 11.0498 22.1482 7.8983 19.6966C5.23945 17.6279 3.92292 13.9848 4.74107 10.7005C5.61452 7.19441 8.91136 4.79811 12.3973 4.52468ZM16.0809 7.30984C14.7082 6.6379 13.1729 6.40187 11.7001 6.73562C9.10742 7.32405 6.95559 9.33977 6.65025 11.9602C6.35152 14.5229 7.63894 17.1504 9.84264 18.5032C12.5325 20.1547 16.2708 19.5676 18.2469 17.094C20.0675 14.8142 19.6706 11.1838 17.827 8.92215C17.6625 8.72034 17.5847 8.49386 17.5731 8.27371C17.1145 7.89584 16.6107 7.56896 16.0809 7.30984Z" fill="#FCEFE1"/>
</svg>
