<svg width="214" height="660" viewBox="0 0 214 660" fill="none" xmlns="http://www.w3.org/2000/svg">
<g clip-path="url(#clip0_2025_7814)">
<path d="M190.237 28.8959C182.016 34.7471 173.09 42.1136 167.525 50.6654C156.813 49.9302 154.683 79.3062 151.908 79.0662L119.249 47.3497C129.615 60.3123 127.845 78.7661 132.496 92.779C135.196 100.896 143.087 107.512 145.742 115.494C148.457 123.64 148.607 135.538 150.468 144.36L146.687 137.263C146.612 159.543 144.437 180.337 138.166 201.626C136.306 207.958 130.155 216.899 128.7 222.931C126.855 227.146 125.91 220.065 125.865 219.615C125.655 217.589 126.765 209.053 124.44 208.723C114.238 216.209 107.188 226.381 100.782 237.123C92.3509 229.232 83.8149 221.565 74.7538 214.409C73.3437 212.714 69.8182 207.477 70.0283 211.573C57.0968 201.506 44.3603 191.094 31.2188 181.282C33.094 182.227 37.0394 185.303 38.7946 184.118L64.3426 154.772C67.433 153.931 70.5533 152.791 73.8087 151.936C66.6829 162.813 48.4708 176.001 57.2468 189.804C62.0173 180.352 67.2229 170.24 77.1241 165.199C73.7337 173.57 67.508 182.062 69.0832 191.709C68.2281 194.71 65.3027 202.226 70.5083 201.176C72.5186 200.771 91.9308 172.565 97.0164 169.94C92.1108 179.362 90.7307 188.889 88.9755 199.286C88.6904 200.966 86.2002 207.867 87.5503 208.753L101.277 202.601L96.0713 217.274C118.364 194.5 133.771 167.164 134.401 134.458C133.996 133.662 132.991 133.392 132.511 133.032C131.16 132.027 103.062 133.977 98.9066 133.977C103.992 126.431 111.388 120.82 119.249 116.469C95.5312 102.246 64.7477 98.9152 37.3845 100.851L98.4266 73.8751L52.0562 69.1491C60.5172 61.5426 73.4637 61.0775 81.8647 57.3117C90.0556 53.651 97.6315 45.9094 107.413 45.0092L108.358 43.1188C99.5817 37.3876 87.4753 36.1424 77.1241 38.3928C94.4361 20.8843 115.424 36.6075 134.866 38.3928C154.218 40.1782 173.27 35.2572 190.702 27.0355C193.868 27.2756 190.222 28.8359 190.222 28.9259L190.237 28.8959Z" fill="#B08F78"/>
<path d="M167.525 50.6654C166.895 51.6406 166.205 52.4958 165.635 53.501C157.324 68.339 158.239 81.0466 156.169 97.0399C155.479 102.351 155.704 109.267 155.223 115.029C154.263 126.581 149.028 134.953 152.388 147.69C154.773 156.722 167.24 165.199 171.32 173.721C174.636 183.773 177.216 198.611 180.786 207.327C181.357 208.708 182.617 211.018 184.567 210.643C180.396 229.502 173.661 247.791 175.101 267.43C172.896 265.449 168.695 261.233 166.58 262.704C167.345 259.928 164.495 232.563 162.799 230.042L160.909 229.097C157.459 231.137 155.208 234.633 152.388 237.139C152.913 225.586 158.194 214.109 159.019 202.586C160.399 183.293 154.503 163.263 150.498 144.375C148.623 135.553 148.488 123.64 145.772 115.509C143.102 107.527 135.211 100.896 132.526 92.794C127.86 78.7812 129.646 60.3274 119.279 47.3647L151.938 79.0812C154.713 79.3213 156.844 49.9453 167.555 50.6804L167.525 50.6654Z" fill="#524435"/>
<path d="M128.715 222.946C128.28 224.761 127.02 233.373 128.235 234.303L149.058 211.588L141.017 245.195C142.232 249.891 151.668 237.784 152.373 237.154C155.193 234.648 157.429 231.137 160.894 229.112L162.784 230.057C164.479 232.563 167.33 259.943 166.565 262.719C163.339 274.511 129 259.193 121.604 255.142C106.138 246.665 86.1402 228.017 74.7539 214.439C83.815 221.595 92.351 229.262 100.782 237.154C107.188 226.411 114.238 216.239 124.44 208.753C126.75 209.068 125.655 217.604 125.865 219.645C125.91 220.08 126.87 227.176 128.7 222.961L128.715 222.946Z" fill="#B08F78"/>
<path d="M38.8099 184.133C37.0697 185.303 33.1093 182.227 31.234 181.297C25.5934 178.477 4.11088 161.823 1.89062 156.692C13.772 142.604 33.3043 139.964 50.1662 135.868C43.8955 140.954 33.8593 140.924 26.0284 145.335C16.6823 150.601 5.05599 162.333 18.4526 169.94L56.782 135.868C59.5873 135.238 62.4827 134.578 65.303 133.977C50.8413 149.326 39.77 161.718 38.7949 184.148L38.8099 184.133Z" fill="#B08F78"/>
<path d="M74.7685 214.424C74.4685 214.199 72.2032 213.269 70.043 211.588C69.8479 207.492 73.3584 212.744 74.7685 214.424Z" fill="#B08F78"/>
<path d="M88.976 199.271L132.511 133.017C132.991 133.377 133.996 133.647 134.401 134.442C133.771 167.149 118.349 194.485 96.0718 217.259L101.277 202.586L87.5508 208.738C86.2007 207.853 88.691 200.966 88.976 199.271Z" fill="#DCB59F"/>
<path d="M69.0993 191.709C67.5242 182.077 73.7649 173.57 77.1403 165.199C67.2391 170.255 62.0485 180.352 57.263 189.804C48.4869 176.001 66.6991 162.828 73.8249 151.936C88.9016 147.93 103.783 142.589 119.25 140.099C97.3626 153.211 76.5252 165.364 69.0843 191.679L69.0993 191.709Z" fill="#DCB59F"/>
<path d="M188.348 168.034C190.689 168.124 189.729 168.049 192.129 168.98C193.914 183.983 187.673 196.525 184.553 210.628C182.603 211.018 181.328 208.693 180.773 207.312C177.202 198.596 174.622 183.758 171.306 173.706C171.171 173.3 171.216 167.449 170.361 165.184C175.477 168.56 182.093 173.225 188.348 168.019V168.034Z" fill="#B08F78"/>
<path d="M56.7821 135.853L18.4526 169.925C5.05604 162.318 16.6824 150.571 26.0285 145.32C33.8594 140.909 43.8806 140.939 50.1663 135.853C51.9815 135.418 54.9368 136.273 56.7971 135.853H56.7821Z" fill="#DCB59F"/>
<path d="M64.3585 154.787L38.8105 184.133C39.7857 161.703 50.8569 149.311 65.3186 133.962C72.7595 132.372 80.0653 128.756 86.6211 127.331C87.7012 127.091 91.1516 125.561 90.8816 127.811L47.3465 158.102C47.7066 158.897 62.7833 155.222 64.3885 154.787H64.3585Z" fill="#DCB59F"/>
<path d="M205.389 153.842C207.189 158.973 209.769 165.649 208.704 170.885C206.574 163.624 205.119 157.727 200.663 151.486C197.633 147.24 183.726 133.437 179.361 137.758C178.851 133.917 177.981 135.643 176.991 133.977C175.565 131.547 174.905 129.086 174.155 126.401C173.645 124.601 171.17 118.269 173.675 116.934C187.342 128.471 199.178 136.093 205.389 153.857V153.842Z" fill="#C3A18B"/>
<path d="M568.822 422.666C563.196 430.468 565.131 442.696 565.041 452.012C564.741 481.614 567.022 507.179 570.727 536.255L553.685 475.672L551.315 422.666L550.835 438.285C547.999 445.216 546.319 455.838 540.424 460.999C539.148 462.11 537.228 464.285 535.698 461.944C545.074 446.326 539.223 423.852 537.123 406.568C535.533 419.711 535.548 447.947 519.616 450.587C528.797 436.379 521.566 418.106 523.397 402.307L516.766 405.143L531.903 372.961L514.861 375.797C530.732 367.155 546.499 353.412 550.355 335.574C548.644 336.894 530.132 347.936 530.012 344.561C531.903 337.719 550.91 312.259 550.835 307.638C550.73 300.962 544.339 312.934 540.424 310.474C560.226 273.986 551.525 234.333 543.259 195.94C546.859 240.034 541.729 280.392 519.601 318.995C509.535 336.549 496.904 347.936 488.368 366.795C486.987 351.747 487.557 336.879 485.532 321.831C481.242 290.099 469.81 245.765 461.874 213.929C460.494 208.393 457.734 200.681 455.244 195.475V191.694C459.624 188.093 465.1 181.762 470.38 177.501C476.096 172.895 505.875 154.817 504.449 147.69C503.024 140.564 466.255 130.887 459.024 129.236C444.457 125.906 429.771 122.215 414.544 124.03C432.906 131.727 446.558 140.414 459.969 154.787C453.308 150.541 444.082 148.59 436.311 147.21C426.77 145.515 400.382 139.799 392.776 139.634L386.146 135.853C388.456 135.463 398.447 133.677 398.447 131.592L377.625 115.494C392.341 102.981 410.508 92.4039 430.161 90.4085C447.788 88.6231 466.45 92.809 483.642 90.8886C483.582 87.5729 429.006 67.7389 421.655 68.6391C431.571 61.8577 444.832 63.658 456.204 62.4878C449.258 52.4958 436.927 55.1663 429.231 52.5558C417.994 48.745 407.958 41.7236 396.107 40.2533C403.113 33.3218 416.674 33.1568 425.915 31.2664C416.779 27.6357 408.018 23.9299 397.997 25.1152C393.346 25.6703 386.836 30.0512 382.86 30.8013C358.212 35.4373 334.375 36.9976 310.927 26.0753L309.982 27.9657C317.243 31.5215 327.399 41.1084 332.229 47.8448C342.941 62.8179 342.626 77.5359 344.531 95.1795C341.02 81.9768 324.863 64.9333 313.777 57.3117C312.847 56.6666 300.651 48.5349 300.996 51.1605L324.188 80.0264C313.027 77.4909 306.741 71.2496 299.105 63.463C305.691 82.4119 329.559 90.8286 339.805 105.112C342.491 108.847 343.001 114.293 346.436 116.949C352.047 164.929 341.395 145.365 327.504 179.422L326.559 178.477C327.564 175.131 327.414 170.645 329.394 167.119V166.174C331.689 164.749 334.165 161.073 335.08 158.597C335.74 165.109 343.436 154.022 343.601 153.391C346.931 140.444 336.52 130.947 327.504 123.58C327.684 122.905 328.584 117.219 327.984 116.949C316.643 127.031 301.701 134.908 296.27 150.076C283.444 152.086 288.499 145.05 283.969 137.293C260.161 96.6648 214.046 113.948 205.405 153.856C199.194 136.093 187.372 128.486 173.691 116.934C171.171 118.269 173.661 124.586 174.171 126.401L170.856 124.51C165.755 134.683 151.203 141.239 160.444 153.856C160.504 152.236 161.629 150.136 161.869 149.131C162.44 150.451 162.47 152.896 162.815 153.856C164.075 157.472 167.69 160.518 168.5 162.378C168.95 163.413 170.33 165.064 170.39 165.214C171.246 167.479 171.201 173.33 171.336 173.736C167.255 165.214 154.789 156.737 152.403 147.705C149.043 134.983 154.279 126.596 155.239 115.044C161.494 108.022 166.79 100.746 173.691 94.2193C183.022 85.3975 198.279 79.1862 200.199 64.8733C193.778 71.8347 187.252 78.136 177.486 80.0114L200.679 51.1455C189.053 56.8616 174.216 67.0337 166.61 77.6559C162.094 83.9572 160.549 91.0536 156.199 97.0549C158.269 81.0466 157.354 68.354 165.665 53.516C166.745 53.876 170.21 55.5864 170.871 55.4064C172.356 55.0013 190.523 33.5919 191.213 32.2116C191.543 31.5665 190.283 30.4863 190.268 28.8959C190.268 28.7909 193.898 27.2456 190.748 27.0055C173.316 35.2272 154.249 40.1482 134.911 38.3629C115.484 36.5775 94.4966 20.8543 77.1696 38.3629C87.5208 36.1124 99.6272 37.3727 108.403 43.0888L107.458 44.9792C97.677 45.8794 90.0861 53.621 81.9102 57.2817C73.5092 61.0475 60.5627 61.5126 52.1017 69.1192L98.4721 73.8451L37.43 100.821C64.7932 98.8852 95.5918 102.216 119.295 116.439C111.434 120.79 104.023 126.401 98.9521 133.947C103.108 133.947 131.206 131.997 132.556 133.002L89.021 199.256C90.7762 188.859 92.1563 179.332 97.0619 169.91C91.9913 172.535 72.5641 200.741 70.5538 201.146C65.3482 202.196 68.2886 194.68 69.1287 191.679C76.5695 165.364 97.392 153.211 119.295 140.099C103.813 142.589 88.946 147.93 73.8692 151.936C70.6139 152.806 67.4935 153.947 64.4031 154.772C62.8129 155.207 47.7212 158.868 47.3611 158.087L90.8962 127.796C91.1662 125.546 87.7158 127.091 86.6357 127.316C80.095 128.726 72.7741 132.342 65.3332 133.947C62.5129 134.548 59.6176 135.208 56.8122 135.838C54.952 136.258 51.9967 135.403 50.1815 135.838C33.3345 139.934 13.8022 142.574 1.90585 156.662C1.86084 156.557 0.31566 156.047 0.015625 155.237C3.91608 125.291 18.2277 98.5252 28.4139 70.5144C49.7014 43.689 64.1181 10.0971 105.058 9.01686C118.739 8.65679 147.258 13.7428 162.32 15.6482C170.285 16.6534 193.913 23.5398 199.239 23.2248C203.514 22.9697 217.436 14.733 225.747 13.7578C236.473 12.4976 265.127 12.5426 275.913 13.7578C282.108 14.463 299.841 22.3396 301.461 22.2796C302.871 22.2196 322.568 11.5074 327.009 9.97706C423.395 -23.1497 470.785 30.5013 510.15 108.892C529.502 147.42 552.905 184.403 564.096 227.207C573.157 261.849 578.078 302.132 576.398 337.959C575.243 362.564 565.026 400.027 568.822 422.681V422.666Z" fill="#FFFCFA"/>
<path d="M155.224 115.029C155.704 109.267 155.479 102.351 156.169 97.0399C160.52 91.0237 162.065 83.9422 166.58 77.6409C174.186 67.0187 189.038 56.8617 200.649 51.1305L177.457 79.9964C187.238 78.121 193.748 71.8197 200.169 64.8583C198.264 79.1712 183.007 85.3675 173.661 94.2043C166.76 100.731 161.45 108.007 155.209 115.029H155.224Z" fill="#DCB59F"/>
<path d="M221.006 69.5992C220.526 82.7719 214.105 99.8604 205.389 109.822C194.843 121.885 193.148 115.074 179.361 113.138L221.006 69.5992Z" fill="#F4D5B9"/>
<path d="M42.126 116.919C46.2065 116.499 64.7937 117.174 68.6341 117.864C69.9843 118.104 71.9495 117.354 70.5243 119.754C47.4516 120.115 25.3391 128.006 8.53711 143.894C15.0479 131.637 27.8444 118.374 42.141 116.919H42.126Z" fill="#B08F78"/>
<path d="M186.457 152.896C188.257 156.992 191.632 164.794 192.142 168.995C189.742 168.064 190.687 168.124 188.362 168.049C178.341 167.689 177.231 167.344 168.484 162.363C167.674 160.518 164.074 157.457 162.799 153.841L167.524 148.155C168.229 155.657 185.616 163.969 186.457 152.881V152.896Z" fill="#C3A18B"/>
<path d="M174.155 126.386C174.906 129.071 175.566 131.532 176.991 133.962C165.154 137.503 164.389 138.208 161.854 149.1C161.614 150.106 160.489 152.206 160.429 153.826C151.188 141.209 165.739 134.653 170.84 124.48L174.155 126.371V126.386Z" fill="#F6E6D9"/>
<path d="M165.635 53.5009C166.205 52.4807 166.895 51.6405 167.525 50.6653C173.106 42.0986 182.032 34.7321 190.238 28.8959C190.253 30.4862 191.513 31.5664 191.183 32.2116C190.478 33.5918 172.326 55.0012 170.84 55.4063C170.18 55.5863 166.715 53.876 165.635 53.5159V53.5009Z" fill="#FFFCFA"/>
<path d="M188.348 168.034C182.092 173.241 175.492 168.56 170.361 165.199C170.301 165.034 168.921 163.398 168.471 162.363C177.217 167.344 178.327 167.689 188.348 168.049V168.034Z" fill="#7E5C40"/>
<path d="M150.483 144.375C154.488 163.278 160.384 183.292 159.004 202.586C158.179 214.094 152.898 225.586 152.373 237.138C151.668 237.769 142.232 249.891 141.017 245.18L149.058 211.573L128.235 234.288C127.005 233.358 128.265 224.746 128.715 222.931C130.171 216.914 136.321 207.958 138.182 201.626C144.452 180.337 146.627 159.543 146.702 137.263L150.483 144.36V144.375Z" fill="#886B57"/>
<path d="M296.24 150.061C295.625 151.771 294.035 153.211 294.35 155.267C296.66 159.453 313.297 137.158 317.062 137.758C312.472 144.27 304.416 156.617 304.761 164.269C301.28 177.606 301.385 224.056 313.282 232.893L323.693 250.401C324.473 256.072 324.968 261.684 324.638 267.445C324.158 267.715 322.253 269.44 320.858 270.28C318.262 271.841 314.692 273.086 312.337 275.006C310.446 276.222 298.175 280.077 297.665 280.692C296.825 281.683 297.635 287.429 297.185 290.159C296.885 292.065 296.525 293.925 296.24 295.846C279.438 296.626 262.546 293.79 245.609 294.9C231.297 295.846 215.59 305.327 202.539 293.955C202.269 291.465 201.834 288.824 201.594 286.379C200.139 271.766 203.364 255.052 195.443 241.895C198.263 254.032 200.454 267.22 200.649 280.227C200.304 280.902 191.528 275.681 190.237 275.021C185.542 272.621 181.116 270.265 176.991 266.98C176.691 266.124 179.316 250.881 179.826 248.991C181.011 244.595 188.407 232.908 188.347 231.947C188.317 231.392 181.821 225.991 183.622 222.481C190.898 229.547 193.598 228.992 194.978 218.7C197.828 197.425 198.848 163.623 184.567 147.24C182.302 144.645 179.676 138.748 175.581 138.718C170.735 138.688 167.135 143.864 167.54 148.185L162.814 153.871C162.469 152.911 162.439 150.451 161.869 149.146C164.419 138.253 165.185 137.533 177.006 134.007C177.981 135.673 178.866 133.947 179.376 137.788C183.742 133.452 197.633 147.27 200.679 151.516C205.134 157.757 206.604 163.653 208.72 170.915C209.785 165.679 207.204 159.003 205.404 153.871C214.045 113.963 260.146 96.6798 283.968 137.308C288.514 145.05 283.443 152.101 296.27 150.091L296.24 150.061Z" fill="#F4D5B9"/>
<path d="M249.389 191.709C272.012 191.094 289.504 202.856 294.349 225.316C288.574 220.155 286.083 212.653 279.678 207.807C257.745 191.184 218.35 196.12 207.744 223.906C210.129 203.322 230.217 192.234 249.389 191.724V191.709Z" fill="#B08F78"/>
<path d="M206.799 269.32L207.744 288.254C231.537 264.024 269.161 260.993 291.034 289.199L291.979 269.32C292.909 275.081 292.369 281.022 292.459 286.829C292.459 287.234 296.464 293.625 291.034 292.98C290.179 292.875 280.892 283.783 278.732 282.568C255.6 269.62 224.051 272.741 206.799 293.925V269.32Z" fill="#A28366"/>
<path d="M239.923 228.617C259.156 226.081 289.759 231.197 290.554 255.592C277.998 224.491 219.671 224.341 209.635 257.018C209.83 241.609 225.867 230.477 239.923 228.617Z" fill="#B08F78"/>
<path d="M244.663 163.308C257.129 162.273 276.572 164.719 282.527 177.501C260.205 161.133 225.881 163.398 209.169 186.488C206.784 180.937 214.434 174.786 219.1 171.815C225.101 168.004 237.582 163.879 244.648 163.293L244.663 163.308Z" fill="#D7C3AD"/>
<path d="M184.567 147.21C184.177 149.446 185.662 151.051 186.457 152.896C185.632 163.984 168.23 155.672 167.525 148.17C167.12 143.849 170.721 138.673 175.566 138.703C179.677 138.733 182.287 144.615 184.552 147.225L184.567 147.21Z" fill="#15120F"/>
<path d="M174.621 142.484C178.716 142.319 178.881 146.31 176.511 147.21C173.075 148.53 169.04 142.709 174.621 142.484Z" fill="#FFFCFA"/>
<path d="M172.25 594.932C172.655 595.652 175.056 598.652 175.086 599.193C175.161 600.708 173.271 602.283 173.196 602.508C166.49 605.374 162.889 617.526 158.059 620.497C152.778 617.841 147.873 615.801 142.922 620.017C143.327 620.407 144.212 621.112 143.867 621.442C138.031 626.918 137.536 629.784 134.401 637.54C129.03 635.98 132.421 636.445 128.715 632.814C126.93 631.059 125.955 627.353 123.51 626.183C113.504 621.397 107.023 637.555 104.112 644.172C99.612 639.371 100.467 627.443 100.332 620.512C102.792 617.916 106.348 608.554 106.963 605.374C116.909 594.827 124.02 583.424 118.319 568.451C124.92 569.096 135.661 564.445 138.661 558.039C140.642 562.855 136.486 568.421 137.236 573.657C138.887 585.12 162.589 592.981 172.25 594.962V594.932Z" fill="#DCB59F"/>
<path d="M159.95 632.799C154.625 645.432 131.762 638.906 123.031 648.898C116.94 647.802 105.509 651.838 106.934 642.746C107.069 641.921 117.015 630.204 117.826 629.964C122.836 628.524 124.576 633.37 128.717 632.799C132.407 636.43 129.017 635.965 134.402 637.525C134.522 637.555 133.787 639.821 135.828 639.416C142.563 638.065 145.039 623.933 146.239 623.317C149.164 621.832 162.966 625.673 159.965 632.784L159.95 632.799Z" fill="#DCB59F"/>
<path d="M174.157 340.315C173.707 350.757 177.607 356.518 174.157 370.126C173.062 374.477 156.29 401.572 160.43 401.842C161.766 401.932 177.517 385.549 180.773 384.334C181.523 396.336 176.047 405.488 172.252 416.05C168.816 425.607 163.746 434.519 160.895 444.916C156.71 460.174 155.735 475.807 153.32 491.29C161.976 484.869 165.126 470.676 170.362 460.999C171.937 458.089 176.692 453.498 177.937 451.067L173.212 511.169L198.76 495.551C171.067 524.267 139.368 540.125 164.691 585.945C166.011 588.33 170.647 592.021 172.267 594.932C162.591 592.951 138.903 585.105 137.253 573.627C136.503 568.391 140.658 562.825 138.678 558.009C135.677 564.415 124.921 569.066 118.335 568.421C116.46 568.241 109.829 564.655 107.924 563.215L106.034 564.16C108.284 576.808 109.424 592.711 106.979 605.329C106.364 608.509 102.809 617.886 100.348 620.467C100.258 616.386 100.378 612.245 100.348 608.164C100.348 606.559 100.393 605.014 100.348 603.438C99.6883 579.073 95.4578 564.88 93.7176 543.336C91.9324 521.117 100.318 517.561 107.909 499.797C121.996 466.88 136.233 433.619 149.554 400.402C155.765 384.949 160.205 363.494 166.596 349.766C169.266 344.005 171.412 343.945 174.172 340.3L174.157 340.315Z" fill="#F6E6D9"/>
<path d="M190.239 275.006C199.405 285.733 186.218 306.243 179.828 317.135C160.61 349.857 110.835 395.061 69.5649 386.704C62.7241 385.324 64.1642 383.688 64.3593 378.182C102.014 373.426 122.386 361.934 144.814 331.328C149.134 325.417 181.433 275.111 180.773 271.691C180.698 271.285 176.077 268.315 175.087 267.43C173.647 247.776 180.368 229.487 184.553 210.643C187.674 196.54 193.914 183.998 192.129 168.995C191.634 164.794 188.259 157.007 186.443 152.896C185.633 151.066 184.163 149.446 184.553 147.21C198.835 163.593 197.815 197.395 194.964 218.67C193.584 228.962 190.884 229.517 183.608 222.45C181.808 225.961 188.304 231.362 188.334 231.917C188.394 232.863 180.998 244.565 179.813 248.961C179.303 250.851 176.662 266.094 176.977 266.95C181.103 270.235 185.543 272.591 190.224 274.991L190.239 275.006Z" fill="#FFFCFA"/>
<path d="M201.595 286.364C200.605 299.071 174.516 331.493 174.141 340.315C171.381 343.96 169.236 344.02 166.566 349.782C139.997 370.171 114.074 396.876 78.0702 398.061C70.9594 398.286 51.4571 396.426 48.2618 389.075C42.4111 375.617 57.6228 379.038 64.3586 378.182C64.1636 383.688 62.7234 385.324 69.5642 386.704C110.834 395.046 160.61 349.857 179.827 317.135C186.218 306.258 199.404 285.748 190.238 275.006C191.528 275.666 200.304 280.887 200.65 280.212C200.454 267.205 198.264 254.017 195.444 241.879C203.365 255.037 200.154 271.766 201.595 286.364Z" fill="#B08F78"/>
<path d="M223.362 456.738C222.942 468.651 207.04 486.955 198.759 495.551L173.211 511.17L177.937 451.067C186.728 433.874 192.204 421.346 185.033 401.842C181.762 407.153 178.387 413.47 172.251 416.035C176.047 405.473 181.522 396.336 180.772 384.319C177.502 385.534 161.765 401.917 160.43 401.827C156.274 401.557 173.046 374.477 174.156 370.111C177.607 356.503 173.706 350.742 174.156 340.3C178.807 334.133 185.138 328.522 189.293 321.846C190.133 336.864 189.863 352.407 192.129 367.275C194.649 383.854 202.855 400.087 204.43 416.5C206.11 433.874 203.845 454.743 203.485 472.342C208.886 469.806 218.007 449.267 223.362 456.723V456.738Z" fill="#7E5C40"/>
<path d="M202.54 293.925C202.78 296.116 203.47 296.611 203.485 296.761C204.911 309.633 206.366 319.97 208.211 332.723C208.451 334.358 208.931 336.009 209.156 337.449C209.771 341.365 210.521 346.256 211.046 349.752C211.076 349.932 210.551 350.502 211.046 353.532C211.616 356.938 210.566 360.749 212.936 363.944L211.991 364.89C211.556 366.255 214.677 374.987 214.827 376.247C215.127 378.797 215.637 379.938 215.772 380.973C216.132 383.568 216.147 384.589 216.717 387.604C216.747 387.784 216.102 388.444 216.717 391.385C217.392 394.596 217.902 406.733 220.032 408.429H249.841C251.641 410.634 256.202 407.723 254.101 412.209C253.081 412.869 249.166 410.814 249.841 414.1L219.552 412.674C221.622 426.642 222.973 440.745 224.278 454.803C222.988 454.773 223.363 455.778 223.333 456.693C217.977 449.237 208.856 469.776 203.455 472.312C203.815 454.698 206.081 433.844 204.4 416.47C202.825 400.057 194.619 383.823 192.099 367.245C189.834 352.362 190.089 336.834 189.264 321.816C185.093 328.492 178.777 334.118 174.127 340.27C174.502 331.448 200.575 299.026 201.58 286.319C201.82 288.764 202.255 291.405 202.525 293.895L202.54 293.925Z" fill="#251C11"/>
<path d="M159.949 632.799C162.949 625.688 149.163 621.862 146.222 623.332C145.022 623.948 142.547 638.08 135.811 639.431C133.786 639.836 134.506 637.57 134.386 637.54C137.521 629.784 138.016 626.918 143.852 621.442C149.478 620.692 153.588 623.227 158.044 620.497C162.874 617.526 166.475 605.374 173.18 602.508C169.73 612.89 166.805 624.263 159.934 632.799H159.949Z" fill="#FFFCFA"/>
<path d="M118.305 568.436C124.006 583.409 116.895 594.797 106.949 605.359C109.379 592.741 108.254 576.823 106.004 564.19L107.894 563.245C109.799 564.686 116.43 568.271 118.305 568.451V568.436Z" fill="#7E5C40"/>
<path d="M158.059 620.497C153.603 623.242 149.493 620.692 143.867 621.442C144.212 621.112 143.327 620.422 142.922 620.017C147.872 615.801 152.778 617.841 158.059 620.497Z" fill="#B08F78"/>
<path d="M177.936 451.052C176.691 453.498 171.936 458.074 170.36 460.984C165.14 470.646 161.974 484.854 153.318 491.275C155.719 475.777 156.709 460.159 160.894 444.901C163.745 434.504 168.815 425.592 172.251 416.035C178.386 413.455 181.762 407.153 185.032 401.842C192.203 421.331 186.727 433.874 177.936 451.067V451.052Z" fill="#DCB59F"/>
<path d="M296.24 295.83C294.035 310.609 292.85 325.492 291.514 340.315C285.109 340.39 279.678 343.225 274.472 337.944C273.302 335.934 283.894 324.846 279.678 324.216C261.691 324.381 231.387 329.257 214.375 326.107C212.44 325.747 203.319 321.921 208.69 320.421C232.648 324.711 256.605 315.965 280.623 323.256C284.599 315.289 289.174 307.683 290.089 298.651C273.992 299.686 257.881 297.091 241.814 297.706C229.197 298.186 215.261 306.903 203.484 296.761C203.469 296.611 202.779 296.101 202.539 293.925C215.591 305.312 231.297 295.815 245.609 294.87C262.546 293.76 279.438 296.596 296.24 295.815V295.83Z" fill="#7C7552"/>
<path d="M268.803 359.248C275.269 360.179 282.064 363.839 289.625 362.084C289.4 364.635 288.68 363.869 288.68 363.974H212.966C210.596 360.779 211.631 356.968 211.076 353.562C229.708 361.754 248.941 356.383 268.818 359.248H268.803Z" fill="#F0E6C8"/>
<path d="M288.68 363.974C288.635 364.5 291.905 372.106 289.625 373.441C288.95 371.161 287.18 371.461 285.364 371.551C274.653 372.031 221.532 373.336 215.321 369.661C213.881 368.805 214.781 364.365 212.006 364.935L212.951 363.989H288.665L288.68 363.974Z" fill="#7C7552"/>
<path d="M289.625 373.441H288.68L251.761 378.167C241.83 376.772 225.808 382.053 214.842 376.277C214.692 375.017 211.571 366.285 212.006 364.92C214.782 364.349 213.867 368.79 215.322 369.646C221.533 373.321 274.654 372.031 285.365 371.536C287.18 371.446 288.95 371.146 289.625 373.426V373.441Z" fill="#F0E6C8"/>
<path d="M266.913 355.453L271.638 356.878L268.803 359.248C248.941 356.398 229.693 361.769 211.061 353.562C210.566 350.517 211.091 349.962 211.061 349.781C222.883 354.763 236.639 350.502 247.5 351.672C254.806 352.467 256.441 355.393 266.898 355.453H266.913Z" fill="#7C7552"/>
<path d="M291.516 340.315C291.306 342.685 290.586 342.1 290.571 342.205C278.794 342.1 268.203 345.896 257.447 350.247L290.571 352.617C290.556 352.932 290.586 353.247 290.571 353.562C283.19 353.952 274.129 355.498 266.913 355.453C256.457 355.393 254.807 352.452 247.516 351.672C236.654 350.502 222.898 354.747 211.076 349.781C210.551 346.286 209.801 341.395 209.186 337.479C226.813 347.381 249.226 347.816 266.928 337.959C247.216 335.228 227.233 340.75 208.241 332.753C206.396 320 204.926 309.663 203.516 296.791C215.292 306.933 229.229 298.216 241.845 297.736C257.912 297.121 274.009 299.716 290.121 298.681C289.206 307.728 284.63 315.319 280.655 323.286C256.637 315.98 232.694 324.741 208.721 320.45C203.351 321.951 212.472 325.777 214.407 326.137C231.419 329.287 261.737 324.396 279.709 324.246C283.925 324.861 273.334 335.964 274.504 337.974C279.709 343.255 285.14 340.42 291.546 340.345L291.516 340.315Z" fill="#F0E6C8"/>
<path d="M209.172 337.479C208.947 336.024 208.467 334.373 208.227 332.753C227.204 340.75 247.201 335.228 266.913 337.959C249.226 347.816 226.799 347.381 209.172 337.479Z" fill="#7C7552"/>
<path d="M245.611 306.243C259.187 305.087 271.204 308.268 283.475 313.819C257.852 306.693 230.714 318.98 206.336 311.449C220.003 313.639 233.504 307.278 245.611 306.243Z" fill="#7C7552"/>
</g>
<defs>
<clipPath id="clip0_2025_7814">
<rect width="601" height="660" fill="white"/>
</clipPath>
</defs>
</svg>
