<svg width="148" height="398" viewBox="0 0 148 398" fill="none" xmlns="http://www.w3.org/2000/svg">
<g clip-path="url(#clip0_2025_7672)">
<path d="M96.2961 299.46C93.8261 304.5 91.7361 312.15 89.8661 317.67C87.6961 324.08 80.3761 344.97 80.7561 350.62C81.2461 357.79 93.4661 364.04 96.8261 370.17C97.7861 369.88 99.8461 354.23 100.576 351.69C100.906 350.53 103.026 348.09 103.256 347.4C103.706 346.04 106.016 335.71 107.006 334.54C108.696 332.55 108.216 335.02 109.686 334.81C116.836 305.53 119.346 279.28 119.326 249.1L112.896 268.65C113.376 282 101.546 288.72 96.2861 299.45L96.2961 299.46Z" fill="#FDE9D5"/>
<path d="M74.3245 332.67C72.0045 342.21 58.9445 364.91 60.3945 372.58C61.1345 376.5 65.8545 378.99 67.8945 381.69C69.4745 383.79 69.7145 387.01 72.4445 389.46C82.5345 398.51 93.4145 392.72 91.4645 379.28C90.8045 374.73 85.9645 371.35 82.3545 368.83L96.8145 370.17C93.4545 364.03 81.2345 357.79 80.7445 350.62C80.3545 344.97 87.6745 324.08 89.8545 317.67C87.9345 315.17 88.1645 311.49 87.7145 308.56C87.5445 307.43 87.4045 306.47 87.1745 305.35C84.8445 314.49 80.6345 325.94 74.3145 332.67H74.3245Z" fill="#D7C3B4"/>
<path d="M107.545 389.46C102.315 392.35 96.3149 388.85 93.0849 384.64C93.4049 389.37 89.8049 393.09 93.8849 394.82C100.945 397.82 105.285 396.91 107.545 389.46Z" fill="#D1CEC7"/>
<path d="M107.544 381.42C108.214 382.57 111.884 389.62 111.834 390.26C111.724 391.61 106.584 394.76 107.814 395.88C111.994 395.88 115.584 399.15 118.794 395.61C119.884 394.42 120.014 392.29 120.404 391.59C109.324 394.11 112.014 379.35 104.604 374.45C103.834 375.03 104.984 379.93 105.404 380.61C106.134 381.79 107.074 380.61 107.544 381.41V381.42Z" fill="#D7C3B4"/>
<path d="M123.075 386.25C123.195 385.68 122.705 384.7 123.615 384.64C122.845 382.68 122.285 377.21 118.795 377.94L123.085 386.24L123.075 386.25Z" fill="#D7C3B4"/>
<path d="M128.705 381.96L131.915 391.07C132.335 387.94 130.395 384.43 128.705 381.96Z" fill="#B7A292"/>
<path d="M-42.4551 177.32C-43.4551 179.42 -44.8351 181.63 -45.6651 183.75C-50.1951 195.24 -51.0451 201.28 -48.3451 213.75H-47.8051C-47.7251 212.65 -46.5751 209.02 -45.9351 207.86C-45.2851 209.69 -45.2551 211.34 -45.1351 213.22C-43.1451 214.91 -44.2951 218.91 -43.5251 221.52C-42.4951 225.03 -39.7351 228.22 -37.3651 230.89L-35.4951 227.41C-36.1351 231.26 -32.9751 235.43 -34.4251 238.93C-31.9451 242.93 -32.1651 246.28 -32.2851 250.72L-25.8551 242.15C-25.9051 241.29 -24.9351 237.65 -25.0551 236.26C-24.8051 238.83 -18.7251 249.79 -15.9451 248.58L-12.4651 235.46C-10.1651 248.45 -7.5051 261.85 0.394897 272.69C1.26489 272.88 1.87489 273.48 3.34489 273.23C3.4549 273.21 4.77489 272.38 5.21489 272.16C8.10489 270.7 5.98489 269.55 8.4249 270.55C9.2249 270.88 21.2749 277.96 22.0849 278.59C24.3449 280.33 24.9649 282.6 26.9049 284.48L29.5849 278.05C34.6749 283.89 39.9349 289.62 41.9049 297.34L57.9749 278.59L58.5149 283.41C74.6149 274.57 89.7549 264.88 97.6249 247.52C98.6549 247.83 95.6849 252.83 97.0849 253.95C98.0149 254.69 102.575 250.32 103.245 252.88C104.535 251.37 106.765 249.72 108.065 248.06C110.885 240.77 121.125 233.53 119.855 223.69C121.725 225.09 120.995 231.5 120.925 234.14C127.595 229.26 133.505 218.16 134.315 210.03C135.345 199.75 128.815 186.1 130.565 177.89C130.975 175.98 131.275 175.3 132.175 173.6C132.305 173.35 131.865 172.49 132.715 172.53C131.985 171.32 131.435 168.5 130.035 167.98C131.475 173.24 129.265 180.95 125.215 184.32C125.215 184.5 125.215 184.68 125.215 184.86C125.025 194.58 123.515 204.13 119.325 212.98L118.255 213.52L116.385 209.5C114.755 211.99 102.635 230.03 101.385 229.86C100.265 229.7 100.665 225.35 99.7749 224.5C98.9849 224.26 96.7649 232.87 96.0249 226.11L91.4749 236.02C89.4049 237.45 89.2149 227.86 87.4549 238.43L85.3149 230.39L68.7049 254.5L68.1649 244.32C61.6749 256.64 48.4749 261.11 40.3049 271.64C39.9749 261.84 33.9249 256.9 27.9849 250.21L27.4449 257.17C20.0349 250.29 12.0249 244.69 7.62489 235.21C6.4549 235.93 8.7149 246.73 6.5549 245.39C5.4249 244.69 -2.95511 224.56 -6.03511 222.09L-6.3051 231.46L-22.9151 208.42C-24.1051 209.33 -21.4351 220.39 -24.2551 217.26C-30.3451 210.5 -33.1751 191.08 -32.8251 182.71C-33.8951 183.6 -34.0451 182.58 -34.4351 181.91C-37.0151 177.34 -38.2151 171.81 -37.3851 166.64C-39.8451 169.86 -40.7551 173.75 -42.4751 177.35L-42.4551 177.32Z" fill="#7E5C40"/>
<path d="M-11.9141 30C-13.4541 30.89 -15.1041 31.37 -16.2041 32.95C-14.4941 33.38 -12.9741 34.12 -11.3841 34.82C-8.48406 29.26 17.8659 35.92 6.82593 27.59C8.64593 25.22 26.3559 37.12 30.3959 36.43C27.9459 32.53 26.3659 28.64 22.6259 25.18L39.2359 35.89L37.6259 23.03L44.0559 36.96C43.6159 31.46 43.6459 27 46.1959 21.96C48.4559 26.28 49.0759 31.08 49.4059 35.89L56.3659 24.1L53.6859 35.89L69.7559 25.18C67.3259 29.1 64.2859 32.36 61.9859 36.43C71.5259 36.86 77.5959 24.82 86.6259 27.59C72.8359 36.14 100.116 29.25 103.766 34.29C105.266 33.63 107.726 34.54 108.586 32.42C108.546 32.14 104.426 29.84 103.766 29.47C102.836 28.95 101.956 27.96 100.286 27.33C97.6559 26.34 92.9859 26.34 90.1059 25.19C93.7659 23.59 97.3559 24.54 101.086 24.92C94.0659 19.31 84.6759 19.33 76.1759 20.37C79.1459 17.04 85.2659 17.98 87.9659 15.55C78.0459 13.63 68.9759 16.18 61.1759 22.51L72.9659 8.05002C65.3659 10.34 57.9659 13.88 52.6059 19.84L56.0859 1.36002L48.8559 17.7C50.2459 10.02 47.9359 3.77002 40.8159 0.0200195C43.5959 5.61002 46.3459 11.7 45.6359 18.23C43.4259 12.73 40.6259 7.03002 35.4559 3.77002L40.8159 19.31C35.0759 15.1 29.4259 10.46 22.0659 9.67002L31.7059 23.06C24.3859 17.86 14.4159 12.24 5.45593 16.63C9.27593 17.72 13.6659 18.22 16.7059 20.92C7.84593 19.28 -1.90406 19.66 -9.27406 25.47C-9.10406 26.01 0.355934 23.62 1.70593 26.27C-3.38406 26.77 -7.61407 27.49 -11.9541 30.02L-11.9141 30Z" fill="#FDE9D5"/>
<path d="M103.795 29.46C104.455 29.83 108.585 32.13 108.615 32.41C107.755 34.54 105.285 33.63 103.795 34.28C99.4851 36.17 94.5751 39.33 91.4751 42.85C89.2351 45.39 86.5451 48.36 86.6551 51.96C88.7251 55.38 87.0651 61.04 90.9451 64.01L89.8751 65.35C91.4551 66.02 93.3451 66.96 94.6951 68.03C85.5151 55.14 90.1651 47.19 102.735 40.17C115.085 33.28 124.215 35.27 128.445 49.54C128.785 50.7 130.325 57.04 128.445 57.31C128.595 64.55 115.885 70.13 118.265 60.52C115.905 64.17 115.685 65.79 115.585 70.16L124.155 71.77C129.925 61.79 135.065 58.74 130.045 45.25C125.695 33.54 119.195 35.3 110.495 32.66C109.415 32.33 106.245 28.53 103.795 29.45V29.46Z" fill="#FDE9D5"/>
<path d="M-37.0952 61.61C-37.3452 60.52 -38.9752 51.95 -36.0252 53.57C-34.2252 37.34 -23.6252 33.09 -9.77519 40.18C-7.53519 41.33 -4.36519 43.3 -2.54519 45C-0.825192 46.6 3.84481 54.17 4.41481 54.11C4.54481 54.1 4.66481 53.05 5.75481 52.5C6.43481 48.53 4.50481 46.18 2.00481 43.39C-1.56519 39.42 -6.69519 36.9 -11.3852 34.82C-12.9752 34.11 -14.4952 33.37 -16.2052 32.95C-15.1152 31.37 -13.4552 30.9 -11.9152 30C-14.8852 28.72 -16.8752 32.82 -18.0752 33.21C-24.4152 35.28 -27.8752 32.09 -33.8752 39.91C-37.6852 44.86 -40.9752 56.3 -37.0852 61.61H-37.0952Z" fill="#FDF8E9"/>
<path d="M108.075 248.03C106.705 251.58 106.025 256.05 106.735 259.82C110.075 252.01 114.985 247.17 118.785 239.46C119.295 238.42 121.915 236.07 121.995 235.44C122.145 234.28 120.905 234.91 120.925 234.1C120.995 231.47 121.725 225.05 119.855 223.65C121.125 233.5 110.885 240.74 108.065 248.02L108.075 248.03Z" fill="#15120F"/>
<path d="M130.575 177.86C132.545 180.44 133.985 183.54 135.395 186.43C137.365 190.47 139.045 194.7 141.015 198.75C146.215 188.81 136.735 181.54 132.175 173.57C131.275 175.26 130.975 175.94 130.565 177.86H130.575Z" fill="#7E5C40"/>
<path d="M134.325 210C137.965 202.39 135.665 194.37 135.395 186.43C133.985 183.53 132.545 180.44 130.575 177.86C128.825 186.07 135.355 199.72 134.325 210Z" fill="#7E5C40"/>
<path d="M115.575 70.1801C115.525 72.5401 115.545 74.8401 116.115 77.1401C120.955 78.8401 119.165 73.4201 122.005 75.0001C122.305 73.8201 123.555 72.8101 124.145 71.7901L115.575 70.1801Z" fill="#FDE9D5"/>
<path d="M-18.3446 320.89C-18.3646 326.56 -18.3046 332.17 -17.2746 337.76L-21.5646 334.01L-23.7046 350.08L-26.6546 347.13L-32.8146 367.49C-30.6046 367.62 -12.0946 368.13 -11.9246 369.36C-18.2546 371.06 -20.5146 386.59 -22.3746 387.84C-27.7346 391.45 -32.1246 381.66 -30.4146 377.13C-32.6646 377.55 -32.4746 380.52 -32.8246 382.49C-30.6846 384.73 -31.4246 394.82 -28.2746 395.88C-26.8346 396.37 -11.9946 395.65 -11.1346 394.81C-13.0246 388.34 -17.2546 380.1 -13.0046 373.92C-12.4446 373.1 -7.50463 368.56 -6.04463 369.9C-10.7546 377.84 -10.1846 386.19 -7.11463 394.27C-4.48463 395.03 0.275381 392.95 2.52538 396.14L3.59537 395.6C4.47537 388 7.71537 382.3 5.46537 374.44C6.73537 373.65 14.0554 375.16 15.6454 374.98C16.2354 374.91 16.6354 372.95 17.2554 372.84C17.4554 372.8 19.5254 374.65 20.7354 374.98C21.2754 373.76 20.9854 370.82 20.7354 369.62C19.1554 369.51 17.4854 369.78 15.9154 369.62C12.7154 368.75 5.40538 372.05 3.05538 369.89C-0.574619 366.54 -5.27462 335.91 -6.05462 329.44C-6.71462 323.91 -7.63462 318.44 -7.66462 312.83C-7.71462 302.89 -6.05463 294.03 -4.45463 284.44C-7.13463 288.04 -9.20463 295.52 -10.3446 300.24C-11.1746 303.68 -13.2546 321.97 -14.0946 322.74C-15.4346 323.96 -18.4446 322.92 -18.3846 320.87L-18.3446 320.89Z" fill="#D7C3B4"/>
<path d="M5.22539 272.14L-7.63461 312.85C-7.60461 318.46 -6.6846 323.93 -6.0246 329.46C10.5354 323.93 7.93539 300.6 21.2954 291.69L20.7554 297.85C21.8254 295.27 27.1854 290.51 26.1154 286.33C25.7954 285.07 8.17538 276.21 8.43538 270.53C5.99538 269.52 8.11539 270.68 5.22539 272.14Z" fill="#BD8C64"/>
<path d="M-6.02531 329.46C-5.25531 335.93 -0.555305 366.55 3.08469 369.91C5.43469 372.08 12.7447 368.78 15.9447 369.64C3.81469 368.41 1.73469 359.94 1.48469 349.02C4.94469 351.83 7.18468 356.96 10.8547 359.47C12.2247 360.41 15.6247 361.01 16.4747 361.61C14.3947 358.29 14.4747 360.87 12.7247 355.72C6.21469 336.59 13.2247 316.01 20.7647 297.86L21.3047 291.7C7.94469 300.61 10.5447 323.93 -6.01531 329.47L-6.02531 329.46Z" fill="#D0A27B"/>
<path d="M74.3256 332.67C80.6456 325.94 84.8555 314.49 87.1855 305.35C84.9255 293.87 81.6356 285.55 70.5756 279.64L69.5056 280.44C73.7056 296.67 78.3356 316.19 74.3256 332.67Z" fill="#D0A27B"/>
<path d="M16.4752 361.6C20.4852 364.4 24.5252 367.77 26.6552 372.31C27.1952 362.7 19.9452 359.57 12.7252 355.7C14.4752 360.86 14.3952 358.27 16.4752 361.59V361.6Z" fill="#D7C3B4"/>
<path d="M16.4742 361.6C18.2842 364.49 20.0141 366.02 20.7641 369.64C21.0141 370.84 21.3041 373.78 20.7641 375C23.1441 375.66 25.5641 376.15 27.9941 376.61C28.3441 376.43 26.8441 372.72 26.6541 372.32C24.5241 367.78 20.4842 364.41 16.4742 361.61V361.6Z" fill="#D0A27B"/>
<path d="M87.7249 308.57C88.1749 311.5 87.9549 315.18 89.8649 317.68C91.7349 312.16 93.8249 304.51 96.2949 299.47V289.02L87.7249 308.57Z" fill="#D0A27B"/>
<path d="M55.0455 53.57C57.2455 53.57 59.6855 54.63 61.2055 54.64C61.6855 54.64 61.2655 53.03 61.7455 53.03C63.5355 53.05 71.5055 55.29 72.9955 56.24C73.8955 56.82 79.1055 64.03 79.1555 64.54C79.2555 65.47 76.6855 67.56 78.0855 69.9C79.1555 71.7 84.6955 74.27 86.1255 76.86C88.1655 80.58 86.9455 85.82 90.4155 88.91C94.2955 90.16 95.6555 86.78 95.7755 90.25C95.8355 92.1 92.3755 105.1 89.3455 101.77C88.9755 105.27 83.2955 108.4 81.8455 111.14C79.9755 114.69 80.8555 118.17 79.4355 121.59C74.0555 119.18 69.1855 112.14 72.2055 106.32C73.2855 104.24 76.9755 104.38 78.3655 103.37C81.8855 100.82 82.7955 97.44 84.5255 93.73C84.7855 93.18 85.2155 92.83 85.0655 92.12C83.7055 92.15 82.7755 91.55 82.6555 91.58C80.7155 92.15 79.6355 98.2001 77.2955 99.62C73.2555 102.08 67.6855 98.46 65.7755 104.44C65.9155 104.33 67.0655 105.5 68.1855 102.83C72.3555 105.66 69.1855 110.74 68.9855 114.88C66.5755 113.65 63.4255 109.82 63.0955 107.11C62.7655 104.4 66.1955 92.23 67.9155 90.24C71.2355 86.4 76.3755 88.27 80.7755 88.9C79.7955 88.47 79.7855 87.35 79.7055 87.29C72.8955 82.86 63.8055 89.98 56.9355 84.61C58.7155 87.78 50.7655 89.81 49.4355 89.43C46.6355 88.63 47.4555 78.66 46.2255 78.72C44.9455 81.97 42.2955 84.68 43.5455 88.36C42.8455 88.77 37.3855 85.69 35.5055 85.68C32.9455 85.66 27.1855 89.03 25.5955 88.89C25.0655 88.85 24.5055 88.74 24.5255 89.43C26.2855 91.24 29.7355 104.21 29.3455 107.11C28.8955 110.44 26.5155 112.07 24.7955 114.61C22.6255 113.75 23.7655 112.48 23.4555 110.86L21.3155 113.54C20.2755 117.28 16.8655 119.73 14.0855 122.11C13.8255 112.76 12.7355 112.43 6.85548 106.57C6.72548 106.44 5.08549 106.16 3.64548 104.7C-1.23451 99.76 -0.624519 93.26 -2.78452 87.02C-1.54453 88.15 -1.53452 88.76 0.425484 88.89C2.98548 82.19 6.91548 73.19 13.8155 69.87C14.3755 67.05 12.8955 67.29 10.6055 67.46C10.3055 67.48 8.31548 68.42 7.39548 68.53L-4.92452 82.46C-5.06452 83.13 -5.29452 83.69 -5.46452 84.6C-6.73451 91.7 -6.15453 94.22 -6.53452 100.67C-6.80452 105.21 -8.90451 107.6 -10.2845 111.92C-10.5945 112.9 -11.5545 113.69 -11.3545 114.87L-9.74451 114.07C-9.52451 113.37 -7.12451 109.68 -5.99451 109.52C-5.63451 125.08 4.76549 135.2 12.7555 147.29C15.4155 145.76 14.0455 140.8 14.8955 137.92C18.5055 125.65 34.7455 104.55 48.9155 106.58C60.9455 108.3 81.0855 133.48 78.6455 146.49C79.0755 147.38 79.8655 147.11 80.2555 147.29C87.0455 135.02 99.7655 125.14 99.0055 109.52C100.055 107.4 102.665 118.48 102.755 119.97C108.145 126.08 107.975 136.23 110.795 143.81C108.355 142.54 100.295 138.19 100.085 135.51L99.2855 134.44C98.7255 134.78 99.1755 135.85 99.0155 136.05C103.675 140.65 108.775 148.03 107.585 154.8V155.34C107.655 155.36 107.715 156.14 108.655 156.41C109.325 156.6 112.675 156.25 114.015 157.48C113.955 156.27 114.265 154.85 113.745 153.73L114.815 153.19L119.105 158.55L120.975 158.28C122.105 156.6 118.935 138.47 118.295 135.24C118.225 134.89 119.445 135.05 119.365 134.7C119.255 134.21 117.795 133.46 117.755 133.36C109.375 129.45 105.605 123.32 102.755 114.88C102.445 113.97 103.035 111.9 102.755 110.86C101.435 105.91 100.665 106.84 100.075 100.68C99.5255 94.94 100.185 87.42 97.3955 81.93C95.4555 78.11 88.1755 72.92 85.6055 69.07C81.0755 68.6 83.7555 66.58 82.9255 64.52C77.9155 51.98 67.4255 48.25 55.0655 53.54L55.0455 53.57Z" fill="#F4D5B9"/>
<path d="M-32.8154 182.68C-33.1654 191.06 -30.3354 210.47 -24.2454 217.23C-21.4254 220.36 -24.0954 209.3 -22.9054 208.39L-6.29539 231.43L-6.02539 222.06C-2.94539 224.53 5.43461 244.67 6.56461 245.36C8.72461 246.7 6.4646 235.9 7.6346 235.18C12.0346 244.67 20.0446 250.27 27.4546 257.14L27.9946 250.18C33.9446 256.87 39.9946 261.81 40.3146 271.61C48.4846 261.08 61.6846 256.6 68.1746 244.29L68.7146 254.47L85.3246 230.36L87.4646 238.4C89.2246 227.83 89.4146 237.42 91.4846 235.99L96.0346 226.08C96.7746 232.84 98.9946 224.24 99.7846 224.47C100.675 225.32 100.265 229.67 101.395 229.83C102.645 230 114.765 211.97 116.395 209.47L118.265 213.49L119.335 212.95C123.525 204.1 125.035 194.54 125.225 184.83C124.695 184.58 124.285 182.98 123.615 184.56C122.245 187.81 122.705 192.49 120.405 196.88C118.785 199.96 112.735 205.98 109.955 208.4C108.175 209.95 101.365 216.25 100.045 214.56C100.475 210.83 98.7446 213.4 98.4346 211.08C98.0546 208.21 98.7146 204.67 98.4346 201.71C97.5446 202.97 96.5446 204.41 95.7546 205.73C90.2846 214.87 84.6046 218.94 77.0046 226.09C67.6946 234.84 63.7246 237.62 55.5746 247.79C54.6546 248.94 52.8946 248.29 51.2846 250.47C50.1546 252 45.5046 262.77 44.0546 262.52C42.6146 260.79 42.5846 258.3 41.6446 256.36C41.3646 255.79 40.3046 256.39 40.0346 255.82C39.3346 254.33 35.1046 235.96 33.8746 246.45L20.2146 227.97C18.1046 226.87 19.0846 228.91 17.8046 229.84C17.2346 228.4 15.3846 226.92 14.8546 225.55C10.6546 221.5 6.03461 218.03 2.53461 213.23C-1.77539 210.1 -3.7854 205.12 -5.7654 200.37V210.55L-19.1554 195.01L-21.0254 199.56L-30.3954 171.97C-32.4854 175.34 -32.6454 178.83 -32.8054 182.68H-32.8154Z" fill="#45311F"/>
<path d="M80.2253 184.28C77.6153 186.62 79.9353 192.23 79.6853 195.26L75.3953 185.08C76.3753 194.05 72.6953 203.78 66.8253 210.26C66.3253 209.83 67.3953 199.35 67.3653 197.94C67.3453 197.05 67.5253 196.1 66.2953 196.87L45.1353 232.49C35.2553 222.08 27.2653 210.19 26.6553 195.26L24.5153 210.26C20.4453 201.24 15.8853 193.2 19.1553 182.94C15.4053 186.32 15.0653 191.9 14.6053 196.6L12.7353 187.49C11.7753 191.45 11.8253 196.53 9.78529 200.35C7.56528 192.25 4.60529 186.24 3.08529 177.85L0.94529 172.23C-0.364708 177.3 -2.35471 182.5 -2.80471 187.77C-3.67471 197.85 -3.32471 205.15 2.55529 213.22C6.05529 218.02 10.6753 221.49 14.8753 225.54C13.5053 221.99 13.6153 217 14.0753 213.22L46.2153 248.04L78.3553 213.22C80.5353 217.29 78.5653 222.26 77.0153 226.08C84.6153 218.93 90.2953 214.86 95.7653 205.72L92.5553 167.42L95.2353 177.6C97.9753 183.52 103.765 188.46 104.605 195.01C104.955 195.22 106.975 191.22 107.015 190.99C107.185 190.1 107.205 174.68 107.015 173.85C106.675 172.34 95.1253 164.51 93.0853 163.4C93.9653 166.68 90.7553 165.77 90.4053 166.35C89.8853 167.2 89.2653 182.5 88.2653 186.17C87.1253 190.33 83.7653 194.87 82.3753 199.03C81.3053 199.25 80.8453 195.28 80.7653 194.74C80.2653 191.51 80.7353 187.07 80.2253 184.29V184.28Z" fill="#DAB79C"/>
<path d="M30.4053 36.43C31.8553 38.74 34.0753 40.92 34.9553 43.39C25.1753 37.13 12.4353 40.03 2.00531 43.39C4.50531 46.18 6.43531 48.53 5.75531 52.5C7.44531 51.65 8.39531 50.19 10.3053 49.82C9.40531 51.95 9.71531 54.07 9.50531 56.25C12.3253 54.88 12.1953 51.14 15.1253 49.29C20.1253 46.12 32.1853 47.1 23.4253 51.43C23.7953 52.68 24.8253 52.6 25.8353 52.5C31.6153 51.92 32.9153 49.98 38.9553 53.04C43.6453 55.41 45.5553 60.38 45.3853 65.36C46.8353 64.98 46.7953 61.4 48.0653 59.74C48.8953 58.65 52.9653 54.36 53.9553 53.58C59.5753 49.16 59.5853 51.72 64.9353 50.37C67.0053 49.85 65.3353 48.29 66.5453 47.69C72.4553 44.74 81.7553 50.79 83.4153 56.8C83.0653 54.73 83.7853 52.09 82.3453 50.1L83.4153 49.56C83.5353 50.6 86.5253 51.8 86.6253 51.97C86.5153 48.38 89.2053 45.41 91.4453 42.86C80.7853 40.56 69.4453 37.19 59.0353 42.32C59.4353 40.38 60.9653 38.22 61.9853 36.43C64.2753 32.37 67.3153 29.1 69.7553 25.18L53.6853 35.89L56.3653 24.1L49.4053 35.89C49.0653 31.08 48.4553 26.29 46.1953 21.96C43.6453 27 43.6153 31.46 44.0553 36.96L37.6253 23.03L39.2353 35.89L22.6253 25.18C26.3653 28.64 27.9453 32.53 30.3953 36.43H30.4053Z" fill="#A88368"/>
<path d="M97.3658 81.96C100.146 87.45 99.4958 94.97 100.046 100.71C102.486 101.2 109.766 113.49 108.346 114.1C106.966 111.86 105.606 110.47 102.726 110.89C103.006 111.92 102.416 113.99 102.726 114.91C105.576 123.35 109.346 129.48 117.726 133.39C117.036 131.34 108.356 112.57 109.956 111.96C112.066 116.81 116.296 120.97 122.006 118.12C112.326 118.64 113.346 106.97 109.956 100.71C113.456 105.69 115.976 111.63 120.936 115.44L115.576 102.32C115.046 101.82 114.676 100.85 113.966 100.45C114.406 99.59 122.836 103.98 124.676 102.32C121.006 99.3 115.616 97.27 111.556 94.28C107.496 91.29 104.806 87.38 100.576 84.91L115.036 85.45C107.606 83.12 101.856 78.9 96.8258 73.13C96.8958 71.34 98.2758 74.02 98.4358 73.13C98.6058 72.16 97.4258 71.89 97.3658 71.79C95.0458 70.5 92.4958 69.08 89.8658 68.58C94.0958 71.38 98.7958 76.78 97.3658 81.97V81.96Z" fill="#987D5A"/>
<path d="M-0.13414 163.93C-0.0341415 165.2 -0.704147 166.88 0.935852 166.61C1.11585 166.39 0.43586 164.29 2.00586 165.27C1.86586 169.49 2.33585 173.73 3.07585 177.86C4.59585 186.25 7.55586 192.26 9.77586 200.36C11.8059 196.54 11.7659 191.46 12.7259 187.5C14.1959 181.42 14.8159 177.33 18.6159 171.96C19.2059 169.82 20.6959 165.27 23.4359 166.6C26.2359 164.91 27.6259 165.64 29.8659 164.99C30.5359 164.8 31.2859 164.65 32.0059 164.45V163.91C21.9559 165.71 21.6859 158.61 17.5459 156.95C15.3059 156.05 2.92586 162.3 -0.13414 163.91V163.93Z" fill="#987D5A"/>
<path d="M74.3244 157.5C72.0444 159.68 70.3444 162.45 67.3644 163.93C74.2944 165.03 75.5244 170.17 77.0044 176.25C78.5444 178.77 79.6744 181.32 80.2144 184.29C80.7244 187.07 80.2544 191.51 80.7544 194.74C80.8344 195.27 81.2944 199.25 82.3644 199.03C83.7644 194.88 87.1144 190.33 88.2544 186.17C89.2644 182.5 89.8744 167.2 90.3944 166.35C90.7444 165.78 93.9544 166.68 93.0744 163.4C91.9744 162.8 90.9844 162.34 89.8644 161.79C85.3344 159.58 80.1544 158.79 75.9344 155.9C75.2844 156.45 74.9144 156.95 74.3244 157.51V157.5Z" fill="#987D5A"/>
<path d="M-9.77539 114.11C-9.97539 114.75 -10.3854 121.47 -10.3154 122.41C-10.0654 125.52 -7.25539 131.78 -7.63539 135C-6.63539 133.32 -6.6854 135.37 -6.5654 135.54C-2.9854 140.37 2.2746 142.77 6.2946 147.06L4.1546 148.93C6.9746 148.17 9.88461 147.95 12.7246 147.32C4.73461 135.23 -5.66539 125.11 -6.02539 109.55C-7.15539 109.71 -9.55539 113.41 -9.77539 114.1V114.11Z" fill="#6B4F25"/>
<path d="M98.4358 211.07C98.7458 213.39 100.476 210.83 100.046 214.55C101.366 216.24 108.176 209.94 109.956 208.39C112.726 205.98 118.786 199.96 120.406 196.87C122.706 192.48 122.246 187.8 123.616 184.55C124.286 182.96 124.696 184.57 125.226 184.82C125.226 184.64 125.226 184.46 125.226 184.28C125.246 180.64 126.506 176.3 123.086 173.3C120.476 182.52 118.416 192.15 112.906 200.09C110.466 200.21 112.926 195.35 112.106 195L98.4458 211.07H98.4358Z" fill="#2E2013"/>
<path d="M0.935547 166.61C-0.704453 166.89 -0.0344452 165.2 -0.134445 163.93C-0.274445 164 -0.534454 163.86 -0.674454 163.93C-2.89445 165.12 -14.2244 172.11 -14.6044 173.84C-15.3644 177.33 -14.0644 189.72 -12.9944 193.66C-10.0144 189.96 -5.83444 183.95 -3.88445 179.73C-1.93445 175.51 -1.49445 169.52 0.935547 166.61Z" fill="#F4D5B9"/>
<path d="M-15.1351 155.36C-8.54507 152.44 -2.76508 150.79 4.15492 148.93L6.29492 147.06C2.27492 142.77 -2.98508 140.37 -6.56508 135.54C-7.86508 136.19 -8.09508 140.12 -8.70508 140.63C-9.61508 141.38 -10.1751 139.92 -10.5751 140.36C-14.1051 144.22 -15.1251 150.11 -15.1251 155.36H-15.1351Z" fill="#987D5A"/>
<path d="M53.975 53.57H55.045C67.395 48.28 77.885 52.01 82.905 64.55C83.725 66.61 81.055 68.63 85.585 69.1C86.505 69.2 88.135 68.23 89.875 68.56C92.505 69.06 95.055 70.49 97.375 71.77C96.635 70.55 95.835 68.92 94.695 68.02C93.345 66.95 91.445 66.02 89.875 65.34C88.735 64.85 87.045 66.15 85.585 64.54C85.315 64.24 83.605 57.73 83.445 56.77C81.775 50.76 72.475 44.71 66.575 47.66C65.375 48.26 67.045 49.81 64.965 50.34C59.615 51.69 59.605 49.13 53.985 53.55L53.975 53.57Z" fill="#6B4F25"/>
<path d="M102.725 40.18C103.495 41.46 104.135 42.5 105.405 43.39C112.155 40.98 118.095 42.34 123.085 47.14C125.135 49.11 125.165 49.47 126.295 51.96C126.935 53.37 128.405 55.72 128.435 57.32C130.315 57.06 128.775 50.71 128.435 49.55C124.205 35.27 115.075 33.28 102.725 40.18Z" fill="#F4D5B9"/>
<path d="M9.5051 56.25C9.3851 57.49 8.2551 65.26 7.8951 65.62C7.3851 66.14 -3.10491 65.21 -4.42491 71.24C-0.954906 69.13 3.5851 69.01 7.3651 68.56C8.2851 68.45 10.2851 67.51 10.5751 67.49C12.0551 62.29 13.3351 55.88 18.3451 53.03C19.6951 52.26 22.0951 52.09 23.4351 51.42C32.1851 47.09 20.1351 46.11 15.1351 49.28C12.2051 51.14 12.3251 54.88 9.5151 56.24L9.5051 56.25Z" fill="#6B4F25"/>
<path d="M-5.49562 74.46C-10.6356 77.85 -15.3356 84.94 -23.1756 85.98L-8.71563 85.18C-8.56563 84.98 -8.95562 83.56 -8.44562 83.57L-5.49562 84.64C-5.33562 83.73 -5.10563 83.17 -4.95563 82.5C-4.73563 81.47 -5.24563 79.54 -4.95563 78.48C-4.66563 77.42 1.11438 70.11 -5.49562 74.46Z" fill="#987D5A"/>
<path d="M-4.41499 71.2499C-5.83499 72.1099 -8.655 74.3099 -5.485 74.4599C1.115 70.1099 -4.65499 77.41 -4.94499 78.4799C-5.23499 79.5499 -4.72499 81.4699 -4.94499 82.4999L7.375 68.5699C3.595 69.0199 -0.934994 69.1299 -4.41499 71.2499Z" fill="#8B6F4A"/>
<path d="M95.2252 155.89C99.2952 157.7 103.205 159.55 106.745 162.32L108.615 156.96V156.42C107.675 156.15 107.615 155.37 107.545 155.35C104.365 154.39 101.105 152.85 98.4352 152.14C95.8952 152.88 96.0852 153.56 95.2252 155.89Z" fill="#DAB79C"/>
<path d="M105.404 43.39C107.414 44.8 110.084 45.73 112.364 46.6C116.164 48.05 119.754 50.59 123.074 47.14C118.084 42.34 112.154 40.98 105.394 43.39H105.404Z" fill="#987D5A"/>
<path d="M79.1555 150C84.8155 151.12 90.0155 153.57 95.2255 155.89C96.0955 153.56 95.9055 152.88 98.4355 152.14C94.5655 151.1 88.5755 149.37 84.7755 148.93C83.8455 148.82 79.2455 148.27 79.1555 150Z" fill="#795D35"/>
<path d="M108.616 156.43V156.97C107.806 162.33 109.636 165.41 115.046 165.27C115.406 164.69 114.026 158.61 113.976 157.5C112.636 156.27 109.286 156.62 108.616 156.43Z" fill="#FDE9D5"/>
<path d="M80.2249 147.32C79.8249 148.04 79.0549 147.93 78.6149 148.66L79.1549 150C79.2449 148.27 83.8449 148.82 84.7749 148.93C88.5749 149.38 94.5749 151.11 98.4349 152.14C101.105 152.86 104.355 154.4 107.545 155.35V154.81C100.995 151.34 93.7249 150.14 86.6549 148.38C85.0649 147.98 81.1249 147.72 80.2249 147.31V147.32Z" fill="#FFFCFA"/>
<path d="M94.6849 68.0301C95.8149 68.9301 96.6249 70.5601 97.3649 71.7801C97.4249 71.8801 98.6149 72.1501 98.4349 73.1201C98.2749 74.0101 96.8949 71.3301 96.8249 73.1201C101.865 78.8901 107.615 83.1101 115.035 85.4401L100.575 84.9001C104.815 87.3701 107.665 91.41 111.555 94.2701C115.445 97.1301 121.005 99.2901 124.675 102.31C128.525 105.48 129.995 109.6 133.785 112.76C128.475 114.34 125.795 108.21 122.265 105.53C120.865 104.47 116.985 103.64 115.565 102.32L120.925 115.44C115.965 111.63 113.445 105.69 109.945 100.71C113.335 106.97 112.325 118.64 121.995 118.12C116.285 120.97 112.045 116.81 109.945 111.96C108.345 112.57 117.025 131.34 117.715 133.39C117.745 133.49 119.215 134.24 119.325 134.73C119.395 135.08 118.185 134.92 118.255 135.27C118.885 138.5 122.065 156.63 120.935 158.31L119.065 158.58L114.775 153.22L113.705 153.76C114.225 154.88 113.915 156.3 113.975 157.51C114.025 158.62 115.415 164.7 115.045 165.28C109.635 165.42 107.805 162.34 108.615 156.98L106.745 162.34C103.215 159.57 99.2949 157.73 95.2249 155.91C90.0149 153.59 84.8149 151.14 79.1549 150.02L78.6149 148.68C79.0549 147.96 79.8249 148.06 80.2249 147.34C79.8349 147.16 79.0449 147.43 78.6149 146.54C81.0449 133.53 60.9149 108.35 48.8849 106.63C34.7149 104.6 18.4749 125.7 14.8649 137.97C14.0149 140.85 15.3849 145.82 12.7249 147.34C9.88492 147.97 6.97491 148.19 4.15491 148.95C-2.76509 150.81 -8.54509 152.46 -15.1351 155.38C-15.9051 155.72 -17.6751 156.08 -18.3451 156.45C-17.8751 157.45 -16.4651 156.69 -15.6651 157.52C-15.2951 155.56 -10.8951 154.46 -8.96509 153.77C-8.69508 153.67 -8.8551 155.19 -7.8951 154.84C-6.67509 154.4 -7.23509 153.14 -3.87509 152.16C1.81491 150.5 7.73491 148.4 13.8049 149.21C8.50491 151.59 3.05492 153.57 -2.26509 155.91C-6.40509 157.72 -11.0851 160.76 -15.1251 161.27C-15.8651 163.38 -19.9951 163.78 -21.2851 165.56C-22.8251 165.13 -22.2051 158.84 -21.0151 157.52L-21.8151 154.31C-23.9251 155.93 -25.4951 159.68 -28.5151 158.33C-27.2551 152.54 -27.7151 138.42 -24.2251 133.96L-26.3651 134.76C-25.5651 134.27 -25.5751 132.9 -25.2951 132.35C-27.0851 133.87 -27.1951 130.94 -27.4351 129.94C-27.8851 128.07 -29.5951 119.93 -29.0451 118.69C-28.4451 117.34 -25.8951 118.07 -24.7551 117.89C-19.4751 114.26 -20.8151 106.31 -16.7151 101.55L-27.6951 114.67C-26.1751 111.07 -24.8751 106.89 -23.1451 103.42C-30.3951 103.17 -32.0351 111.27 -37.8751 112.53L-38.4151 111.46C-35.6451 107.74 -34.2951 105.37 -30.6451 102.35C-23.7551 96.6501 -14.1551 92.7301 -8.68509 85.2101L-23.1451 86.0101C-15.3051 84.9701 -10.6051 77.8801 -5.46509 74.4901C-8.63509 74.34 -5.8051 72.1401 -4.3951 71.2801C-3.07509 65.2401 7.42491 66.1701 7.92491 65.6601C8.28491 65.2901 9.40491 57.5301 9.53491 56.2901C9.75491 54.1101 9.43492 51.9901 10.3349 49.8601C8.42491 50.2301 7.47491 51.6901 5.78491 52.5401C4.69492 53.0901 4.57492 54.1301 4.44492 54.1501C3.87491 54.2101 -0.805084 46.6401 -2.51509 45.0401C-4.34509 43.3401 -7.50508 41.3701 -9.74509 40.2201C-10.7751 41.4501 -10.5751 42.3601 -11.8851 43.4301C-13.6651 44.8801 -17.1351 45.0901 -19.3851 47.1801C-19.7651 47.5301 -21.3651 49.2001 -20.7251 49.8601C-19.0051 47.0501 -13.0151 47.0101 -10.5451 48.7901C-9.88509 49.2701 -7.0851 55.0001 -7.06509 55.4901C-6.90509 58.5001 -17.7951 74.9001 -21.7951 76.6501C-22.7351 69.3201 -21.3251 64.9601 -26.3451 58.9701L-24.7351 64.59C-30.3551 66.6201 -35.4451 63.7101 -34.9151 57.3601C-37.7751 57.7701 -36.1651 55.2201 -35.9851 53.6101C-38.9451 51.9901 -37.3051 60.5601 -37.0551 61.6501C-36.0251 66.1501 -27.8851 73.7001 -29.0151 77.9901C-29.2651 78.9401 -43.2151 86.3201 -43.4751 90.8501C-42.0651 91.0501 -34.6951 84.57 -33.8351 86.5601C-39.6651 91.18 -42.1551 97.9601 -45.6251 104.24C-45.8751 107.06 -38.5651 98.1301 -37.5851 101.03C-42.3651 103.43 -43.7751 116.52 -46.1551 118.71C-47.3751 119.83 -64.4451 121.18 -68.3851 122.19C-71.6751 123.03 -89.2451 130.67 -90.0851 133.17C-90.5351 134.53 -89.4651 136.55 -89.5451 136.92C-89.6451 137.35 -94.9351 141.57 -95.9751 142.81C-102.915 151.11 -105.065 154.09 -108.835 163.97C-109.655 166.12 -110.515 168.36 -112.045 170.13H-109.365C-109.405 173.96 -110.625 177.49 -111.505 181.11C-110.175 190.31 -111.445 199.74 -110.965 208.97C-109.745 232.8 -108.385 264.76 -110.425 288.52C-111.545 301.59 -117.905 310.63 -116.855 324.41C-116.815 324.93 -115.265 327.45 -115.245 327.62C-114.325 338.4 -117.385 353.39 -116.855 364.58C-114.815 369.16 -111.025 371.06 -106.145 371.28C-106.315 371.23 -106.165 369.73 -108.825 369.94C-110.745 355.62 -103.685 343.48 -103.465 329.49C-103.175 310.96 -106.175 306.06 -102.395 285.83C-101.795 282.62 -102.485 276.21 -101.855 274.04C-101.565 273.06 -89.3651 262.72 -87.3951 259.58C-82.8851 252.38 -80.2551 240.32 -80.1651 231.99C-83.3551 237.81 -87.1451 243.94 -92.7551 247.79C-86.1051 239.49 -79.8451 227.75 -85.5251 217.52C-87.5651 220.6 -85.8051 224.21 -89.5451 226.89C-85.9551 202.81 -99.1651 177.02 -83.6551 155.11C-86.4151 167.21 -85.7051 182.02 -77.7651 192.07C-64.7251 208.57 -59.4251 189.34 -48.8351 182.16C-51.9351 182 -56.7451 183.25 -60.0851 181.89C-48.5751 180.78 -43.2451 174.91 -42.6751 163.41L-42.4051 177.34C-40.6851 173.74 -39.7751 169.85 -37.3151 166.63C-38.1551 171.8 -36.9551 177.33 -34.3651 181.9C-33.9851 182.58 -33.8251 183.59 -32.7551 182.7C-32.5951 178.85 -32.4351 175.35 -30.3451 171.99L-20.9751 199.58L-19.1051 195.03L-5.71509 210.57V200.39C-3.73509 205.13 -1.72508 210.12 2.58492 213.25C-3.29509 205.19 -3.63509 197.89 -2.77509 187.8C-2.32509 182.54 -0.335083 177.34 0.974915 172.26L3.11491 177.88C2.36491 173.76 1.90491 169.51 2.04491 165.29C0.464905 164.31 1.15491 166.41 0.974915 166.63C-1.45508 169.55 -1.84509 175.41 -3.84509 179.75C-5.84509 184.09 -9.9751 189.98 -12.9551 193.68C-14.0251 189.74 -15.3151 177.35 -14.5651 173.86C-14.1851 172.13 -2.85509 165.14 -0.635086 163.95C1.72491 162.22 13.1849 154.4 15.1649 154.31C15.6249 154.29 16.8149 155.11 17.0349 155.38C23.8149 153.82 31.7049 156.53 37.9249 151.36C32.0949 153.06 25.8649 155.27 19.7149 152.97C25.6549 152.25 32.2449 153.36 37.3949 149.76C31.3449 149.94 22.5349 154.37 18.1049 149.22L36.8549 148.15C32.3049 146.79 17.3849 151.64 18.3749 144.67L36.3249 146.54C33.6149 145.03 18.6549 145.85 17.5749 143.33C16.7549 141.41 20.7849 133.58 22.6649 133.42C24.5449 133.26 23.9549 138.16 26.4149 132.88C27.1549 134.63 25.5849 137.93 28.8249 136.09C28.8249 135.89 30.3649 135.11 30.1649 132.88C32.8949 137.4 40.9249 133.41 45.7049 136.09C51.0749 134.09 56.3249 135.65 61.7749 135.55C64.6349 140.06 59.5449 141.6 56.6849 143.59C66.5049 143.28 66.0949 132.81 66.5949 125.38C69.4149 129.04 68.1549 133.72 66.3249 137.43C66.9049 138.24 71.4149 137.27 72.4849 137.7C73.4249 138.07 74.6749 142.62 74.3549 143.32C73.4049 145.46 57.1349 145.78 53.9949 146.53L73.5449 144.66C77.1149 155.25 61.6449 150.06 55.5949 149.75C60.8249 153.47 67.5349 151.8 73.5449 152.16C68.7249 155.88 61.5449 152.82 56.1349 151.89C61.3349 156.75 70.7149 152.16 74.3449 157.51C74.9249 156.95 75.3049 156.45 75.9549 155.9C76.4249 155.5 76.2649 154.1 77.2949 154.29L89.8849 161.79C91.0049 162.34 91.9949 162.8 93.0949 163.4C95.1349 164.51 106.685 172.33 107.025 173.85C107.215 174.69 107.195 190.1 107.025 190.99C106.985 191.22 104.965 195.22 104.615 195.01C103.765 188.46 97.9849 183.52 95.2449 177.6L92.5649 167.42L95.7749 205.72C96.5649 204.4 97.5649 202.96 98.4549 201.7C98.7349 204.66 98.0749 208.21 98.4549 211.07L112.115 195C112.935 195.35 110.475 200.21 112.915 200.09C118.425 192.15 120.485 182.52 123.095 173.3C126.525 176.3 125.265 180.64 125.235 184.28C129.285 180.91 131.495 173.2 130.055 167.94C131.445 168.46 131.995 171.29 132.735 172.49C134.215 174.92 136.865 180.34 140.235 180.26C136.855 174.93 128.525 145.3 139.435 166.6C143.685 156.53 142.595 147.35 139.705 137.14L134.615 123.21L146.135 139.28L147.205 139.55C147.165 138.84 147.265 138.11 147.205 137.41C146.795 132.59 137.605 111.29 134.885 106.34C133.845 104.45 132.115 101.95 130.065 100.98C131.595 98.3601 139.095 107.91 139.175 105.27C135.265 98.44 133.015 90.7701 126.315 85.9801L135.955 90.2701C132.225 84.76 127.695 80.5101 121.495 77.9501C122.145 76.9401 121.825 75.8201 122.035 75.0001C119.195 73.4201 120.985 78.8401 116.145 77.1401C110.385 75.1201 106.915 66.8501 104.355 62.4101C103.525 60.9601 98.9749 56.2401 98.9949 54.9101C98.9949 54.4901 103.295 48.6501 104.085 48.2101C107.375 46.3901 111.045 46.7801 113.725 49.2801L112.385 46.6001C110.095 45.7301 107.425 44.7901 105.425 43.3901C104.155 42.5001 103.515 41.4601 102.745 40.1801C90.1749 47.1901 85.5249 55.1401 94.7049 68.0401L94.6849 68.0301Z" fill="#FDE9D5"/>
<path d="M139.685 137.14L146.115 139.28L134.595 123.21L139.685 137.14Z" fill="#B7A292"/>
<path d="M93.6145 162.32C98.1545 165.23 102.225 169.13 107.005 171.69C106.295 169.85 107.965 164.81 107.545 163.65C107.165 162.62 96.9745 157.76 95.2245 156.95L93.6145 162.31V162.32Z" fill="#D7C3B4"/>
<path d="M127.094 131.25L140.484 158.04C143.264 148.42 135.964 135.56 127.094 131.25Z" fill="#B7A292"/>
<path d="M93.6146 162.32L95.2246 156.96C92.9846 155.92 80.8946 150.91 79.4246 151.07C77.2546 151.3 78.6546 151.73 77.5546 152.94C82.9146 156.06 88.4046 158.97 93.6246 162.31L93.6146 162.32Z" fill="#795D35"/>
<path d="M-2.27502 156.96L-0.665015 162.32C1.27498 161.1 14.895 153.33 14.875 152.41C14.835 151.17 13.445 151.06 12.465 151.07C10.595 151.1 0.174978 155.83 -2.26502 156.96H-2.27502Z" fill="#795D35"/>
<path d="M115.575 102.32C116.985 103.64 120.875 104.47 122.275 105.53C125.805 108.21 128.485 114.34 133.795 112.76C130.015 109.6 128.545 105.48 124.685 102.31C122.845 103.96 114.415 99.5701 113.975 100.44C114.685 100.85 115.055 101.82 115.585 102.31L115.575 102.32Z" fill="#F4D5B9"/>
<path d="M-3.88507 152.14L-2.27507 155.89C3.04493 153.56 8.49492 151.57 13.7949 149.19C7.72492 148.37 1.80493 150.47 -3.88507 152.14Z" fill="#795D35"/>
<path d="M-0.664852 163.93C-0.524853 163.86 -0.264858 164 -0.124859 163.93C2.93514 162.31 15.3051 156.06 17.5551 156.97C17.6551 156.41 17.3451 155.76 17.0151 155.36C16.7951 155.09 15.6051 154.27 15.1451 154.29C13.1551 154.39 1.70514 162.2 -0.654858 163.93H-0.664852Z" fill="#795D35"/>
<path d="M75.9352 155.89C80.1552 158.78 85.3352 159.58 89.8652 161.78L77.2752 154.28C76.2452 154.09 76.4052 155.48 75.9352 155.89Z" fill="#795D35"/>
<path d="M-32.2754 250.71C-32.3354 252.77 -32.8254 256.76 -33.3454 258.75L-32.2754 260.62C-31.1454 250.37 -19.4954 264.18 -26.1154 268.92C-31.6554 269.6 -32.5854 263.3 -33.8854 259.28C-35.6754 253.73 -36.4054 247.71 -38.1754 242.14C-38.4054 247.31 -38.6754 255.07 -38.1754 260.09C-36.4654 277.42 -18.7454 293.14 -18.3554 311.79C-17.1254 301.04 -11.6754 288.56 -4.1554 280.72C-3.5254 281.09 -4.3054 283.78 -4.4254 284.47C-6.0254 294.06 -7.68539 302.92 -7.63539 312.86L5.22461 272.15C4.77461 272.38 3.4546 273.2 3.3546 273.22C1.8846 273.47 1.2846 272.87 0.404602 272.68C-7.7954 270.91 -25.3354 251.26 -25.8454 242.14L-32.2754 250.71Z" fill="#AE7B52"/>
<path d="M-25.8457 242.14C-25.3357 251.26 -7.7957 270.91 0.404297 272.68C-7.4957 261.84 -10.1557 248.44 -12.4557 235.45L-15.9357 248.57C-18.7057 249.78 -24.7957 238.82 -25.0457 236.25C-24.9257 237.64 -25.8957 241.28 -25.8457 242.14Z" fill="#15120F"/>
<path d="M-11.3849 34.82C-6.69492 36.9 -1.55492 39.42 2.00508 43.39C12.4351 40.03 25.1751 37.13 34.9551 43.39C34.0751 40.92 31.8451 38.74 30.4051 36.43C26.3651 37.12 8.65508 25.22 6.83508 27.59C17.8651 35.93 -8.47492 29.26 -11.3749 34.82H-11.3849Z" fill="#F4D5B9"/>
<path d="M62.0052 36.43C60.9952 38.22 59.4552 40.38 59.0552 42.32C69.4652 37.18 80.8052 40.55 91.4652 42.86C94.5752 39.34 99.4752 36.18 103.785 34.29C100.125 29.26 72.8552 36.15 86.6452 27.59C77.6152 24.82 71.5452 36.85 62.0052 36.43Z" fill="#F4D5B9"/>
<path d="M108.075 248.03C106.765 249.69 104.535 251.34 103.255 252.85C93.5751 264.25 84.3451 273.12 70.5751 279.64C81.6251 285.56 84.9251 293.88 87.1851 305.35C87.4051 306.47 87.5451 307.43 87.7251 308.56L96.2951 289.01V299.46C101.545 288.73 113.385 282.01 112.905 268.66L119.335 249.11C119.335 246.04 119.775 242.38 118.795 239.47C114.985 247.17 110.075 252.02 106.745 259.83C106.035 256.07 106.715 251.59 108.085 248.04L108.075 248.03Z" fill="#AE7B52"/>
<path d="M106.734 265.18C106.344 265.1 99.1842 266.15 99.5042 267.05C97.2642 273.62 99.5042 280.37 107.274 275.89C107.564 275.72 111.254 272.15 111.294 271.87C111.354 271.42 107.714 265.38 106.744 265.17L106.734 265.18Z" fill="#AE7B52"/>
<path d="M118.254 60.54C115.864 70.14 128.584 64.57 128.434 57.33C128.404 55.73 126.934 53.38 126.294 51.97C124.424 55.59 120.424 57.19 118.254 60.54Z" fill="#D0A27B"/>
<path d="M83.4355 56.7901C83.5955 57.7501 85.3055 64.2601 85.5755 64.5601C87.0255 66.1701 88.7155 64.8701 89.8655 65.3601L90.9355 64.0201C87.0655 61.0401 88.7255 55.3801 86.6455 51.9701C86.5455 51.8001 83.5455 50.6001 83.4355 49.5601L82.3656 50.1001C83.8056 52.0801 83.0855 54.7301 83.4355 56.8001V56.7901Z" fill="#FDE9D5"/>
<path d="M15.9359 369.64C17.5059 369.8 19.1759 369.53 20.7559 369.64C20.0059 366.02 18.2859 364.49 16.4659 361.6C15.6059 361 12.2159 360.4 10.8459 359.46C7.17586 356.95 4.93586 351.82 1.47586 349.01C1.73586 359.94 3.80585 368.4 15.9359 369.63V369.64Z" fill="#D7C3B4"/>
<path d="M23.4345 51.4299C22.0945 52.0899 19.7045 52.2699 18.3445 53.0399C13.3345 55.8899 12.0545 62.3099 10.5745 67.4999C12.8645 67.3299 14.3545 67.0899 13.7845 69.9099C6.88453 73.2299 2.95453 82.2299 0.394531 88.9299C4.22453 89.1999 6.93453 85.7499 8.16454 82.4999C11.1945 91.0199 21.1145 82.3699 25.5745 88.9299C27.1645 89.0599 32.9245 85.6999 35.4845 85.7199C37.3645 85.7299 42.8245 88.8099 43.5245 88.3999C42.2745 84.7199 44.9245 82.0099 46.2045 78.7599C47.4445 78.6999 46.6245 88.6699 49.4145 89.4699C50.7445 89.8499 58.6945 87.8099 56.9145 84.6499C63.7845 90.0199 72.8745 82.8999 79.6845 87.3299C81.7745 88.3699 85.3545 82.8299 85.8445 83.0399C86.6045 85.5499 87.6545 88.0499 90.3945 88.9299C86.9245 85.8299 88.1445 80.5999 86.1045 76.8799C84.6845 74.2799 79.1445 71.7199 78.0645 69.9199C76.6745 67.5799 79.2345 65.4899 79.1345 64.5599C79.0745 64.0499 73.8745 56.8299 72.9745 56.2599C71.4845 55.3099 63.5145 53.0699 61.7245 53.0499C61.2545 53.0499 61.6645 54.6599 61.1845 54.6599C59.6645 54.6499 57.2245 53.5899 55.0245 53.5899H53.9545C52.9645 54.3699 48.8845 58.6599 48.0645 59.7499C46.7945 61.4099 46.8345 64.9899 45.3845 65.3699C42.9045 66.0299 41.2945 60.7299 38.6845 58.9399C34.7945 56.2699 29.6845 56.7799 25.5645 54.9199C29.8745 52.8499 34.3345 53.0899 38.9545 53.0499C32.9045 49.9999 31.6145 51.9299 25.8345 52.5099C24.8245 52.6099 23.7945 52.6899 23.4245 51.4399L23.4345 51.4299Z" fill="#FFFCFA"/>
<path d="M80.225 147.32C81.125 147.73 85.065 148 86.655 148.39C88.765 142.87 95.355 140.65 98.975 136.07C99.135 135.87 98.685 134.8 99.245 134.46L100.045 135.53C100.005 135.05 102.165 131.23 102.185 130.98C102.465 128.32 102.865 122.48 102.725 120C102.635 118.51 100.035 107.44 98.975 109.55C99.735 125.17 87.015 135.05 80.225 147.32Z" fill="#6B4F25"/>
<path d="M0.404922 88.93C-1.55508 88.79 -1.57507 88.19 -2.80507 87.06C-0.645069 93.3 -1.26508 99.8 3.62492 104.74C5.07492 106.2 6.70493 106.48 6.83493 106.61C4.15493 103.05 2.83493 96.09 8.17493 94.29C9.16493 94.5 9.90493 98.51 10.5849 99.38C15.8349 106.07 24.5949 101.69 21.2949 113.58L23.4349 110.9C22.2749 104.72 23.9249 101.83 28.7949 107.15C25.4249 97.91 21.0249 101.87 15.6749 99.65C13.1049 98.58 11.3449 92.4 10.3149 92.15C8.15493 91.62 1.50493 94.63 -0.66507 90.81C5.08493 92.24 20.2349 85.09 24.5149 89.47C24.4949 88.78 25.0549 88.89 25.5849 88.93C21.1249 82.37 11.2049 91.02 8.17493 82.5C6.94493 85.75 4.23492 89.2 0.404922 88.93Z" fill="#D7C3B4"/>
<path d="M89.325 101.78C89.575 99.4 87.295 94.33 84.505 93.74C82.775 97.45 81.865 100.83 78.345 103.38C76.955 104.39 73.265 104.25 72.185 106.33C69.165 112.15 74.035 119.19 79.415 121.6C80.835 118.19 79.955 114.71 81.825 111.15C83.275 108.4 88.955 105.28 89.325 101.78Z" fill="#9E8977"/>
<path d="M6.82481 106.61C12.7048 112.47 13.7948 112.8 14.0548 122.15C16.8348 119.77 20.2548 117.32 21.2848 113.58C24.5848 101.7 15.8148 106.07 10.5748 99.38C9.89481 98.51 9.15482 94.5 8.16482 94.29C2.82482 96.1 4.14481 103.05 6.82481 106.61Z" fill="#9E8977"/>
<path d="M86.6557 148.39C93.7257 150.15 100.996 151.35 107.546 154.82C108.736 148.05 103.636 140.67 98.9757 136.07C95.3457 140.65 88.7657 142.87 86.6557 148.39Z" fill="#987D5A"/>
<path d="M100.046 135.53C100.266 138.21 108.316 142.56 110.756 143.83C107.936 136.25 108.116 126.1 102.716 119.99C102.866 122.47 102.456 128.31 102.176 130.97C102.146 131.22 99.9959 135.05 100.036 135.52L100.046 135.53Z" fill="#987D5A"/>
<path d="M79.6853 87.32C79.7653 87.37 79.7753 88.49 80.7553 88.93C84.6153 89.48 88.5853 92.49 92.8053 90.54C92.0253 94.19 86.9153 92.11 85.0353 92.15C85.1953 92.85 84.7553 93.2 84.4953 93.76C87.2853 94.34 89.5753 99.41 89.3153 101.8C92.3453 105.13 95.8053 92.14 95.7453 90.28C95.6353 86.81 94.2653 90.19 90.3853 88.94C87.6453 88.05 86.5953 85.55 85.8353 83.05C85.3453 82.83 81.7653 88.38 79.6753 87.34L79.6853 87.32Z" fill="#B7A292"/>
<path d="M85.5752 69.11C88.1352 72.95 95.4252 78.15 97.3652 81.97C98.7952 76.77 94.0952 71.37 89.8652 68.58C88.1252 68.25 86.4952 69.21 85.5752 69.12V69.11Z" fill="#795D35"/>
<path d="M65.7554 104.46C64.3654 105.52 64.5854 106.95 63.0754 107.14C63.4054 109.85 66.5554 113.68 68.9654 114.91C69.1654 110.77 72.3354 105.69 68.1654 102.86C67.0354 105.52 65.8954 104.36 65.7554 104.47V104.46Z" fill="#B7A292"/>
<path d="M102.726 110.89C105.616 110.48 106.976 111.86 108.346 114.1C109.756 113.49 102.486 101.2 100.046 100.71C100.636 106.86 101.396 105.93 102.726 110.89Z" fill="#795D35"/>
<path d="M23.4342 110.89C23.7342 112.51 22.6042 113.78 24.7742 114.64C26.4942 112.1 28.8842 110.47 29.3242 107.14H28.7842C23.9242 101.82 22.2642 104.71 23.4242 110.89H23.4342Z" fill="#B7A292"/>
<path d="M14.8646 225.53C15.3946 226.89 17.2346 228.37 17.8146 229.82C19.0946 228.88 18.1146 226.85 20.2246 227.95L33.8846 246.43C35.1146 235.95 39.3446 254.31 40.0446 255.8C40.3146 256.37 41.3746 255.77 41.6546 256.34C42.5946 258.28 42.6246 260.77 44.0646 262.5C45.5146 262.75 50.1746 251.98 51.2946 250.45C52.9046 248.27 54.6546 248.92 55.5846 247.77C63.7346 237.61 67.7046 234.82 77.0146 226.07C78.5646 222.25 80.5346 217.29 78.3546 213.21L46.2146 248.03L14.0746 213.21C13.6146 216.99 13.5046 221.98 14.8746 225.53H14.8646Z" fill="#2E2013"/>
<path d="M23.9748 176.25C23.4648 175.03 22.7248 173.79 22.3648 172.5C22.0048 171.21 21.9248 170.08 21.8248 168.75C20.9048 169.62 19.3048 170.98 18.6148 171.96C14.8148 177.33 14.1948 181.42 12.7248 187.5L14.5948 196.61C15.0648 191.91 15.3948 186.33 19.1448 182.95C15.8748 193.21 20.4348 201.25 24.5048 210.27L26.6448 195.27C27.2648 210.2 35.2448 222.09 45.1248 232.5L66.2848 196.88C67.5148 196.11 67.3348 197.06 67.3548 197.95C67.3948 199.36 66.3248 209.85 66.8148 210.27C72.6848 203.79 76.3648 194.06 75.3848 185.09L79.6748 195.27C79.9248 192.24 77.5948 186.63 80.2148 184.29C79.6748 181.33 78.5448 178.78 77.0048 176.25C75.2148 173.32 72.6948 170.88 70.0448 168.75C70.0948 174.34 69.3048 179.15 66.0248 183.75C65.1148 181.1 66.3948 178.01 63.8848 175.71L59.5948 187.5C59.1348 183.82 59.5948 180.06 57.4548 176.79C57.2048 181.44 56.5748 186.58 52.6348 189.65C52.6448 188.27 51.0748 179.62 49.4248 180.01C47.8948 184.27 43.1548 187.33 44.6048 192.33C39.5348 189.85 40.6848 183.64 40.8548 178.94L37.6448 183.76L34.6948 177.06C33.4548 180.35 33.5348 183.51 33.8948 186.97L29.3448 178.13L27.4748 182.68C25.2048 180.96 24.9348 178.49 23.9948 176.25H23.9748Z" fill="#987D5A"/>
<path d="M38.9756 53.04C34.3456 53.08 29.8956 52.85 25.5856 54.91C29.7056 56.77 34.8256 56.26 38.7056 58.93C41.3056 60.72 42.9256 66.02 45.4056 65.36C45.5756 60.38 43.6656 55.41 38.9756 53.04Z" fill="#F4D5B9"/>
<path d="M32.0054 164.46C31.2854 164.65 30.5354 164.8 29.8654 165C31.2254 167.86 24.8654 171.71 22.3654 172.5C22.7154 173.79 23.4554 175.03 23.9754 176.25C31.2154 167.2 37.8054 164.6 49.4254 165C53.6454 165.15 57.3754 166.65 61.4754 166.61C61.8954 164.47 60.7054 165.52 59.8654 164.47C55.8754 164.13 51.7254 161.49 47.8154 161.26C43.9054 161.03 36.1054 163.37 32.0154 164.47L32.0054 164.46Z" fill="#F4D5B9"/>
<path d="M23.4342 166.61C23.2442 166.73 22.1542 168.45 21.8242 168.75C21.9242 170.08 21.9942 171.16 22.3642 172.5C24.8642 171.71 31.2242 167.86 29.8642 165C27.6242 165.64 26.2442 164.92 23.4342 166.61Z" fill="#FDE9D5"/>
<path d="M18.6155 171.96C19.3055 170.98 20.9155 169.61 21.8255 168.75C22.1455 168.44 23.2355 166.72 23.4355 166.61C20.6955 165.28 19.2055 169.82 18.6155 171.97V171.96Z" fill="#58401C"/>
<path d="M60.9359 163.93C60.9559 164.62 60.3959 164.51 59.8659 164.47C60.7059 165.53 61.8959 164.47 61.4759 166.61C63.0259 166.59 64.6459 164.84 67.0959 165.54C67.7859 165.73 69.4159 168.25 70.0459 168.75C72.6959 170.88 75.2159 173.32 77.0059 176.25C75.5259 170.17 74.2859 165.03 67.3659 163.93C65.8659 163.69 64.2059 164.85 60.9359 163.93Z" fill="#795D35"/>
<path d="M17.0051 155.36C17.3351 155.76 17.6351 156.4 17.5451 156.97C21.6851 158.64 21.9651 165.73 32.0051 163.93C35.6851 163.27 44.4351 157.05 44.3251 152.95C44.0451 142.6 28.5451 144.88 28.7851 136.08C25.5451 137.91 27.1151 134.61 26.3751 132.87C23.9151 138.15 24.5551 133.25 22.6251 133.41C20.6951 133.57 16.7151 141.4 17.5351 143.32C18.6151 145.85 33.5751 145.03 36.2851 146.53L18.3351 144.66C17.3451 151.64 32.2751 146.78 36.8151 148.14L18.0651 149.21C22.4951 154.36 31.3051 149.93 37.3551 149.75C32.2051 153.35 25.6151 152.24 19.6751 152.96C25.8251 155.26 32.0551 153.06 37.8851 151.35C31.6651 156.51 23.7751 153.81 16.9951 155.37L17.0051 155.36Z" fill="#FDE9D5"/>
<path d="M36.5645 154.82C32.2845 157.04 28.9244 158.43 23.9744 158.3C27.4744 160.26 34.1345 157.63 36.5645 154.82Z" fill="#FDE9D5"/>
<path d="M56.6543 143.57C52.4143 146.52 45.8443 147.52 48.0843 155.09C48.5243 156.58 59.1243 163.42 60.9443 163.93C64.2143 164.85 65.8743 163.69 67.3743 163.93C70.3543 162.45 72.0543 159.69 74.3343 157.5C70.7043 152.15 61.3243 156.73 56.1243 151.88C61.5343 152.8 68.7143 155.87 73.5343 152.15C67.5343 151.79 60.8143 153.46 55.5843 149.74C61.6343 150.05 77.0943 155.24 73.5343 144.65L53.9843 146.52C57.1243 145.76 73.3943 145.44 74.3443 143.31C74.6543 142.61 73.4043 138.05 72.4743 137.69C71.4043 137.27 66.8943 138.23 66.3143 137.42C68.1443 133.71 69.3943 129.03 66.5843 125.37C66.0843 132.8 66.4943 143.27 56.6743 143.58L56.6543 143.57Z" fill="#FDE9D5"/>
<path d="M60.1346 156.43C59.6946 156.37 59.0946 156.29 58.7946 156.7C58.6646 157.24 67.6846 160.61 68.9746 158.31C65.8846 158.99 62.2946 156.73 60.1346 156.44V156.43Z" fill="#FFFCFA"/>
<path d="M28.7957 136.07C28.5457 144.87 44.0557 142.6 44.3357 152.94C44.4457 157.04 35.6957 163.26 32.0157 163.92V164.46C36.1057 163.35 43.8557 161.01 47.8157 161.25C51.7757 161.49 55.8857 164.13 59.8657 164.46C60.3957 164.51 60.9557 164.61 60.9357 163.92C59.1157 163.41 48.5157 156.57 48.0757 155.08C45.8357 147.51 52.4057 146.51 56.6457 143.56C59.5057 141.58 64.5957 140.03 61.7357 135.52C56.2857 135.62 51.0357 134.06 45.6657 136.06C40.8957 133.38 32.8557 137.37 30.1257 132.85C30.3257 135.08 28.7957 135.87 28.7857 136.06L28.7957 136.07Z" fill="#15120F"/>
<path d="M39.2454 140.36C32.3854 140.11 43.1254 143.67 43.5354 145.72C44.8854 143.34 41.1354 140.43 39.2454 140.36Z" fill="#6E8089"/>
<path d="M53.1653 140.89C50.5153 141.12 47.0853 143.39 48.8753 146.25L53.6953 141.96L53.1553 140.89H53.1653Z" fill="#6E8089"/>
<path d="M112.365 46.61L113.705 49.29C111.025 46.79 107.355 46.4 104.065 48.22C103.275 48.66 98.9847 54.5 98.9747 54.92C98.9447 56.25 103.505 60.97 104.335 62.42C106.885 66.87 110.355 75.13 116.125 77.15C115.565 74.84 115.535 72.55 115.585 70.19C115.685 65.82 115.905 64.19 118.265 60.55C120.435 57.2 124.425 55.6 126.305 51.98C125.175 49.49 125.145 49.13 123.095 47.16C119.765 50.62 116.175 48.08 112.385 46.62L112.365 46.61Z" fill="#795D35"/>
<path d="M105.665 53.0399C104.635 52.8299 102.785 52.7999 102.715 54.3799L106.735 54.1099C107.305 53.8399 105.735 53.0499 105.665 53.0399Z" fill="#D7C3B4"/>
<path d="M28.7948 107.14H29.3348C29.7248 104.25 26.2748 91.27 24.5148 89.46C20.2348 85.08 5.08477 92.23 -0.665232 90.8C1.50477 94.62 8.15476 91.61 10.3148 92.14C11.3348 92.39 13.0948 98.57 15.6748 99.64C21.0248 101.86 25.4348 97.9 28.7948 107.14Z" fill="#15120F"/>
<path d="M21.5656 90C21.0756 89.89 20.0856 89.88 19.6956 90.27C19.4756 90.56 23.1156 93.34 19.9656 94.29C16.8156 95.24 17.2456 90.85 16.2156 90.54C13.5956 89.74 13.7456 96.49 17.8256 98.04C25.3556 100.91 24.9556 90.74 21.5756 90H21.5656Z" fill="#AAB248"/>
<path d="M63.0745 107.14C64.5845 106.95 64.3645 105.52 65.7545 104.46C67.6545 98.4701 73.2345 102.09 77.2745 99.6401C79.6145 98.2201 80.6945 92.1701 82.6345 91.6001C82.7545 91.5701 83.6845 92.1601 85.0445 92.1401C86.9245 92.1001 92.0345 94.1801 92.8145 90.5301C88.5945 92.4801 84.6145 89.4801 80.7645 88.9201C76.3645 88.2901 71.2244 86.4201 67.9044 90.2601C66.1845 92.2501 62.7645 104.48 63.0844 107.13L63.0745 107.14Z" fill="#15120F"/>
<path d="M77.8148 91.0701C75.9448 90.2801 74.5048 98.5701 70.3148 91.6101C64.1248 106.03 84.8848 94.0801 77.8148 91.0701Z" fill="#AAB248"/>
<path d="M72.9836 89.4601C72.3636 89.3601 71.1036 90.6501 71.1136 90.8001C71.1136 92.6601 75.3036 89.8201 72.9836 89.4601Z" fill="#EAF9EB"/>
<path d="M23.9752 176.25C24.9151 178.49 25.1952 180.96 27.4552 182.68L29.3252 178.13L33.8752 186.97C33.5152 183.51 33.4352 180.35 34.6752 177.06L37.6252 183.76L40.8352 178.94C40.6652 183.64 39.5152 189.86 44.5852 192.33C43.1352 187.33 47.8852 184.27 49.4052 180.01C51.0552 179.62 52.6352 188.27 52.6152 189.65C56.5552 186.59 57.1852 181.44 57.4352 176.79C59.5752 180.06 59.1252 183.82 59.5752 187.5L63.8652 175.71C66.3752 178 65.0952 181.1 66.0052 183.75C69.2852 179.15 70.0752 174.34 70.0252 168.75C69.3952 168.24 67.7652 165.73 67.0752 165.54C64.6252 164.84 63.0052 166.59 61.4552 166.61C57.3552 166.65 53.6252 165.15 49.4052 165C37.7852 164.6 31.2052 167.2 23.9552 176.25H23.9752Z" fill="#FDE9D5"/>
</g>
<defs>
<clipPath id="clip0_2025_7672">
<rect width="335.41" height="397.5" fill="white" transform="matrix(-1 0 0 1 147.205 0)"/>
</clipPath>
</defs>
</svg>
