<svg width="229" height="330" viewBox="0 0 229 330" fill="none" xmlns="http://www.w3.org/2000/svg">
<path d="M43.5536 53.2586L49.0447 58.1482C49.1004 58.5715 46.8505 66.034 46.6055 66.3904C45.2577 68.3619 36.3472 69.821 34.0862 72.1934L33.4736 70.9682L37.4388 68.2171C22.3131 69.8878 2.82138 75.223 -10.4887 83.1756C-11.9367 84.0444 -24.6453 92.3423 -20.8695 92.9438C-19.0094 91.8634 -4.95305 85.6706 -4.08427 87.1408C-30.6933 99.9051 -47.356 126.336 -58.1154 152.778C-54.4399 149.481 -50.0403 144.324 -45.908 141.785C-45.3623 141.45 -42.1768 138.989 -41.9428 140.871C-65.8676 168.65 -72.2832 206.475 -76.137 241.917C-75.814 235.445 -76.4154 228.863 -76.137 222.38C-75.8251 215.285 -75.9476 208.101 -75.5244 201.006C-74.1432 177.761 -71.4589 161.544 -62.7044 139.958C-59.8419 132.896 -56.6118 125.857 -52.9362 119.196C-33.5001 83.9776 -5.24264 56.8673 36.5032 52.646C38.4746 52.4455 41.8383 51.9777 43.5202 53.2586H43.5536Z" fill="#FFFCFA"/>
<path d="M78.3507 23.3415C78.4509 23.5754 78.295 24.1768 78.3507 24.5667C73.4499 26.7386 74.1627 29.9019 69.8077 22.4282C69.2953 21.5594 70.7322 20.4567 70.4203 19.9889C69.5181 18.63 61.3316 9.79749 62.7907 15.4111C60.0395 9.69725 50.9619 9.34083 45.6936 10.5215C44.2345 10.8445 41.94 13.4063 39.8906 12.9607C52.4879 -0.750335 71.8126 8.4275 78.3507 23.3415Z" fill="#FFFCFA"/>
<path d="M214.503 122.248C214.982 136.884 220.529 154.404 218.78 168.951C218.669 169.897 217.009 168.36 216.954 168.951C215.183 188.008 218.413 214.082 205.047 229.085V221.144L199.244 230.611H202.296L199.244 234.276C205.86 232.449 196.459 241.805 194.967 244.657C194.265 246.004 188.997 257.866 191.614 257.788L195.579 253.211C193.53 261.709 194.967 271.009 193.753 279.463C193.185 283.384 187.215 295.079 191.926 292.283L185.822 309.993C186.881 312.956 190.077 300.203 192.539 303.277C188.228 310.294 186.48 320.519 191.625 327.391L192.238 321.9C196.315 329.819 194.053 330.42 202.919 331.668C204.145 333.706 197.406 332.96 197.116 332.893C193.396 332.035 188.607 328.46 185.522 326.177C188.529 334.586 203.343 342.405 212.075 340.222L210.248 343.274C207.609 346.003 206.539 349.968 202.919 352.429C201.148 353.632 198.375 354.679 196.203 354.869C197.707 353.532 202.028 349.166 200.168 346.927C199.255 346.704 189.955 357.642 190.099 353.944C191.87 351.304 197.105 346.927 194.677 343.875C194.053 343.675 186.569 352.596 185.822 353.643L183.383 352.418C184.664 351.126 190.99 341.068 187.048 341.737C184.764 344.187 182.793 347.116 180.944 349.979L179.117 344.488C182.759 339.041 182.681 319.149 177.291 340.211C174.74 330.766 174.005 318.837 174.851 309.069C175.698 299.3 180.632 293.62 181.568 285.255C182.503 276.89 179.44 267.356 180.342 258.089C181.044 250.894 184.608 242.741 189.498 237.328C185.433 239.355 181.779 244.857 179.117 248.622C176.065 229.208 160.917 214.74 173.626 195.203C183.561 179.933 194.766 175.366 201.705 155.217C202.207 153.758 206.127 141.651 205.058 141.172C198.286 156.097 184.542 167.124 171.176 175.968C197.027 152.856 202.028 122.248 196.203 88.9675C195.19 83.1423 191.124 76.6153 191.926 70.9572C201.995 88.0319 208.722 103.236 214.514 122.237L214.503 122.248Z" fill="#FDE9D5"/>
<path d="M191.914 70.9571C191.112 76.6153 195.167 83.1422 196.191 88.9675C202.005 122.248 197.004 152.867 171.164 175.968C165.205 179.91 159.825 182.584 154.067 186.348C143.53 193.243 135.321 201.73 129.039 212.601C124.272 220.843 121.076 229.743 116.832 238.241C117.656 232.037 119.015 225.621 118.659 219.317C120.641 219.618 120.374 219.061 121.098 217.791C126.277 208.68 126.7 201.073 134.531 190.926C164.849 151.642 188.016 156.019 191.313 94.4586C191.369 93.4005 191.847 91.4179 190.088 91.7075C190.21 87.9762 189.943 83.5098 189.475 79.8008C188.818 74.5658 184.73 64.3856 185.198 60.5652C187.749 63.7841 189.831 67.4151 191.914 70.9459V70.9571Z" fill="#FDE9D5"/>
<path d="M-7.12367 195.504C2.02075 218.37 15.0858 255.728 -1.63256 277.926C-2.53475 279.118 -5.25246 280.466 -5.90961 282.203C-8.80553 282.793 -14.7644 288.407 -16.903 290.746C-24.3878 294.8 -30.3244 302.241 -19.3422 306.618C-19.3756 306.763 -19.3868 307.086 -19.3422 307.231C-18.919 308.679 -16.1901 309.157 -15.0652 309.982L-19.643 310.895C-14.3189 314.448 -9.06171 315.941 -3.15849 318.224C-8.49366 317.032 -42.6321 310.917 -42.543 319.75C-42.5096 323.37 -22.4943 336.401 -17.5156 335.321C-17.3039 335.689 -17.1146 336.179 -16.903 336.546C-36.5618 338.629 -66.3007 340.088 -77.9512 320.674C-74.0974 317.01 -71.8141 311.586 -68.7956 307.242C-53.748 285.6 -35.1027 266.699 -27.2837 240.391C-26.905 254.28 -31.9395 267.579 -37.9652 279.775C-8.21522 248.31 -10.5988 200.293 -23.0067 161.633C-17.7272 172.815 -11.7237 184.032 -7.13481 195.515L-7.12367 195.504Z" fill="#DAB79C"/>
<path d="M71.032 70.9572C76.8684 72.3828 76.5343 79.2217 82.6268 79.5001C84.8099 79.6004 87.3271 78.1635 88.7305 78.2749C88.7974 78.2749 89.655 78.7427 89.9557 78.8875C87.0598 86.2944 82.3261 89.0121 74.6964 85.9046C84.6985 98.9807 75.9439 109.974 64.9283 117.96C64.6164 118.183 62.567 117.414 62.489 119.486L73.4824 135.057C68.5259 132.718 64.8392 129.934 60.6624 126.514C58.5796 124.81 56.8197 122.861 54.8594 121.023C54.2468 139.802 66.6102 155.596 81.112 166.199C96.8057 177.672 122.646 184.332 123.237 207.711C127.547 186.638 133.506 171.535 148.877 156.431C165.484 140.103 173.592 138.41 183.371 114.919C186.924 106.388 189.765 101.609 190.088 91.7187C191.848 91.4291 191.369 93.4117 191.313 94.4698C188.027 156.019 164.86 151.653 134.531 190.937C126.7 201.084 126.277 208.692 121.098 217.803C120.374 219.072 120.641 219.629 118.659 219.328C117.211 193.31 94.9567 189.567 78.0602 175.979C76.8795 177.104 80.1541 180.055 80.8113 180.868C75.7212 178.975 70.386 175.689 66.1535 172.325C54.503 163.059 47.1518 151.642 41.1261 138.131C40.3798 134.422 39.8118 129.845 38.0742 126.537C38.2413 117.169 38.3638 108.415 39.2994 99.0587C39.4553 97.5328 41.2709 93.5342 38.6868 93.5676C40.3798 90.3932 42.1062 87.0295 44.1779 84.1002C44.3784 95.8732 45.392 108.504 53.0327 117.982C54.6032 117.938 50.4264 106.287 50.2816 104.851C50.07 102.701 50.0589 98.7468 50.2816 96.6083C50.4821 94.7037 52.4536 86.829 54.5587 86.5394L53.3335 101.197C57.1761 97.8558 54.2134 102.69 57.6105 99.972L57.9113 107.602C61.0077 96.2853 63.2464 84.1447 71.6446 74.9335L66.755 73.7083C67.9467 72.4385 69.3167 71.4361 71.032 70.9572Z" fill="#DAB79C"/>
<path d="M14.8603 166.812C12.176 191.049 15.9519 233.875 18.5248 259.003C20.2735 276.055 23.7486 293.52 27.0677 310.283C19.0817 310.84 11.2961 307.632 3.86698 306.618C-6.06825 302.664 -3.72923 295.335 -2.84932 286.469C-2.71566 285.099 -3.04981 283.507 -2.84932 282.192C-2.7268 281.346 -0.944699 279.486 -1.62413 277.915C15.0942 255.717 2.02919 218.36 -7.11523 195.493L2.65293 209.226C3.18756 207.789 2.12943 206.141 2.04033 205.261C1.3609 198.077 0.781714 191.026 -1.62413 184.199L5.39291 199.77L8.14404 184.511L14.8603 166.801V166.812Z" fill="#BA9476"/>
<path d="M6.9185 177.805C7.37516 179.999 7.23037 182.606 8.14369 184.521L5.39257 199.781L-1.62447 184.209C0.781372 191.037 1.36056 198.088 2.03998 205.272C-11.426 177.638 -17.4852 145.192 -8.34077 115.22C-9.65507 130.401 -9.67735 146.017 -4.06372 160.396C-2.83852 153.858 -3.5625 146.785 -2.23706 140.247C-2.13682 139.746 -1.08983 134.689 0.202196 135.358C-0.510646 150.004 3.98917 163.771 6.9185 177.794V177.805Z" fill="#DAB79C"/>
<path d="M39.2776 99.0477C34.5662 104.661 30.9574 113.683 28.2843 120.723C23.6619 132.93 16.2328 154.349 14.8517 166.823L8.13535 184.533C7.23316 182.617 7.37796 180.011 6.91016 177.817L21.568 132.329C27.2261 119.397 32.0156 106.031 38.665 93.5566C41.2491 93.5232 39.4224 97.5218 39.2776 99.0477Z" fill="#F4D5B9"/>
<path d="M78.3498 24.5556C78.6283 24.4331 81.6467 22.9183 81.4017 24.2549C59.5709 40.0711 48.0763 68.529 49.0453 95.0824C49.0899 96.1962 48.4996 97.8224 50.2705 96.6083C50.0478 98.7468 50.0589 102.701 50.2705 104.851C50.4153 106.287 54.581 117.938 53.0217 117.982C45.3809 108.504 44.3673 95.8621 44.1668 84.1002C42.0951 87.0295 40.3576 90.3932 38.6757 93.5676C32.0262 106.042 27.2368 119.408 21.5787 132.34L6.92085 177.828C3.99152 163.816 -0.508301 150.038 0.204544 135.391C-1.08749 134.712 -2.13447 139.769 -2.23472 140.281C-3.56016 146.819 -2.84731 153.892 -4.06137 160.43C-9.675 146.051 -9.65273 130.435 -8.33842 115.254C-17.4828 145.237 -11.4237 177.672 2.04233 205.306C2.1203 206.185 3.18956 207.834 2.65493 209.271L-7.11323 195.537C-11.7133 184.054 -17.7056 172.838 -22.9851 161.655C-10.5772 200.305 -8.19363 248.332 -37.9436 279.797C-31.9179 267.612 -26.8834 254.302 -27.2621 240.413C-35.0811 266.721 -53.7264 285.634 -68.774 307.264L-65.7222 284.977L-66.6355 284.063L-70.9125 290.167C-74.1983 290 -65.5997 242.774 -66.9474 238.575C-68.0946 237.495 -68.5958 240.357 -68.774 241.014C-70.5004 247.118 -70.7121 255.906 -73.0511 261.776C-73.3852 262.611 -76.0361 266.521 -77.3281 266.354C-76.9494 258.234 -76.515 250.059 -76.1029 241.928C-72.2603 206.486 -65.8336 168.661 -41.9088 140.882C-42.1427 139 -45.3282 141.462 -45.874 141.796C-50.0174 144.335 -54.4169 149.492 -58.0814 152.789C-47.3219 126.358 -30.6593 99.9164 -4.05024 87.152C-4.93015 85.6818 -18.9754 91.8635 -20.8354 92.955C-24.6113 92.3536 -11.9026 84.0445 -10.4547 83.1869C2.85542 75.2342 22.3472 69.899 37.4728 68.2283L33.5076 70.9794L34.1202 72.2046C36.3701 69.8322 45.2918 68.3731 46.6395 66.4017C46.8845 66.0452 49.1344 58.5827 49.0787 58.1594C48.8337 56.2214 44.746 54.2277 43.5876 52.6683C34.5435 40.5834 28.1947 25.7474 39.9232 12.9831C41.9726 13.4286 44.2671 10.8668 45.7262 10.5438C50.9945 9.36319 60.0721 9.70847 62.8232 15.4335C61.3641 9.81985 69.5507 18.6524 70.4529 20.0113C70.7647 20.4791 69.339 21.5817 69.8403 22.4505C74.1953 29.9131 73.4824 26.761 78.3832 24.589L78.3498 24.5556Z" fill="#FDE9D5"/>
<path d="M49.0458 58.1373L43.5547 53.2476V52.635C44.7242 54.1944 48.8119 56.1881 49.0458 58.1261V58.1373Z" fill="#536778"/>
<path d="M52.7114 50.1957C46.9084 43.6242 40.8604 36.4512 42.9432 26.9949C46.3069 11.6577 65.2975 20.067 69.8084 30.3475C69.9198 31.6507 54.7942 47.3889 52.7114 50.1846V50.1957Z" fill="#BA9476"/>
<path d="M42.9422 26.9948C40.8594 36.4511 46.9074 43.624 52.7104 50.1955C52.521 50.4517 52.5656 53.3365 51.1845 53.86C41.8507 44.8826 31.6481 27.8079 42.6415 16.614C40.5921 20.3564 39.133 23.7424 42.9422 26.9948Z" fill="#F4D5B9"/>
<path d="M44.467 72.1823C49.9804 76.3702 28.339 94.3583 26.7574 99.0475C24.3738 97.9225 41.2258 73.0399 44.467 72.1823Z" fill="#FFFCFA"/>
<path d="M60.649 126.514C78.2584 153.513 122.733 159.037 122.622 197.943C125.518 188.598 123.825 177.204 125.974 167.112C130.574 145.571 143.806 146.384 158.943 134.444C159.088 134.389 160.581 133.319 160.77 133.219C167.776 129.944 171.117 127.505 176.642 122.226C179.103 119.876 181.576 117.904 183.358 114.897C173.579 138.398 165.47 140.091 148.863 156.409C133.493 171.512 127.534 186.627 123.223 207.689C122.633 184.31 96.7923 177.649 81.0987 166.177C66.5968 155.573 54.2335 139.779 54.8461 121.001C56.7952 122.838 58.5662 124.788 60.649 126.492V126.514Z" fill="#DAB79C"/>
<path d="M188.865 1.35488C189.277 1.54422 195.303 7.10216 195.581 7.45858C203.344 17.7391 201.34 35.9945 195.581 46.8431C193.12 51.4766 185.579 57.558 185.2 60.5764C184.721 64.3857 188.82 74.5771 189.477 79.812C189.945 83.521 190.213 87.9874 190.09 91.7187C189.767 101.609 186.927 106.376 183.374 114.919C181.603 117.916 179.119 119.898 176.657 122.248L178.796 107.591C171.523 115.432 160.83 116.156 151.318 111.868L153.757 116.145C142.174 111.144 139.79 98.7134 144.903 88.0654L145.203 86.8402C136.204 90.4378 132.005 86.3724 130.245 77.6846C132.929 77.8294 135.881 79.6895 139.1 78.9098C141.873 78.2415 143.744 72.4274 147.342 71.8928C136.371 64.0961 134.31 65.1431 128.418 77.0832C124.174 72.3383 125.979 67.0588 128.117 61.8239C124.152 67.315 118.661 68.9857 112.246 66.7135C110.954 66.2569 108.369 63.0936 107.968 63.0491C106.743 62.9154 95.4826 70.9906 90.8714 61.8239L92.0966 69.1528C87.0176 67.4821 80.4127 60.8772 77.7507 69.1528C77.6059 69.2085 77.1381 70.2555 75.3114 70.9795C74.4426 71.3247 72.1148 70.6787 71.0344 70.9795C69.3191 71.4473 67.9491 72.4608 66.7573 73.7306L71.647 74.9558C63.2488 84.167 60.9989 96.3076 57.9136 107.624L57.6129 99.9943C54.2158 102.701 57.1785 97.8781 53.3359 101.22L54.561 86.5617C52.4671 86.8513 50.4845 94.7371 50.284 96.6306C48.5242 97.8447 49.1033 96.2185 49.0588 95.1047C48.0898 68.5625 59.5844 40.1045 81.4151 24.2772C81.6602 22.9517 78.6417 24.4554 78.3633 24.5779C78.3076 24.1992 78.4635 23.5866 78.3633 23.3527C102.544 11.0339 130.791 10.7666 154.37 24.5779C157.199 18.6413 159.716 13.3395 164.439 8.70605C167.079 6.122 174.408 0.853658 177.872 0.163093C180.355 -0.338124 186.76 0.385856 188.865 1.38829V1.35488Z" fill="#FFFCFA"/>
<path d="M177.87 48.9818C173.203 42.0316 169.249 36.1284 161.998 31.2722C184.909 1.19917 197.005 28.0644 177.87 48.9818Z" fill="#BA9476"/>
<path d="M177.868 48.9813C197.003 28.0639 184.907 1.20982 161.996 31.2717C161.105 30.6814 154.244 29.1332 154.055 27.3065C156.371 25.3685 158.354 19.2425 160.158 17.5384C160.493 17.2265 165.739 16.3243 166.574 13.5732V16.625C179.672 7.1019 192.537 10.6438 191.301 28.5317C190.955 33.5439 185.019 45.8961 185.197 46.8428C185.498 48.4913 186.968 47.3886 187.024 48.068C187.135 49.4046 184.016 56.5776 182.446 56.3103C180.563 54.0826 179.472 51.3761 177.868 48.9813Z" fill="#FDE9D5"/>
<path d="M144.9 88.0541C125.888 107.412 155.058 133.286 173.904 114.919C174.751 117.359 172.167 119.441 171.153 121.023C165.328 122.928 160.472 127.483 154.368 128.965C152.263 129.477 142.238 130.891 140.935 130.19C139.276 129.288 140.556 119.297 138.184 117.982C139.153 107.78 138.953 92.4314 129.641 86.2386C129.051 83.8216 128.739 81.2376 127.814 78.9097C127.904 78.5644 129.541 77.6957 129.641 77.6845C129.842 77.6734 130.053 77.6845 130.254 77.6845C132.014 86.3723 136.213 90.4377 145.212 86.8401L144.912 88.0653L144.9 88.0541Z" fill="#F4D5B9"/>
<path d="M176.656 122.248C171.132 127.528 167.79 129.967 160.784 133.242C164.493 129.232 168.191 125.712 171.165 121.034C172.168 119.453 174.763 117.37 173.916 114.93C155.071 133.297 125.9 107.423 144.913 88.0652C139.789 98.7133 142.184 111.155 153.767 116.145L151.328 111.867C160.829 116.156 171.533 115.432 178.806 107.59L176.667 122.248H176.656Z" fill="#FDE9D5"/>
<path d="M128.415 77.0612C128.738 77.4176 128.515 77.9856 129.64 77.6738C129.529 77.6738 127.903 78.5537 127.813 78.899C126.967 76.805 123.358 71.3473 121.398 70.356C120.351 69.8214 107.141 66.569 106.139 66.6916C98.186 67.694 96.4818 80.4249 94.2319 85.6153C91.7147 84.1785 93.1849 80.514 89.9549 78.899C89.6653 78.7542 88.7965 78.2975 88.7297 78.2864C93.1515 77.5178 85.6555 67.8945 84.1519 67.293C80.8996 66.0121 80.3092 68.1172 77.7363 69.1197C80.4095 60.844 87.0033 67.449 92.0823 69.1197L90.8571 61.7908C95.4571 70.9463 106.718 62.8712 107.954 63.016C108.355 63.0605 110.939 66.2238 112.231 66.6804C118.647 68.9637 124.138 67.293 128.103 61.7908C125.965 67.0257 124.16 72.3052 128.404 77.05L128.415 77.0612Z" fill="#DAB79C"/>
<path d="M75.2972 70.9572C74.2836 73.0735 77.1795 72.9398 77.7364 71.8705C76.4221 75.7132 82.5035 75.9805 82.6261 79.5002C76.5335 79.2217 76.8676 72.3718 71.0312 70.9572C72.1117 70.6565 74.4395 71.3025 75.3083 70.9572H75.2972Z" fill="#395F6D"/>
<path d="M201.683 155.217C194.732 175.377 183.527 179.933 173.603 195.203C160.895 214.74 176.054 229.208 179.094 248.622C178.482 249.479 178.025 250.259 177.268 251.373C172.601 258.201 169.248 266.075 163.835 272.435C156.963 264.438 151.528 256.363 148.264 246.183C147.696 250.538 149.155 254.781 149.79 259.003C139.398 242.384 142.227 213.448 154.68 198.255C159.168 192.775 165.172 190.369 170.551 186.348C173.213 184.366 176.7 182.962 179.406 180.857C188.506 173.751 195.334 164.729 201.694 155.217H201.683Z" fill="#BA9476"/>
<path d="M201.684 155.218C195.324 164.73 188.496 173.751 179.396 180.858C176.701 182.963 173.204 184.366 170.542 186.349C164.037 187.062 157.822 191.383 152.531 194.892L153.445 187.563C153.523 187.485 153.99 186.616 154.057 186.338C159.816 182.573 165.195 179.9 171.154 175.957C184.52 167.113 198.264 156.075 205.036 141.161C206.106 141.64 202.185 153.736 201.684 155.206V155.218Z" fill="#BA9476"/>
<path d="M181.534 285.255C180.176 285.578 179.385 285.946 177.87 285.868L176.344 275.487L174.517 283.429C170.307 280.265 167.222 276.389 163.836 272.435C169.249 266.075 172.602 258.19 177.269 251.373C178.037 250.259 178.494 249.491 179.095 248.622C181.746 244.857 185.411 239.355 189.476 237.328C184.586 242.741 181.022 250.883 180.32 258.089C179.418 267.356 182.492 276.735 181.546 285.255H181.534Z" fill="#BA9476"/>
<path d="M221.842 193.075C221.452 198.388 218.623 208.012 218.79 212.311C218.957 216.61 223.39 227.169 224.281 232.46C227.979 254.302 229.405 274.083 228.558 296.259C228.536 296.861 228.592 297.484 228.558 298.086C227.6 318.469 227.489 333.505 211.461 348.152L213.288 341.736C212.787 340.834 210.548 342.939 210.236 343.262L212.063 340.21C217.687 338.807 221.586 330.153 222.131 324.951C216.262 333.037 212.731 338.328 201.37 336.546L206.56 332.581C206.605 331.01 203.921 331.812 202.896 331.667C194.03 330.42 196.28 329.807 192.214 321.899L191.602 327.39C186.456 320.518 188.205 310.282 192.515 303.276C190.054 300.202 186.857 312.955 185.799 309.992L191.903 292.283C187.191 295.079 193.172 283.383 193.729 279.463C194.954 271.009 193.518 261.697 195.556 253.21L191.591 257.788C188.973 257.877 194.242 246.015 194.943 244.656C196.425 241.805 205.836 232.46 199.22 234.275L202.272 230.611H199.22L205.023 221.143V229.085C218.389 214.082 215.148 187.996 216.93 168.95C216.986 168.36 218.645 169.897 218.757 168.95C220.505 154.404 214.97 136.883 214.48 122.248C222.245 147.716 224.643 154.937 221.842 193.075Z" fill="url(#paint0_linear_2025_7977)"/>
<path d="M212.063 340.211C203.331 342.394 188.517 334.575 185.51 326.166C188.606 328.449 193.384 332.024 197.105 332.882C197.394 332.949 204.133 333.695 202.908 331.657C203.932 331.801 206.617 330.999 206.572 332.57L201.382 336.535C212.743 338.306 216.262 333.016 222.143 324.94C221.597 330.153 217.688 338.796 212.074 340.2L212.063 340.211Z" fill="#DAB79C"/>
<path d="M179.095 344.477C178.995 344.633 176.333 345.101 176.344 346.916L174.818 346.615C176.344 344.555 176.645 342.594 177.258 340.2C182.648 319.138 182.738 339.03 179.084 344.477H179.095Z" fill="#15120F"/>
<path d="M118.648 219.317C119.005 225.621 117.635 232.048 116.822 238.241C110.473 250.938 106.397 258.913 97.8981 270.597C97.9761 266.576 97.8536 261.063 98.5107 257.165C98.8114 255.349 99.4129 254.102 99.7359 252.275C105.517 246.717 114.817 235.245 115.608 226.936C117.713 204.916 92.4961 195.147 80.8122 180.835C80.155 180.033 76.8804 177.07 78.0611 175.945C94.9576 189.534 117.212 193.276 118.66 219.295L118.648 219.317Z" fill="#A88368"/>
<path d="M154.055 186.348C153.988 186.627 153.52 187.495 153.442 187.573C144.387 196.673 135.432 206.976 130.854 219.317C130.297 217.101 129.607 214.817 129.027 212.601C135.309 201.73 143.529 193.243 154.055 186.348Z" fill="#7E5C40"/>
<path d="M39.2767 99.0477C38.3522 108.404 38.2186 117.147 38.0515 126.525C37.5503 155.451 36.6815 174.787 53.9234 199.18C53.9791 199.258 54.057 200.36 54.536 201.006C50.8604 228.54 52.7873 258.579 59.4256 285.567C63.6136 302.597 70.8979 322.78 85.0656 333.795L67.9686 334.096C66.4538 333.695 64.3821 333.84 62.7782 332.871C58.8798 334.419 81.2564 344.499 82.3145 345.078C82.8491 345.379 81.1339 346.537 82.9271 347.518C86.7252 349.6 92.5727 352.352 96.6604 351.182C98.0304 352.886 99.3893 354.679 100.325 356.673C97.1283 356.762 94.2769 356.261 91.1693 356.061L92.6953 354.234C78.082 350.391 57.6992 340.779 52.0967 325.843C50.2478 320.909 52.0522 311.608 47.2071 320.953C39.6999 305.014 43.0859 286.993 43.2419 269.974L29.5085 297.14L30.1211 212.891L21.5782 262.957C18.3592 264.026 21.1215 259.047 18.5263 258.992C15.9534 233.864 12.1776 191.038 14.8619 166.801C16.243 154.326 23.6721 132.908 28.2945 120.7C30.9565 113.661 34.5764 104.639 39.2878 99.0254L39.2767 99.0477Z" fill="#FDE9D5"/>
<path d="M91.1698 356.083C70.464 354.746 54.904 347.629 36.8267 345.089C29.8988 340.69 31.6921 327.836 30.1104 319.75C29.5424 316.832 27.4707 312.343 27.0586 310.282C23.7283 293.508 20.2643 276.044 18.5156 259.002C21.1108 259.069 18.3597 264.037 21.5675 262.968L30.1104 212.902L29.4978 297.151L43.2312 269.985C43.0753 287.015 39.6892 305.025 47.1964 320.964C52.0415 311.619 50.2259 320.908 52.086 325.854C57.6885 340.79 78.0825 350.402 92.6846 354.245L91.1587 356.071L91.1698 356.083Z" fill="#DAB79C"/>
<path d="M73.4704 135.068C80.933 138.588 89.2866 140.448 97.2838 142.397C105.593 144.424 106.45 147.354 116.82 144.224C118.847 143.611 124.873 140.103 126.588 138.733C137.515 140.582 148.787 138.621 158.945 134.456C143.808 146.396 130.576 145.583 125.976 167.124C123.815 177.215 125.519 188.609 122.623 197.954C122.734 159.049 78.2709 153.524 60.6504 126.525C64.8272 129.956 68.5139 132.74 73.4704 135.068Z" fill="#BA9476"/>
<path d="M80.7981 180.857C92.4932 195.159 117.71 204.938 115.594 226.958C114.803 235.267 105.503 246.739 99.7218 252.297C106.193 214.996 98.6971 218.526 72.8566 197.353C75.6523 188.71 66.5636 183.864 61.8633 178.429L66.1403 172.325C70.3728 175.689 75.6969 178.975 80.7981 180.868V180.857Z" fill="#DAB79C"/>
<path d="M94.2303 85.6147C93.9295 86.3053 93.807 86.9625 93.6177 87.4414C88.7057 99.8159 84.6403 108.359 84.4621 122.237C81.7555 122.103 81.6776 128.374 81.4102 128.653C79.3051 130.769 66.2178 120.9 64.9258 117.971C75.9414 109.985 84.696 98.9917 74.6939 85.9155C82.3347 89.023 87.0573 86.3053 89.9532 78.8984C93.1833 80.5135 91.7019 84.1779 94.2303 85.6147Z" fill="#DAB79C"/>
<path d="M41.116 138.12C42.2187 143.567 42.7867 150.083 44.1679 155.217C46.6962 164.618 51.5525 176.257 57.6005 183.909L53.936 199.168C36.6942 174.776 37.5629 155.44 38.0642 126.514C39.8128 129.833 40.3698 134.4 41.116 138.109V138.12Z" fill="#F4D5B9"/>
<path d="M64.9152 117.971C66.2073 120.9 79.2946 130.78 81.3997 128.653C81.667 128.385 81.745 122.114 84.4516 122.237C84.329 131.615 89.8981 137.608 97.2716 142.386C89.2744 140.437 80.9208 138.577 73.4582 135.057L62.4648 119.486C62.5428 117.414 64.5922 118.183 64.9041 117.96L64.9152 117.971Z" fill="#DAB79C"/>
<path d="M66.1407 172.303L61.8637 178.407C54.3788 169.73 52.5076 166.166 46.6044 156.732C45.8581 155.54 45.9027 154.905 44.1651 155.206C42.784 150.072 42.216 143.556 41.1133 138.109C47.1502 151.62 54.4902 163.025 66.1407 172.303Z" fill="#BA9476"/>
<path d="M171.154 121.023C168.18 125.701 164.482 129.221 160.773 133.23C160.572 133.319 159.091 134.389 158.946 134.456C148.788 138.61 137.505 140.582 126.59 138.733C133.072 133.531 137.416 126.146 138.185 117.971C140.557 119.285 139.276 129.287 140.936 130.178C142.228 130.88 152.263 129.466 154.368 128.953C160.483 127.472 165.339 122.916 171.154 121.012V121.023Z" fill="#DAB79C"/>
<path d="M130.252 77.6737C130.051 77.6737 129.84 77.6625 129.639 77.6737C128.514 77.9855 128.737 77.4175 128.414 77.0611C134.306 65.1321 136.367 64.0851 147.338 71.8707C143.74 72.4053 141.869 78.2194 139.096 78.8877C135.877 79.6674 132.925 77.8073 130.241 77.6625L130.252 77.6737Z" fill="#15120F"/>
<path d="M136.043 71.5697C137.09 71.1019 137.335 73.0956 136.656 73.3964C135.609 73.8642 135.363 71.8704 136.043 71.5697Z" fill="#D1CEC7"/>
<path d="M139.707 71.5697C141.155 71.7479 140.086 74.3097 139.095 72.7949C138.694 72.1823 139.64 71.5697 139.707 71.5697Z" fill="#FFFCFA"/>
<path d="M136.046 75.2343C137.616 74.3989 137.806 76.3258 136.658 76.4595C136.592 76.4595 135.422 75.5685 136.046 75.2343Z" fill="#314753"/>
<path d="M88.7297 78.2861C87.3263 78.1747 84.809 79.6115 82.626 79.5113C82.5034 75.9916 76.4331 75.7132 77.7363 71.8816C77.1794 72.9509 74.2723 73.0734 75.2971 70.9683C77.1348 70.2443 77.6026 69.1973 77.7363 69.1416C80.2981 68.1281 80.8995 66.023 84.1519 67.315C85.6555 67.9053 93.1515 77.5287 88.7297 78.3083V78.2861Z" fill="#15120F"/>
<path d="M81.7132 71.5694C82.5485 71.1684 83.8851 73.0953 82.9384 73.3961C82.0696 73.6857 81.3456 71.7476 81.7132 71.5694Z" fill="#A9A59D"/>
<path d="M85.3779 72.1824C86.1353 71.6589 86.1798 74.5214 85.3779 74.0091C84.9101 73.7195 84.8544 72.5388 85.3779 72.1824Z" fill="#C7D4D3"/>
<path d="M170.543 186.348C165.163 190.369 159.159 192.775 154.671 198.255C142.218 213.447 139.4 242.384 149.781 259.002C149.803 259.169 152.087 264.56 149.781 262.355C141.071 249.123 134.711 234.71 130.857 219.317C135.446 206.976 144.39 196.673 153.446 187.573L152.532 194.902C157.823 191.394 164.038 187.061 170.543 186.359V186.348Z" fill="#967457"/>
<path d="M97.8865 270.609C96.717 272.212 95.7257 274.44 94.5339 276.1C93.5426 275.621 95.5141 269.539 92.3954 271.21C92.4845 270.876 92.2952 270.308 92.3954 269.985C93.5315 266.209 96.6056 260.785 98.4991 257.165C97.842 261.063 97.9756 266.577 97.8865 270.597V270.609Z" fill="#BA9476"/>
<path d="M72.8587 197.342C98.6992 218.515 106.195 214.984 99.7239 252.286C99.412 254.102 98.8106 255.36 98.4987 257.176C96.6052 260.796 93.5311 266.22 92.395 269.996C91.6821 262.422 93.0522 254.692 91.7824 247.096C88.04 224.764 66.7773 217.435 54.5364 200.995C54.0575 200.349 53.9795 199.246 53.9238 199.168L57.5883 183.909C61.3418 188.665 68.1473 193.488 72.8475 197.342H72.8587Z" fill="#FDE9D5"/>
<path d="M92.3947 269.996C92.2945 270.319 92.4838 270.887 92.3947 271.221C91.4703 274.496 91.2141 277.692 90.5681 280.989C89.3095 287.405 87.9395 293.987 87.5162 300.525C87.0707 307.476 85.8901 318.981 90.5681 324.639C97.095 332.536 122.523 330.977 123.537 346.314C120.786 344.866 120.251 339.921 116.208 341.737C117.89 346.292 123.259 346.849 119.26 351.805C118.837 352.006 118.469 352.229 118.035 352.418C118.335 349.789 114.203 343.296 111.931 342.65C117.188 339.799 103.121 336.323 101.862 337.76L110.717 342.65C106.028 343.14 116.331 349.656 116.208 353.031C110.505 355.102 108.812 356.183 102.163 356.695C101.194 351.26 99.8796 348.898 95.4466 345.702C95.3018 345.59 95.7696 344.232 95.1459 343.875C94.5221 343.519 82.6823 340.678 80.7999 340.211C75.7544 338.974 81.7912 338.607 79.274 337.159C78.7505 336.858 76.4449 337.437 75.6096 337.159C73.4153 336.435 69.9402 334.63 67.9799 334.107L85.077 333.806C70.9093 322.791 63.6249 302.597 59.437 285.578C52.7986 258.59 50.8829 228.551 54.5473 201.017C66.7881 217.446 88.0509 224.786 91.7933 247.118C93.063 254.714 91.693 262.433 92.4059 270.018L92.3947 269.996Z" fill="#FFFCFA"/>
<path d="M6.30444 315.785L10.5815 329.218C10.5815 329.218 10.303 328.995 9.96889 329.83C8.49865 328.616 6.09281 319.538 2.95185 321.889C2.04966 322.568 6.34899 331.133 6.91704 332.269L3.25259 332.882C3.45307 328.494 0.869019 323.37 -3.76445 322.501L0.813328 333.495C-0.991055 334.341 -3.35234 335.032 -5.29037 335.321C-4.75574 332.091 -9.90157 322.145 -13.5326 323.114C-16.8741 324.005 -6.43761 332.815 -8.34223 335.321C-10.2691 335.343 -11.9399 335.845 -13.8333 335.934C-13.967 333.873 -18.9012 324.584 -21.463 324.94C-24.849 325.419 -18.6784 333.294 -17.4978 335.321C-22.4877 336.402 -42.4918 323.37 -42.5252 319.75C-42.6143 310.918 -8.47588 317.032 -3.14071 318.224C-9.04393 315.941 -14.3011 314.448 -19.6252 310.895L-15.0474 309.982C-16.1723 309.158 -18.9012 308.679 -19.3244 307.231C-11.9176 310.383 -0.322762 311.486 6.31558 315.774L6.30444 315.785Z" fill="#F4D5B9"/>
<path d="M3.25337 332.882C3.21995 333.528 3.50954 334.954 2.95263 335.321C2.6519 334.653 1.00346 333.762 0.814108 333.495L-3.76367 322.501C0.869798 323.359 3.46499 328.494 3.25337 332.882Z" fill="#15120F"/>
<path d="M9.97172 329.83C9.43708 331.189 7.78863 331.601 8.44579 334.72C8.26758 333.751 7.22059 332.882 6.91986 332.28C6.35182 331.144 2.04135 322.579 2.95468 321.9C6.09564 319.55 8.51262 328.616 9.97172 329.841V329.83Z" fill="#15120F"/>
<path d="M10.5817 329.218L6.30469 315.785C11.6956 319.271 12.4195 323.27 10.5817 329.218Z" fill="#15120F"/>
<path d="M61.8645 178.418C66.5537 183.853 75.6536 188.71 72.8579 197.342C68.1576 193.488 61.3522 188.665 57.5986 183.909C51.5618 176.246 46.6944 164.607 44.166 155.217C45.9036 154.916 45.859 155.551 46.6053 156.743C52.5196 166.166 54.3797 169.741 61.8645 178.418Z" fill="#DAB79C"/>
<path d="M127.802 78.8985C128.738 81.2264 129.039 83.8105 129.629 86.2274C131.511 93.9016 134.586 111.244 132.068 118.896C129.752 125.946 117.823 136.572 113.145 125.913C117.6 122.337 119.371 122.527 121.086 116.145C124.416 103.714 106.061 103.67 97.2727 105.151L97.8853 93.8571L93.6083 99.9608L92.383 99.3482C91.6813 96.6193 95.4572 90.3485 93.6083 87.4415C93.7976 86.9625 93.9201 86.2943 94.2209 85.6148C96.4708 80.4245 98.1637 67.6936 106.128 66.6911C107.141 66.5686 120.34 69.8209 121.387 70.3556C123.347 71.3469 126.956 76.8046 127.802 78.8985Z" fill="#FFFCFA"/>
<path d="M138.181 117.971C137.401 126.146 133.069 133.531 126.586 138.732C124.871 140.114 118.845 143.622 116.818 144.224C117.353 140.036 121.329 137.752 117.431 135.681C126.219 135.09 129.928 130.457 133.303 122.549C127.321 129.789 126.263 135.268 115.292 133.843C104.321 132.417 108.153 129.922 113.154 125.901C117.843 136.549 129.761 125.935 132.077 118.884C134.583 111.243 131.52 93.9014 129.638 86.2161C138.961 92.4089 139.161 107.757 138.181 117.96V117.971Z" fill="#FDE9D5"/>
<path d="M97.2829 105.151C90.2102 106.354 85.7327 108.515 88.1274 116.746C90.5221 124.977 103.643 126.136 103.999 130.479C104.2 132.896 94.5986 134.133 92.7052 133.832L89.6533 132.005C89.3414 132.663 91.1013 134.222 91.48 134.445C93.4291 135.592 113.701 135.915 117.432 135.67C121.33 137.742 117.354 140.036 116.819 144.213C106.45 147.331 105.581 144.402 97.2829 142.386C89.9095 137.608 84.3404 131.616 84.4629 122.237C84.6523 108.348 88.7066 99.8161 93.6185 87.4417C95.4786 90.3487 91.6916 96.6195 92.3933 99.3483L93.6185 99.9609L97.8955 93.8572L97.2829 105.151Z" fill="#FDE9D5"/>
<path d="M121.085 116.133C119.782 114.719 117.811 115.109 116.196 114.908C103.799 113.393 104.055 111.656 91.1683 115.521C90.1992 115.81 89.1522 116.49 88.1164 116.746C85.7217 108.515 90.2104 106.343 97.272 105.151C106.06 103.659 124.405 103.714 121.085 116.145V116.133Z" fill="#524435"/>
<path d="M121.086 116.133C119.382 122.516 117.6 122.326 113.145 125.902C108.144 129.922 104.39 132.417 115.283 133.843C126.176 135.269 127.312 129.789 133.294 122.549C129.919 130.446 126.21 135.091 117.422 135.681C113.702 135.926 93.4301 135.614 91.4698 134.456C91.0799 134.233 89.3313 132.662 89.6431 132.016L92.695 133.843C94.5885 134.144 104.19 132.896 103.989 130.491C103.633 126.147 90.5453 125.089 88.1172 116.757C89.153 116.501 90.2 115.822 91.169 115.532C91.002 119.386 95.5798 118.595 98.1861 120.422C101.071 122.438 101.784 126.28 103.076 127.138C104.368 127.996 109.892 127.105 110.093 126.225C110.193 125.779 105.069 123.462 111.006 119.208C111.184 119.074 114.459 118.049 114.671 117.982C117.633 117.158 118.669 120.667 120.474 116.456L116.196 114.931C117.812 115.131 119.783 114.73 121.086 116.156V116.133Z" fill="#15120F"/>
<path d="M116.208 114.919L120.485 116.445C118.68 120.655 117.656 117.147 114.682 117.971C114.47 118.027 111.195 119.062 111.017 119.196C105.081 123.451 110.204 125.768 110.104 126.213C109.903 127.093 104.357 127.973 103.087 127.127C101.817 126.28 101.082 122.426 98.1973 120.41C95.5909 118.584 91.0132 119.374 91.1802 115.521C104.067 111.667 103.822 113.404 116.208 114.908V114.919Z" fill="#251C11"/>
<defs>
<linearGradient id="paint0_linear_2025_7977" x1="325.516" y1="200.582" x2="173.202" y2="247.43" gradientUnits="userSpaceOnUse">
<stop stop-color="#EAF9EB"/>
<stop offset="1" stop-color="#FFF5EB"/>
</linearGradient>
</defs>
</svg>
